{"glyphs":{"0":{"ha":936,"x_min":121,"x_max":815,"o":"m 468 -11 q 224 22 292 -11 q 138 147 156 56 q 121 478 121 238 q 138 809 121 718 q 224 933 156 900 q 468 967 292 967 q 712 933 643 967 q 798 808 781 900 q 815 478 815 717 q 798 147 815 239 q 712 22 781 56 q 468 -11 643 -11 m 468 50 q 669 72 617 50 q 735 172 721 93 q 750 478 750 251 q 735 783 750 704 q 669 884 721 863 q 468 906 617 906 q 267 884 319 906 q 201 783 215 863 q 186 478 186 704 q 201 172 186 251 q 267 72 215 93 q 468 50 319 50 z "},"1":{"ha":510,"x_min":65,"x_max":336,"o":"m 269 0 l 269 872 l 65 767 l 65 832 l 285 956 l 336 956 l 336 0 l 269 0 z "},"2":{"ha":844,"x_min":107,"x_max":736,"o":"m 174 63 l 736 63 l 736 0 l 107 0 l 107 101 q 115 269 107 219 q 154 351 122 319 q 267 418 186 383 q 544 539 365 460 q 623 584 596 561 q 660 638 650 607 q 669 722 669 669 q 648 840 669 801 q 574 892 626 878 q 413 906 521 906 q 126 889 307 906 l 126 947 q 269 961 183 956 q 431 967 356 967 q 597 953 533 967 q 698 888 660 939 q 736 735 736 838 q 720 610 736 656 q 667 535 704 564 q 561 475 631 506 l 451 428 q 363 390 414 411 q 247 339 311 368 q 183 275 193 317 q 175 224 176 250 q 174 147 174 199 l 174 63 z "},"3":{"ha":829,"x_min":89,"x_max":714,"o":"m 361 -11 q 222 -6 299 -11 q 89 10 144 0 l 89 67 q 358 50 251 50 q 520 64 460 50 q 614 122 581 78 q 647 250 647 165 q 599 407 647 360 q 442 454 551 454 l 253 454 l 253 515 l 442 515 q 581 558 525 515 q 636 708 636 600 q 606 835 636 793 q 516 892 576 878 q 344 906 456 906 q 94 888 233 906 l 94 946 q 226 961 150 956 q 363 967 301 967 q 568 942 494 967 q 672 863 642 917 q 703 715 703 808 q 662 561 703 614 q 540 492 621 508 l 540 486 q 669 419 625 472 q 714 256 714 367 q 687 106 714 163 q 583 19 660 50 q 361 -11 506 -11 z "},"4":{"ha":886,"x_min":72,"x_max":813,"o":"m 599 0 l 599 239 l 72 239 l 72 294 l 454 956 l 531 956 l 149 300 l 599 300 l 606 697 l 664 697 l 664 300 l 813 300 l 813 239 l 664 239 l 664 0 l 599 0 z "},"5":{"ha":856,"x_min":122,"x_max":749,"o":"m 122 67 q 393 50 286 50 q 574 71 514 50 q 658 139 635 92 q 681 276 681 186 q 656 417 681 374 q 569 476 632 461 q 367 492 506 492 q 133 471 293 492 l 133 956 l 678 956 l 678 893 l 197 893 l 197 538 q 426 553 289 553 q 635 524 565 553 q 726 441 704 496 q 749 286 749 386 q 719 107 749 169 q 615 17 690 44 q 394 -11 540 -11 q 255 -6 332 -11 q 122 10 178 0 l 122 67 z "},"6":{"ha":901,"x_min":121,"x_max":818,"o":"m 485 -11 q 313 0 376 -11 q 207 45 249 11 q 143 149 165 79 q 125 262 129 189 q 121 465 121 335 q 126 669 121 592 q 149 799 132 747 q 214 903 171 867 q 323 953 257 939 q 494 967 389 967 q 765 946 608 967 l 765 888 q 508 906 611 906 q 295 875 360 906 q 209 760 231 844 q 188 485 188 676 l 196 485 q 288 538 224 518 q 486 557 351 557 q 689 539 621 557 q 788 466 757 521 q 818 294 818 411 q 793 104 818 168 q 698 15 768 40 q 485 -11 628 -11 m 474 50 q 652 64 596 50 q 731 123 708 78 q 753 268 753 168 q 732 424 753 378 q 657 482 711 469 q 474 494 603 494 q 287 477 346 494 q 210 424 228 460 q 192 315 192 388 q 216 141 192 196 q 297 68 240 86 q 474 50 354 50 z "},"7":{"ha":776,"x_min":61,"x_max":699,"o":"m 217 0 l 622 893 l 61 893 l 61 956 l 699 956 l 699 901 l 290 0 l 217 0 z "},"8":{"ha":946,"x_min":114,"x_max":832,"o":"m 474 -11 q 246 17 324 -11 q 141 102 168 46 q 114 256 114 158 q 133 382 114 336 q 188 450 151 428 q 288 485 225 472 l 288 490 q 162 558 201 506 q 122 715 122 611 q 152 861 122 807 q 258 941 182 915 q 474 967 335 967 q 688 941 613 967 q 794 861 764 915 q 824 715 824 807 q 784 558 824 611 q 658 490 744 506 l 658 485 q 758 450 721 472 q 813 382 794 428 q 832 256 832 336 q 805 102 832 158 q 700 17 778 46 q 474 -11 622 -11 m 474 514 q 649 531 589 514 q 733 588 710 547 q 757 708 757 629 q 734 830 757 789 q 651 888 711 871 q 474 906 592 906 q 294 888 354 906 q 212 830 235 871 q 189 708 189 789 q 213 588 189 629 q 297 531 238 547 q 474 514 357 514 m 474 50 q 651 66 590 50 q 739 124 713 82 q 765 250 765 167 q 741 381 765 339 q 657 438 717 424 q 474 453 597 453 q 288 438 349 453 q 204 381 228 424 q 181 250 181 339 q 207 124 181 167 q 294 66 233 82 q 474 50 356 50 z "},"9":{"ha":901,"x_min":83,"x_max":782,"o":"m 407 -11 q 278 -6 354 -11 q 136 10 201 0 l 136 68 q 393 50 286 50 q 607 81 542 50 q 694 195 672 111 q 715 471 715 279 l 707 471 q 614 418 678 438 q 415 399 550 399 q 213 417 281 399 q 114 490 144 435 q 83 661 83 544 q 108 851 83 788 q 203 941 133 915 q 417 967 274 967 q 590 956 525 967 q 696 914 654 946 q 757 817 738 882 q 777 690 772 765 q 782 490 782 614 q 775 284 782 364 q 749 147 768 204 q 640 22 718 56 q 407 -11 563 -11 m 428 461 q 615 478 556 461 q 693 532 675 496 q 711 640 711 568 q 687 815 711 760 q 605 888 663 869 q 428 906 547 906 q 250 892 306 906 q 172 833 194 878 q 150 688 150 788 q 171 532 150 578 q 245 474 192 486 q 428 461 299 461 z "},"\u0000":{"ha":0,"x_min":0,"x_max":0,"o":""},"\r":{"ha":314,"x_min":0,"x_max":0,"o":""}," ":{"ha":314,"x_min":0,"x_max":0,"o":""},"A":{"ha":947,"x_min":51,"x_max":896,"o":"m 825 0 l 706 296 l 240 296 l 121 0 l 51 0 l 438 956 l 510 956 l 896 0 l 825 0 m 476 871 l 469 871 l 264 358 l 682 358 l 476 871 z "},"Á":{"ha":947,"x_min":51,"x_max":894,"o":"m 825 0 l 706 296 l 240 296 l 121 0 l 51 0 l 438 956 l 510 956 l 896 0 l 825 0 m 476 871 l 469 871 l 264 358 l 682 358 l 476 871 m 431 1042 l 431 1049 l 576 1235 l 654 1235 l 654 1228 l 479 1042 l 431 1042 z "},"Ă":{"ha":946,"x_min":51,"x_max":894,"o":"m 825 0 l 706 296 l 240 296 l 121 0 l 51 0 l 438 956 l 510 956 l 896 0 l 825 0 m 476 871 l 469 871 l 264 358 l 682 358 l 476 871 m 656 1232 q 646 1122 656 1161 q 597 1058 636 1082 q 474 1035 558 1035 q 350 1058 389 1035 q 302 1121 311 1082 q 293 1232 293 1160 l 343 1232 q 349 1143 343 1172 q 383 1098 356 1114 q 474 1082 411 1082 q 564 1098 536 1082 q 599 1143 592 1114 q 606 1232 606 1172 l 656 1232 z "},"Ắ":{"ha":946,"x_min":51,"x_max":894,"o":"m 440 1278 l 440 1285 l 586 1471 l 664 1471 l 664 1464 l 489 1278 l 440 1278 m 650 1231 q 640 1120 650 1160 q 592 1057 631 1081 q 469 1033 553 1033 q 346 1057 385 1033 q 298 1119 307 1081 q 289 1231 289 1158 l 339 1231 q 345 1142 339 1171 q 379 1097 351 1113 q 469 1081 407 1081 q 558 1097 531 1081 q 593 1142 586 1113 q 600 1231 600 1171 l 650 1231 m 824 0 l 704 296 l 240 296 l 121 0 l 51 0 l 438 954 l 510 954 l 894 0 l 824 0 m 476 869 l 469 869 l 264 358 l 682 358 l 476 869 z "},"Ặ":{"ha":946,"x_min":51,"x_max":894,"o":"m 825 0 l 706 296 l 240 296 l 121 0 l 51 0 l 438 956 l 510 956 l 896 0 l 825 0 m 476 871 l 469 871 l 264 358 l 682 358 l 476 871 m 435 -187 l 435 -86 l 517 -86 l 517 -187 l 435 -187 m 656 1232 q 646 1122 656 1161 q 597 1058 636 1082 q 474 1035 558 1035 q 350 1058 389 1035 q 302 1121 311 1082 q 293 1232 293 1160 l 343 1232 q 349 1143 343 1172 q 383 1098 356 1114 q 474 1082 411 1082 q 564 1098 536 1082 q 599 1143 592 1114 q 606 1232 606 1172 l 656 1232 z "},"Ằ":{"ha":946,"x_min":51,"x_max":894,"o":"m 472 1278 l 297 1464 l 297 1471 l 375 1471 l 521 1285 l 521 1278 l 472 1278 m 656 1231 q 646 1120 656 1160 q 597 1057 636 1081 q 475 1033 558 1033 q 351 1057 390 1033 q 303 1119 313 1081 q 294 1231 294 1158 l 344 1231 q 351 1142 344 1171 q 385 1097 357 1113 q 475 1081 413 1081 q 564 1097 536 1081 q 599 1142 592 1113 q 606 1231 606 1171 l 656 1231 m 824 0 l 704 296 l 240 296 l 121 0 l 51 0 l 438 954 l 510 954 l 894 0 l 824 0 m 476 869 l 469 869 l 264 358 l 682 358 l 476 869 z "},"Ẳ":{"ha":946,"x_min":51,"x_max":894,"o":"m 415 1247 q 427 1292 415 1279 q 474 1317 439 1306 l 510 1325 q 563 1342 547 1335 q 585 1360 579 1350 q 590 1390 590 1371 q 578 1428 590 1417 q 543 1443 567 1440 q 468 1446 519 1446 q 313 1440 386 1446 l 313 1482 q 467 1490 379 1490 q 571 1484 535 1490 q 624 1458 607 1478 q 642 1396 642 1438 q 627 1331 642 1351 q 561 1297 613 1311 l 522 1286 q 478 1272 490 1278 q 464 1259 467 1267 q 461 1232 461 1251 l 415 1232 l 415 1247 m 654 1231 q 644 1120 654 1160 q 596 1057 635 1081 q 474 1033 557 1033 q 350 1057 389 1033 q 302 1119 311 1081 q 293 1231 293 1158 l 343 1231 q 349 1142 343 1171 q 383 1097 356 1113 q 474 1081 411 1081 q 563 1097 535 1081 q 597 1142 590 1113 q 604 1231 604 1171 l 654 1231 m 824 0 l 704 296 l 240 296 l 121 0 l 51 0 l 438 954 l 510 954 l 894 0 l 824 0 m 476 869 l 469 869 l 264 358 l 682 358 l 476 869 z "},"Ẵ":{"ha":946,"x_min":51,"x_max":894,"o":"m 714 1471 q 697 1362 714 1392 q 624 1332 679 1332 q 558 1340 590 1332 q 497 1357 525 1347 q 460 1369 468 1367 q 385 1392 417 1385 q 325 1400 354 1400 q 287 1383 296 1400 q 278 1317 278 1365 l 233 1317 q 251 1426 233 1396 q 324 1456 268 1456 q 399 1446 361 1456 q 489 1418 436 1436 q 526 1406 497 1415 q 578 1392 554 1397 q 622 1388 603 1388 q 661 1405 653 1388 q 669 1471 669 1422 l 714 1471 m 651 1231 q 642 1120 651 1160 q 593 1057 632 1081 q 471 1033 554 1033 q 347 1057 386 1033 q 299 1119 308 1081 q 290 1231 290 1158 l 340 1231 q 347 1142 340 1171 q 381 1097 353 1113 q 471 1081 408 1081 q 560 1097 532 1081 q 594 1142 588 1113 q 601 1231 601 1171 l 651 1231 m 824 0 l 704 296 l 240 296 l 121 0 l 51 0 l 438 954 l 510 954 l 894 0 l 824 0 m 476 869 l 469 869 l 264 358 l 682 358 l 476 869 z "},"Ǎ":{"ha":946,"x_min":51,"x_max":894,"o":"m 825 0 l 706 296 l 240 296 l 121 0 l 51 0 l 438 956 l 510 956 l 896 0 l 825 0 m 476 871 l 469 871 l 264 358 l 682 358 l 476 871 m 438 1039 l 290 1225 l 290 1232 l 338 1232 l 475 1086 l 614 1232 l 661 1232 l 661 1225 l 514 1039 l 438 1039 z "},"Â":{"ha":947,"x_min":51,"x_max":894,"o":"m 825 0 l 706 296 l 240 296 l 121 0 l 51 0 l 438 956 l 510 956 l 896 0 l 825 0 m 476 871 l 469 871 l 264 358 l 682 358 l 476 871 m 288 1042 l 288 1049 l 435 1235 l 511 1235 l 658 1049 l 658 1042 l 611 1042 l 472 1188 l 335 1042 l 288 1042 z "},"Ấ":{"ha":946,"x_min":51,"x_max":894,"o":"m 569 1236 l 569 1243 l 715 1429 l 793 1429 l 793 1422 l 618 1236 l 569 1236 m 285 1038 l 285 1044 l 432 1231 l 507 1231 l 654 1044 l 654 1038 l 607 1038 l 469 1183 l 332 1038 l 285 1038 m 824 0 l 704 296 l 240 296 l 121 0 l 51 0 l 438 954 l 510 954 l 894 0 l 824 0 m 476 869 l 469 869 l 264 358 l 682 358 l 476 869 z "},"Ậ":{"ha":946,"x_min":51,"x_max":894,"o":"m 825 0 l 706 296 l 240 296 l 121 0 l 51 0 l 438 956 l 510 956 l 896 0 l 825 0 m 476 871 l 469 871 l 264 358 l 682 358 l 476 871 m 435 -187 l 435 -86 l 517 -86 l 517 -187 l 435 -187 m 290 1039 l 290 1046 l 438 1232 l 514 1232 l 661 1046 l 661 1039 l 614 1039 l 475 1185 l 338 1039 l 290 1039 z "},"Ầ":{"ha":946,"x_min":51,"x_max":894,"o":"m 617 1236 l 442 1422 l 442 1429 l 519 1429 l 665 1243 l 665 1236 l 617 1236 m 282 1038 l 282 1044 l 429 1231 l 504 1231 l 651 1044 l 651 1038 l 604 1038 l 467 1183 l 329 1038 l 282 1038 m 824 0 l 704 296 l 240 296 l 121 0 l 51 0 l 438 954 l 510 954 l 894 0 l 824 0 m 476 869 l 469 869 l 264 358 l 682 358 l 476 869 z "},"Ẩ":{"ha":946,"x_min":51,"x_max":894,"o":"m 538 1250 q 549 1295 538 1282 q 596 1319 561 1308 l 632 1328 q 685 1345 669 1338 q 707 1363 701 1353 q 713 1393 713 1374 q 701 1431 713 1419 q 665 1446 689 1443 q 590 1449 642 1449 q 435 1443 508 1449 l 435 1485 q 589 1493 501 1493 q 693 1487 657 1493 q 747 1460 729 1481 q 764 1399 764 1440 q 749 1334 764 1354 q 683 1300 735 1314 l 644 1289 q 601 1275 613 1281 q 586 1262 589 1269 q 583 1235 583 1254 l 538 1235 l 538 1250 m 290 1038 l 290 1044 l 438 1231 l 513 1231 l 660 1044 l 660 1038 l 613 1038 l 475 1183 l 338 1038 l 290 1038 m 824 0 l 704 296 l 240 296 l 121 0 l 51 0 l 438 954 l 510 954 l 894 0 l 824 0 m 476 869 l 469 869 l 264 358 l 682 358 l 476 869 z "},"Ẫ":{"ha":946,"x_min":51,"x_max":894,"o":"m 714 1471 q 697 1362 714 1392 q 624 1332 679 1332 q 558 1340 590 1332 q 497 1357 525 1347 q 460 1369 468 1367 q 385 1392 417 1385 q 325 1400 354 1400 q 287 1383 296 1400 q 278 1317 278 1365 l 233 1317 q 251 1426 233 1396 q 324 1456 268 1456 q 399 1446 361 1456 q 489 1418 436 1436 q 526 1406 497 1415 q 578 1392 554 1397 q 622 1388 603 1388 q 661 1405 653 1388 q 669 1471 669 1422 l 714 1471 m 288 1038 l 288 1044 l 435 1231 l 510 1231 l 657 1044 l 657 1038 l 610 1038 l 472 1183 l 335 1038 l 288 1038 m 824 0 l 704 296 l 240 296 l 121 0 l 51 0 l 438 954 l 510 954 l 894 0 l 824 0 m 476 869 l 469 869 l 264 358 l 682 358 l 476 869 z "},"Ȁ":{"ha":946,"x_min":51,"x_max":894,"o":"m 825 0 l 706 296 l 240 296 l 121 0 l 51 0 l 438 956 l 510 956 l 896 0 l 825 0 m 476 871 l 469 871 l 264 358 l 682 358 l 476 871 m 381 1040 l 335 1040 l 161 1224 l 161 1231 l 235 1231 l 381 1047 l 381 1040 m 647 1040 l 601 1040 l 428 1224 l 428 1231 l 503 1231 l 647 1047 l 647 1040 z "},"Ä":{"ha":947,"x_min":51,"x_max":894,"o":"m 825 0 l 706 296 l 240 296 l 121 0 l 51 0 l 438 956 l 510 956 l 896 0 l 825 0 m 476 871 l 469 871 l 264 358 l 682 358 l 476 871 m 313 1071 l 313 1163 l 383 1163 l 383 1071 l 313 1071 m 565 1071 l 565 1163 l 636 1163 l 636 1071 l 565 1071 z "},"Ạ":{"ha":946,"x_min":51,"x_max":894,"o":"m 825 0 l 706 296 l 240 296 l 121 0 l 51 0 l 438 956 l 510 956 l 896 0 l 825 0 m 476 871 l 469 871 l 264 358 l 682 358 l 476 871 m 435 -187 l 435 -86 l 517 -86 l 517 -187 l 435 -187 z "},"À":{"ha":947,"x_min":51,"x_max":894,"o":"m 825 0 l 706 296 l 240 296 l 121 0 l 51 0 l 438 956 l 510 956 l 896 0 l 825 0 m 476 871 l 469 871 l 264 358 l 682 358 l 476 871 m 467 1042 l 292 1228 l 292 1235 l 369 1235 l 515 1049 l 515 1042 l 467 1042 z "},"Ả":{"ha":946,"x_min":51,"x_max":894,"o":"m 825 0 l 706 296 l 240 296 l 121 0 l 51 0 l 438 956 l 510 956 l 896 0 l 825 0 m 476 871 l 469 871 l 264 358 l 682 358 l 476 871 m 413 1026 q 424 1073 413 1060 q 471 1096 436 1086 l 507 1106 q 560 1122 544 1115 q 582 1140 576 1129 q 588 1169 588 1150 q 576 1210 588 1197 q 540 1225 564 1222 q 464 1228 515 1228 q 310 1221 403 1228 l 310 1263 q 464 1272 388 1272 q 569 1265 532 1272 q 623 1238 606 1258 q 640 1176 640 1218 q 625 1111 640 1132 q 558 1076 610 1090 l 519 1067 q 476 1053 488 1058 q 461 1040 464 1047 q 458 1013 458 1032 l 413 1013 l 413 1026 z "},"Ȃ":{"ha":946,"x_min":51,"x_max":894,"o":"m 825 0 l 706 296 l 240 296 l 121 0 l 51 0 l 438 956 l 510 956 l 896 0 l 825 0 m 476 871 l 469 871 l 264 358 l 682 358 l 476 871 m 293 1046 q 303 1156 293 1117 q 351 1219 313 1196 q 475 1243 390 1243 q 599 1219 560 1243 q 647 1157 638 1196 q 656 1046 656 1118 l 606 1046 q 599 1135 606 1106 q 565 1180 593 1164 q 475 1196 538 1196 q 385 1180 413 1196 q 350 1135 357 1164 q 343 1046 343 1106 l 293 1046 z "},"Ā":{"ha":946,"x_min":51,"x_max":894,"o":"m 825 0 l 706 296 l 240 296 l 121 0 l 51 0 l 438 956 l 510 956 l 896 0 l 825 0 m 476 871 l 469 871 l 264 358 l 682 358 l 476 871 m 315 1167 l 315 1231 l 633 1231 l 633 1167 l 315 1167 z "},"Ą":{"ha":947,"x_min":51,"x_max":896,"o":"m 801 -158 q 867 -219 801 -219 q 890 -218 879 -219 l 890 -271 q 854 -272 875 -272 q 769 -244 796 -272 q 742 -171 742 -217 q 765 -83 742 -131 q 824 1 788 -36 l 706 296 l 240 296 l 121 0 l 51 0 l 438 956 l 510 956 l 896 0 l 883 0 q 827 -75 853 -29 q 801 -158 801 -121 m 264 358 l 682 358 l 476 871 l 469 871 l 264 358 z "},"Å":{"ha":947,"x_min":51,"x_max":896,"o":"m 896 0 l 825 0 l 706 296 l 240 296 l 121 0 l 51 0 l 422 921 q 349 940 372 925 q 319 979 325 954 q 313 1054 313 1004 q 322 1137 313 1110 q 365 1176 331 1164 q 474 1189 399 1189 q 583 1176 549 1189 q 626 1137 617 1164 q 635 1054 635 1110 q 628 979 635 1004 q 599 940 622 954 q 525 921 576 925 l 896 0 m 365 1054 q 371 996 365 1013 q 399 972 376 979 q 474 964 421 964 q 549 972 526 964 q 576 996 571 979 q 582 1054 582 1013 q 576 1112 582 1094 q 549 1137 571 1129 q 474 1144 526 1144 q 399 1137 421 1144 q 371 1112 376 1129 q 365 1054 365 1094 m 264 358 l 682 358 l 476 871 l 469 871 l 264 358 z "},"Ǻ":{"ha":946,"x_min":51,"x_max":894,"o":"m 896 0 l 825 0 l 706 296 l 240 296 l 121 0 l 51 0 l 422 921 q 349 940 372 925 q 319 979 325 954 q 313 1054 313 1004 q 322 1137 313 1110 q 365 1176 331 1164 q 474 1189 399 1189 q 583 1176 549 1189 q 626 1137 617 1164 q 635 1054 635 1110 q 628 979 635 1004 q 599 940 622 954 q 525 921 576 925 l 896 0 m 365 1054 q 371 996 365 1013 q 399 972 376 979 q 474 964 421 964 q 549 972 526 964 q 576 996 571 979 q 582 1054 582 1013 q 576 1112 582 1094 q 549 1137 571 1129 q 474 1144 526 1144 q 399 1137 421 1144 q 371 1112 376 1129 q 365 1054 365 1094 m 264 358 l 682 358 l 476 871 l 469 871 l 264 358 m 440 1272 l 440 1279 l 586 1465 l 664 1465 l 664 1458 l 489 1272 l 440 1272 z "},"Ã":{"ha":947,"x_min":51,"x_max":894,"o":"m 825 0 l 706 296 l 240 296 l 121 0 l 51 0 l 438 956 l 510 956 l 896 0 l 825 0 m 476 871 l 469 871 l 264 358 l 682 358 l 476 871 m 715 1196 q 698 1087 715 1117 q 625 1057 681 1057 q 556 1065 589 1057 q 460 1094 522 1074 q 385 1117 417 1110 q 325 1125 354 1125 q 287 1108 296 1125 q 278 1042 278 1090 l 233 1042 q 251 1151 233 1121 q 324 1181 268 1181 q 399 1171 361 1181 q 489 1143 436 1161 q 525 1131 496 1140 q 579 1117 554 1122 q 624 1113 604 1113 q 663 1130 654 1113 q 671 1196 671 1147 l 715 1196 z "},"Æ":{"ha":1317,"x_min":-3,"x_max":1238,"o":"m 771 0 l 683 296 l 217 296 l 67 0 l -3 0 l 482 956 l 1238 956 l 1238 894 l 574 894 l 689 514 l 1172 514 l 1172 453 l 706 453 l 824 61 l 1238 61 l 1238 0 l 771 0 m 514 871 l 507 871 l 246 358 l 665 358 l 514 871 z "},"Ǽ":{"ha":1315,"x_min":-3,"x_max":1236,"o":"m 771 0 l 683 296 l 217 296 l 67 0 l -3 0 l 482 956 l 1238 956 l 1238 894 l 574 894 l 689 514 l 1172 514 l 1172 453 l 706 453 l 824 61 l 1238 61 l 1238 0 l 771 0 m 514 871 l 507 871 l 246 358 l 665 358 l 514 871 m 618 1039 l 618 1046 l 764 1232 l 842 1232 l 842 1225 l 667 1039 l 618 1039 z "},"B":{"ha":951,"x_min":154,"x_max":838,"o":"m 154 956 l 585 956 q 772 894 718 956 q 826 717 826 832 q 664 492 826 522 l 664 486 q 802 406 767 469 q 838 250 838 343 q 783 69 838 138 q 574 0 728 0 l 154 0 l 154 956 m 567 515 q 710 565 660 515 q 760 704 760 614 q 718 850 760 806 q 567 894 676 894 l 221 894 l 221 515 l 567 515 m 571 61 q 726 108 682 61 q 771 257 771 154 q 724 407 771 360 q 571 454 676 454 l 221 454 l 221 61 l 571 61 z "},"C":{"ha":800,"x_min":121,"x_max":714,"o":"m 714 4 q 610 -7 672 -3 q 494 -11 549 -11 q 249 22 324 -11 q 148 153 175 54 q 121 478 121 251 q 148 801 121 701 q 250 933 175 900 q 494 967 325 967 q 608 962 549 967 q 708 949 668 957 l 708 892 q 511 906 611 906 q 290 880 354 906 q 206 770 226 854 q 186 478 186 686 q 206 185 186 269 q 290 76 226 101 q 511 50 354 50 q 714 64 621 50 l 714 4 z "},"Ć":{"ha":799,"x_min":121,"x_max":713,"o":"m 714 4 q 610 -7 672 -3 q 494 -11 549 -11 q 249 22 324 -11 q 148 153 175 54 q 121 478 121 251 q 148 801 121 701 q 250 933 175 900 q 494 967 325 967 q 608 962 549 967 q 708 949 668 957 l 708 892 q 511 906 611 906 q 290 880 354 906 q 206 770 226 854 q 186 478 186 686 q 206 185 186 269 q 290 76 226 101 q 511 50 354 50 q 714 64 621 50 l 714 4 m 367 1039 l 367 1046 l 513 1232 l 590 1232 l 590 1225 l 415 1039 l 367 1039 z "},"Č":{"ha":799,"x_min":121,"x_max":713,"o":"m 714 4 q 610 -7 672 -3 q 494 -11 549 -11 q 249 22 324 -11 q 148 153 175 54 q 121 478 121 251 q 148 801 121 701 q 250 933 175 900 q 494 967 325 967 q 608 962 549 967 q 708 949 668 957 l 708 892 q 511 906 611 906 q 290 880 354 906 q 206 770 226 854 q 186 478 186 686 q 206 185 186 269 q 290 76 226 101 q 511 50 354 50 q 714 64 621 50 l 714 4 m 363 1039 l 215 1225 l 215 1232 l 263 1232 l 400 1086 l 539 1232 l 586 1232 l 586 1225 l 439 1039 l 363 1039 z "},"Ç":{"ha":799,"x_min":121,"x_max":713,"o":"m 511 50 q 713 64 622 50 l 713 4 q 610 -7 671 -3 q 494 -11 549 -11 q 424 -10 446 -11 l 367 -264 l 297 -264 l 297 -257 l 375 -7 q 213 45 265 3 q 140 185 160 88 q 121 478 121 282 q 148 799 121 700 q 250 932 175 899 q 494 965 325 965 q 608 960 549 965 q 707 947 668 956 l 707 890 q 511 904 613 904 q 290 878 354 904 q 206 769 226 853 q 186 478 186 685 q 206 185 186 269 q 290 76 226 101 q 511 50 354 50 z "},"Ĉ":{"ha":799,"x_min":121,"x_max":713,"o":"m 714 4 q 610 -7 672 -3 q 494 -11 549 -11 q 249 22 324 -11 q 148 153 175 54 q 121 478 121 251 q 148 801 121 701 q 250 933 175 900 q 494 967 325 967 q 608 962 549 967 q 708 949 668 957 l 708 892 q 511 906 611 906 q 290 880 354 906 q 206 770 226 854 q 186 478 186 686 q 206 185 186 269 q 290 76 226 101 q 511 50 354 50 q 714 64 621 50 l 714 4 m 215 1039 l 215 1046 l 363 1232 l 439 1232 l 586 1046 l 586 1039 l 539 1039 l 400 1185 l 263 1039 l 215 1039 z "},"Ċ":{"ha":799,"x_min":121,"x_max":713,"o":"m 714 4 q 610 -7 672 -3 q 494 -11 549 -11 q 249 22 324 -11 q 148 153 175 54 q 121 478 121 251 q 148 801 121 701 q 250 933 175 900 q 494 967 325 967 q 608 962 549 967 q 708 949 668 957 l 708 892 q 511 906 611 906 q 290 880 354 906 q 206 770 226 854 q 186 478 186 686 q 206 185 186 269 q 290 76 226 101 q 511 50 354 50 q 714 64 621 50 l 714 4 m 364 1124 l 364 1215 l 435 1215 l 435 1124 l 364 1124 z "},"D":{"ha":960,"x_min":154,"x_max":839,"o":"m 154 956 l 443 956 q 716 923 638 956 q 817 799 794 890 q 839 478 839 707 q 817 157 839 249 q 716 33 794 65 q 443 0 638 0 l 154 0 l 154 956 m 418 61 q 669 81 604 61 q 754 180 735 101 q 774 478 774 258 q 753 775 774 696 q 668 874 733 854 q 418 894 603 894 l 221 894 l 221 61 l 418 61 z "},"Ǳ":{"ha":1793,"x_min":154,"x_max":1718,"o":"m 154 956 l 443 956 q 716 923 638 956 q 817 799 794 890 q 839 478 839 707 q 817 157 839 249 q 716 33 794 65 q 443 0 638 0 l 154 0 l 154 956 m 418 61 q 669 81 604 61 q 754 180 735 101 q 774 478 774 258 q 753 775 774 696 q 668 874 733 854 q 418 894 603 894 l 221 894 l 221 61 l 418 61 m 1039 0 l 1039 58 l 1625 894 l 1054 894 l 1054 956 l 1708 956 l 1708 897 l 1124 61 l 1719 61 l 1719 0 l 1039 0 z "},"Ǆ":{"ha":1792,"x_min":154,"x_max":1717,"o":"m 1340 1038 l 1193 1224 l 1193 1231 l 1240 1231 l 1378 1085 l 1517 1231 l 1564 1231 l 1564 1224 l 1417 1038 l 1340 1038 m 154 954 l 442 954 q 715 922 636 954 q 815 797 793 889 q 838 476 838 706 q 815 156 838 247 q 715 33 793 65 q 442 0 636 0 l 154 0 l 154 954 m 1038 0 l 1038 58 l 1622 893 l 1053 893 l 1053 954 l 1706 954 l 1706 896 l 1122 61 l 1717 61 l 1717 0 l 1038 0 m 417 61 q 668 81 603 61 q 753 180 733 101 q 772 476 772 258 q 752 774 772 694 q 667 873 732 853 q 417 893 601 893 l 221 893 l 221 61 l 417 61 z "},"Ð":{"ha":960,"x_min":58,"x_max":839,"o":"m 154 453 l 58 453 l 58 515 l 154 515 l 154 956 l 443 956 q 716 923 638 956 q 817 799 794 890 q 839 478 839 707 q 817 157 839 249 q 716 33 794 65 q 443 0 638 0 l 154 0 l 154 453 m 418 61 q 669 81 604 61 q 754 180 735 101 q 774 478 774 258 q 753 775 774 696 q 668 874 733 854 q 418 894 603 894 l 221 894 l 221 515 l 393 515 l 393 453 l 221 453 l 221 61 l 418 61 z "},"Ď":{"ha":958,"x_min":154,"x_max":838,"o":"m 154 956 l 443 956 q 716 923 638 956 q 817 799 794 890 q 839 478 839 707 q 817 157 839 249 q 716 33 794 65 q 443 0 638 0 l 154 0 l 154 956 m 418 61 q 669 81 604 61 q 754 180 735 101 q 774 478 774 258 q 753 775 774 696 q 668 874 733 854 q 418 894 603 894 l 221 894 l 221 61 l 418 61 m 443 1039 l 296 1225 l 296 1232 l 343 1232 l 481 1086 l 619 1232 l 667 1232 l 667 1225 l 519 1039 l 443 1039 z "},"Đ":{"ha":958,"x_min":58,"x_max":838,"o":"m 154 453 l 58 453 l 58 515 l 154 515 l 154 956 l 443 956 q 716 923 638 956 q 817 799 794 890 q 839 478 839 707 q 817 157 839 249 q 716 33 794 65 q 443 0 638 0 l 154 0 l 154 453 m 418 61 q 669 81 604 61 q 754 180 735 101 q 774 478 774 258 q 753 775 774 696 q 668 874 733 854 q 418 894 603 894 l 221 894 l 221 515 l 393 515 l 393 453 l 221 453 l 221 61 l 418 61 z "},"Ḍ":{"ha":958,"x_min":154,"x_max":838,"o":"m 154 956 l 443 956 q 716 923 638 956 q 817 799 794 890 q 839 478 839 707 q 817 157 839 249 q 716 33 794 65 q 443 0 638 0 l 154 0 l 154 956 m 418 61 q 669 81 604 61 q 754 180 735 101 q 774 478 774 258 q 753 775 774 696 q 668 874 733 854 q 418 894 603 894 l 221 894 l 221 61 l 418 61 m 440 -187 l 440 -86 l 522 -86 l 522 -187 l 440 -187 z "},"ǲ":{"ha":1650,"x_min":154,"x_max":1575,"o":"m 154 956 l 443 956 q 716 923 638 956 q 817 799 794 890 q 839 478 839 707 q 817 157 839 249 q 716 33 794 65 q 443 0 638 0 l 154 0 l 154 956 m 418 61 q 669 81 604 61 q 754 180 735 101 q 774 478 774 258 q 753 775 774 696 q 668 874 733 854 q 418 894 603 894 l 221 894 l 221 61 l 418 61 m 1033 0 l 1033 51 l 1488 650 l 1050 650 l 1050 708 l 1572 708 l 1572 657 l 1119 58 l 1575 58 l 1575 0 l 1033 0 z "},"ǅ":{"ha":1649,"x_min":154,"x_max":1572,"o":"m 1282 836 l 1135 1022 l 1135 1029 l 1182 1029 l 1319 883 l 1458 1029 l 1506 1029 l 1506 1022 l 1358 836 l 1282 836 m 154 954 l 442 954 q 715 922 636 954 q 815 797 793 889 q 838 476 838 706 q 815 156 838 247 q 715 33 793 65 q 442 0 636 0 l 154 0 l 154 954 m 417 61 q 668 81 603 61 q 753 180 733 101 q 772 476 772 258 q 752 774 772 694 q 667 873 732 853 q 417 893 601 893 l 221 893 l 221 61 l 417 61 m 1032 0 l 1032 51 l 1485 649 l 1049 649 l 1049 707 l 1569 707 l 1569 656 l 1118 58 l 1572 58 l 1572 0 l 1032 0 z "},"E":{"ha":832,"x_min":154,"x_max":753,"o":"m 154 0 l 154 956 l 753 956 l 753 894 l 221 894 l 221 514 l 688 514 l 688 453 l 221 453 l 221 61 l 753 61 l 753 0 l 154 0 z "},"É":{"ha":832,"x_min":154,"x_max":751,"o":"m 154 0 l 154 956 l 753 956 l 753 894 l 221 894 l 221 514 l 688 514 l 688 453 l 221 453 l 221 61 l 753 61 l 753 0 l 154 0 m 413 1042 l 413 1049 l 558 1235 l 636 1235 l 636 1228 l 461 1042 l 413 1042 z "},"Ĕ":{"ha":831,"x_min":154,"x_max":751,"o":"m 154 0 l 154 956 l 753 956 l 753 894 l 221 894 l 221 514 l 688 514 l 688 453 l 221 453 l 221 61 l 753 61 l 753 0 l 154 0 m 635 1232 q 625 1122 635 1161 q 576 1058 615 1082 q 453 1035 538 1035 q 329 1058 368 1035 q 281 1121 290 1082 q 272 1232 272 1160 l 322 1232 q 328 1143 322 1172 q 363 1098 335 1114 q 453 1082 390 1082 q 543 1098 515 1082 q 578 1143 571 1114 q 585 1232 585 1172 l 635 1232 z "},"Ě":{"ha":831,"x_min":154,"x_max":751,"o":"m 154 0 l 154 956 l 753 956 l 753 894 l 221 894 l 221 514 l 688 514 l 688 453 l 221 453 l 221 61 l 753 61 l 753 0 l 154 0 m 417 1039 l 269 1225 l 269 1232 l 317 1232 l 454 1086 l 593 1232 l 640 1232 l 640 1225 l 493 1039 l 417 1039 z "},"Ê":{"ha":832,"x_min":154,"x_max":751,"o":"m 154 0 l 154 956 l 753 956 l 753 894 l 221 894 l 221 514 l 688 514 l 688 453 l 221 453 l 221 61 l 753 61 l 753 0 l 154 0 m 275 1042 l 275 1049 l 422 1235 l 499 1235 l 646 1049 l 646 1042 l 599 1042 l 460 1188 l 322 1042 l 275 1042 z "},"Ế":{"ha":831,"x_min":154,"x_max":772,"o":"m 549 1236 l 549 1243 l 694 1429 l 772 1429 l 772 1422 l 597 1236 l 549 1236 m 264 1038 l 264 1044 l 411 1231 l 486 1231 l 633 1044 l 633 1038 l 586 1038 l 449 1183 l 311 1038 l 264 1038 m 154 0 l 154 954 l 751 954 l 751 893 l 221 893 l 221 514 l 688 514 l 688 453 l 221 453 l 221 61 l 751 61 l 751 0 l 154 0 z "},"Ệ":{"ha":831,"x_min":154,"x_max":751,"o":"m 154 0 l 154 956 l 753 956 l 753 894 l 221 894 l 221 514 l 688 514 l 688 453 l 221 453 l 221 61 l 753 61 l 753 0 l 154 0 m 414 -187 l 414 -86 l 496 -86 l 496 -187 l 414 -187 m 269 1039 l 269 1046 l 417 1232 l 493 1232 l 640 1046 l 640 1039 l 593 1039 l 454 1185 l 317 1039 l 269 1039 z "},"Ề":{"ha":831,"x_min":154,"x_max":751,"o":"m 596 1236 l 421 1422 l 421 1429 l 499 1429 l 644 1243 l 644 1236 l 596 1236 m 261 1038 l 261 1044 l 408 1231 l 483 1231 l 631 1044 l 631 1038 l 583 1038 l 446 1183 l 308 1038 l 261 1038 m 154 0 l 154 954 l 751 954 l 751 893 l 221 893 l 221 514 l 688 514 l 688 453 l 221 453 l 221 61 l 751 61 l 751 0 l 154 0 z "},"Ể":{"ha":831,"x_min":154,"x_max":751,"o":"m 517 1250 q 528 1295 517 1282 q 575 1319 540 1308 l 611 1328 q 665 1345 649 1338 q 686 1363 681 1353 q 692 1393 692 1374 q 680 1431 692 1419 q 644 1446 668 1443 q 569 1449 621 1449 q 414 1443 488 1449 l 414 1485 q 568 1493 481 1493 q 672 1487 636 1493 q 726 1460 708 1481 q 743 1399 743 1440 q 728 1334 743 1354 q 663 1300 714 1314 l 624 1289 q 580 1275 592 1281 q 565 1262 568 1269 q 563 1235 563 1254 l 517 1235 l 517 1250 m 269 1038 l 269 1044 l 417 1231 l 492 1231 l 639 1044 l 639 1038 l 592 1038 l 454 1183 l 317 1038 l 269 1038 m 154 0 l 154 954 l 751 954 l 751 893 l 221 893 l 221 514 l 688 514 l 688 453 l 221 453 l 221 61 l 751 61 l 751 0 l 154 0 z "},"Ễ":{"ha":831,"x_min":154,"x_max":751,"o":"m 693 1471 q 676 1362 693 1392 q 603 1332 658 1332 q 537 1340 569 1332 q 476 1357 504 1347 q 439 1369 447 1367 q 365 1392 396 1385 q 304 1400 333 1400 q 266 1383 275 1400 q 257 1317 257 1365 l 213 1317 q 230 1426 213 1396 q 303 1456 247 1456 q 378 1446 340 1456 q 468 1418 415 1436 q 505 1406 476 1415 q 558 1392 533 1397 q 601 1388 582 1388 q 640 1405 632 1388 q 649 1471 649 1422 l 693 1471 m 267 1038 l 267 1044 l 414 1231 l 489 1231 l 636 1044 l 636 1038 l 589 1038 l 451 1183 l 314 1038 l 267 1038 m 154 0 l 154 954 l 751 954 l 751 893 l 221 893 l 221 514 l 688 514 l 688 453 l 221 453 l 221 61 l 751 61 l 751 0 l 154 0 z "},"Ȅ":{"ha":831,"x_min":140,"x_max":751,"o":"m 154 0 l 154 956 l 753 956 l 753 894 l 221 894 l 221 514 l 688 514 l 688 453 l 221 453 l 221 61 l 753 61 l 753 0 l 154 0 m 360 1040 l 314 1040 l 140 1224 l 140 1231 l 214 1231 l 360 1047 l 360 1040 m 626 1040 l 581 1040 l 407 1224 l 407 1231 l 482 1231 l 626 1047 l 626 1040 z "},"Ë":{"ha":832,"x_min":154,"x_max":751,"o":"m 154 0 l 154 956 l 753 956 l 753 894 l 221 894 l 221 514 l 688 514 l 688 453 l 221 453 l 221 61 l 753 61 l 753 0 l 154 0 m 303 1071 l 303 1163 l 374 1163 l 374 1071 l 303 1071 m 556 1071 l 556 1163 l 626 1163 l 626 1071 l 556 1071 z "},"Ė":{"ha":831,"x_min":154,"x_max":751,"o":"m 154 0 l 154 956 l 753 956 l 753 894 l 221 894 l 221 514 l 688 514 l 688 453 l 221 453 l 221 61 l 753 61 l 753 0 l 154 0 m 418 1124 l 418 1215 l 489 1215 l 489 1124 l 418 1124 z "},"Ẹ":{"ha":831,"x_min":154,"x_max":751,"o":"m 154 0 l 154 956 l 753 956 l 753 894 l 221 894 l 221 514 l 688 514 l 688 453 l 221 453 l 221 61 l 753 61 l 753 0 l 154 0 m 414 -187 l 414 -86 l 496 -86 l 496 -187 l 414 -187 z "},"È":{"ha":832,"x_min":154,"x_max":751,"o":"m 154 0 l 154 956 l 753 956 l 753 894 l 221 894 l 221 514 l 688 514 l 688 453 l 221 453 l 221 61 l 753 61 l 753 0 l 154 0 m 451 1042 l 276 1228 l 276 1235 l 354 1235 l 500 1049 l 500 1042 l 451 1042 z "},"Ẻ":{"ha":831,"x_min":154,"x_max":751,"o":"m 154 0 l 154 956 l 753 956 l 753 894 l 221 894 l 221 514 l 688 514 l 688 453 l 221 453 l 221 61 l 753 61 l 753 0 l 154 0 m 392 1026 q 403 1073 392 1060 q 450 1096 415 1086 l 486 1106 q 540 1122 524 1115 q 561 1140 556 1129 q 567 1169 567 1150 q 555 1210 567 1197 q 519 1225 543 1222 q 443 1228 494 1228 q 289 1221 382 1228 l 289 1263 q 443 1272 367 1272 q 548 1265 511 1272 q 602 1238 585 1258 q 619 1176 619 1218 q 604 1111 619 1132 q 538 1076 589 1090 l 499 1067 q 455 1053 467 1058 q 440 1040 443 1047 q 438 1013 438 1032 l 392 1013 l 392 1026 z "},"Ȇ":{"ha":831,"x_min":154,"x_max":751,"o":"m 154 0 l 154 956 l 753 956 l 753 894 l 221 894 l 221 514 l 688 514 l 688 453 l 221 453 l 221 61 l 753 61 l 753 0 l 154 0 m 272 1046 q 282 1156 272 1117 q 331 1219 292 1196 q 454 1243 369 1243 q 578 1219 539 1243 q 626 1157 617 1196 q 635 1046 635 1118 l 585 1046 q 578 1135 585 1106 q 544 1180 572 1164 q 454 1196 517 1196 q 364 1180 392 1196 q 329 1135 336 1164 q 322 1046 322 1106 l 272 1046 z "},"Ē":{"ha":831,"x_min":154,"x_max":751,"o":"m 154 0 l 154 956 l 753 956 l 753 894 l 221 894 l 221 514 l 688 514 l 688 453 l 221 453 l 221 61 l 753 61 l 753 0 l 154 0 m 294 1167 l 294 1231 l 613 1231 l 613 1167 l 294 1167 z "},"Ę":{"ha":832,"x_min":154,"x_max":753,"o":"m 711 -272 q 627 -244 654 -272 q 600 -174 600 -217 q 625 -85 600 -131 q 692 0 650 -39 l 154 0 l 154 956 l 753 956 l 753 894 l 221 894 l 221 514 l 688 514 l 688 453 l 221 453 l 221 61 l 753 61 l 753 0 q 690 -72 719 -25 q 660 -160 660 -119 q 724 -219 660 -219 q 747 -218 738 -219 l 747 -271 q 711 -272 738 -272 z "},"Ẽ":{"ha":831,"x_min":154,"x_max":751,"o":"m 154 0 l 154 956 l 753 956 l 753 894 l 221 894 l 221 514 l 688 514 l 688 453 l 221 453 l 221 61 l 753 61 l 753 0 l 154 0 m 694 1232 q 677 1123 694 1153 q 604 1093 660 1093 q 535 1101 568 1093 q 439 1131 501 1110 q 365 1153 396 1146 q 304 1161 333 1161 q 265 1144 274 1161 q 257 1078 257 1126 l 213 1078 q 230 1187 213 1157 q 303 1217 247 1217 q 378 1207 340 1217 q 468 1179 415 1197 q 504 1167 475 1176 q 558 1153 533 1158 q 603 1149 583 1149 q 641 1166 632 1149 q 650 1232 650 1183 l 694 1232 z "},"F":{"ha":779,"x_min":154,"x_max":725,"o":"m 154 0 l 154 956 l 725 956 l 725 894 l 221 894 l 221 494 l 674 494 l 674 432 l 221 432 l 221 0 l 154 0 z "},"G":{"ha":944,"x_min":121,"x_max":810,"o":"m 489 431 l 489 492 l 810 492 l 810 14 q 662 -4 744 3 q 515 -11 579 -11 q 260 23 340 -11 q 151 157 181 57 q 121 478 121 257 q 151 798 121 697 q 262 933 182 899 q 515 967 342 967 q 667 959 585 967 q 806 940 750 951 l 806 883 q 674 899 743 893 q 560 906 604 906 q 315 885 385 906 q 215 777 244 864 q 186 478 186 690 q 208 195 186 281 q 295 80 229 110 q 514 50 361 50 q 633 55 564 50 q 744 65 701 60 l 744 431 l 489 431 z "},"Ǵ":{"ha":943,"x_min":121,"x_max":808,"o":"m 489 431 l 489 492 l 810 492 l 810 14 q 662 -4 744 3 q 515 -11 579 -11 q 260 23 340 -11 q 151 157 181 57 q 121 478 121 257 q 151 798 121 697 q 262 933 182 899 q 515 967 342 967 q 667 959 585 967 q 806 940 750 951 l 806 883 q 674 899 743 893 q 560 906 604 906 q 315 885 385 906 q 215 777 244 864 q 186 478 186 690 q 208 195 186 281 q 295 80 229 110 q 514 50 361 50 q 633 55 564 50 q 744 65 701 60 l 744 431 l 489 431 m 440 1039 l 440 1046 l 586 1232 l 664 1232 l 664 1225 l 489 1039 l 440 1039 z "},"Ğ":{"ha":943,"x_min":121,"x_max":808,"o":"m 489 431 l 489 492 l 810 492 l 810 14 q 662 -4 744 3 q 515 -11 579 -11 q 260 23 340 -11 q 151 157 181 57 q 121 478 121 257 q 151 798 121 697 q 262 933 182 899 q 515 967 342 967 q 667 959 585 967 q 806 940 750 951 l 806 883 q 674 899 743 893 q 560 906 604 906 q 315 885 385 906 q 215 777 244 864 q 186 478 186 690 q 208 195 186 281 q 295 80 229 110 q 514 50 361 50 q 633 55 564 50 q 744 65 701 60 l 744 431 l 489 431 m 654 1232 q 644 1122 654 1161 q 596 1058 635 1082 q 472 1035 557 1035 q 349 1058 388 1035 q 301 1121 310 1082 q 292 1232 292 1160 l 342 1232 q 348 1143 342 1172 q 382 1098 354 1114 q 472 1082 410 1082 q 563 1098 535 1082 q 597 1143 590 1114 q 604 1232 604 1172 l 654 1232 z "},"Ǧ":{"ha":943,"x_min":121,"x_max":808,"o":"m 489 431 l 489 492 l 810 492 l 810 14 q 662 -4 744 3 q 515 -11 579 -11 q 260 23 340 -11 q 151 157 181 57 q 121 478 121 257 q 151 798 121 697 q 262 933 182 899 q 515 967 342 967 q 667 959 585 967 q 806 940 750 951 l 806 883 q 674 899 743 893 q 560 906 604 906 q 315 885 385 906 q 215 777 244 864 q 186 478 186 690 q 208 195 186 281 q 295 80 229 110 q 514 50 361 50 q 633 55 564 50 q 744 65 701 60 l 744 431 l 489 431 m 436 1039 l 289 1225 l 289 1232 l 336 1232 l 474 1086 l 613 1232 l 660 1232 l 660 1225 l 513 1039 l 436 1039 z "},"Ĝ":{"ha":943,"x_min":121,"x_max":808,"o":"m 489 431 l 489 492 l 810 492 l 810 14 q 662 -4 744 3 q 515 -11 579 -11 q 260 23 340 -11 q 151 157 181 57 q 121 478 121 257 q 151 798 121 697 q 262 933 182 899 q 515 967 342 967 q 667 959 585 967 q 806 940 750 951 l 806 883 q 674 899 743 893 q 560 906 604 906 q 315 885 385 906 q 215 777 244 864 q 186 478 186 690 q 208 195 186 281 q 295 80 229 110 q 514 50 361 50 q 633 55 564 50 q 744 65 701 60 l 744 431 l 489 431 m 289 1039 l 289 1046 l 436 1232 l 513 1232 l 660 1046 l 660 1039 l 613 1039 l 474 1185 l 336 1039 l 289 1039 z "},"Ģ":{"ha":943,"x_min":121,"x_max":808,"o":"m 489 431 l 489 492 l 810 492 l 810 14 q 662 -4 744 3 q 515 -11 579 -11 q 260 23 340 -11 q 151 157 181 57 q 121 478 121 257 q 151 798 121 697 q 262 933 182 899 q 515 967 342 967 q 667 959 585 967 q 806 940 750 951 l 806 883 q 674 899 743 893 q 560 906 604 906 q 315 885 385 906 q 215 777 244 864 q 186 478 186 690 q 208 195 186 281 q 295 80 229 110 q 514 50 361 50 q 633 55 564 50 q 744 65 701 60 l 744 431 l 489 431 m 414 -293 q 461 -286 446 -293 q 481 -262 476 -279 q 486 -211 486 -246 l 486 -187 l 453 -187 l 453 -86 l 533 -86 l 533 -192 q 524 -277 533 -249 q 489 -317 514 -306 q 414 -329 464 -329 l 414 -293 z "},"Ġ":{"ha":943,"x_min":121,"x_max":808,"o":"m 489 431 l 489 492 l 810 492 l 810 14 q 662 -4 744 3 q 515 -11 579 -11 q 260 23 340 -11 q 151 157 181 57 q 121 478 121 257 q 151 798 121 697 q 262 933 182 899 q 515 967 342 967 q 667 959 585 967 q 806 940 750 951 l 806 883 q 674 899 743 893 q 560 906 604 906 q 315 885 385 906 q 215 777 244 864 q 186 478 186 690 q 208 195 186 281 q 295 80 229 110 q 514 50 361 50 q 633 55 564 50 q 744 65 701 60 l 744 431 l 489 431 m 438 1124 l 438 1215 l 508 1215 l 508 1124 l 438 1124 z "},"H":{"ha":1022,"x_min":154,"x_max":867,"o":"m 800 0 l 800 451 l 221 451 l 221 0 l 154 0 l 154 956 l 221 956 l 221 514 l 800 514 l 800 956 l 867 956 l 867 0 l 800 0 z "},"Ħ":{"ha":1022,"x_min":154,"x_max":867,"o":"m 800 956 l 867 956 l 867 0 l 800 0 l 800 419 l 221 419 l 221 0 l 154 0 l 154 956 l 221 956 l 221 744 l 800 744 l 800 956 m 221 482 l 800 482 l 800 682 l 221 682 l 221 482 z "},"Ĥ":{"ha":1021,"x_min":154,"x_max":865,"o":"m 800 0 l 800 451 l 221 451 l 221 0 l 154 0 l 154 956 l 221 956 l 221 514 l 800 514 l 800 956 l 867 956 l 867 0 l 800 0 m 326 1039 l 326 1046 l 474 1232 l 550 1232 l 697 1046 l 697 1039 l 650 1039 l 511 1185 l 374 1039 l 326 1039 z "},"Ḥ":{"ha":1021,"x_min":154,"x_max":865,"o":"m 800 0 l 800 451 l 221 451 l 221 0 l 154 0 l 154 956 l 221 956 l 221 514 l 800 514 l 800 956 l 867 956 l 867 0 l 800 0 m 471 -187 l 471 -86 l 553 -86 l 553 -187 l 471 -187 z "},"I":{"ha":375,"x_min":154,"x_max":221,"o":"m 154 0 l 154 956 l 221 956 l 221 0 l 154 0 z "},"Ĳ":{"ha":833,"x_min":154,"x_max":693,"o":"m 154 0 l 154 956 l 221 956 l 221 0 l 154 0 m 428 61 q 571 78 535 64 q 617 144 607 93 q 626 344 626 194 l 626 956 l 693 956 l 693 372 q 679 110 693 179 q 616 22 665 42 q 428 0 567 3 l 428 61 z "},"Í":{"ha":375,"x_min":146,"x_max":369,"o":"m 154 0 l 154 956 l 221 956 l 221 0 l 154 0 m 146 1042 l 146 1049 l 292 1235 l 369 1235 l 369 1228 l 194 1042 l 146 1042 z "},"Ĭ":{"ha":375,"x_min":6,"x_max":368,"o":"m 154 0 l 154 956 l 221 956 l 221 0 l 154 0 m 368 1232 q 358 1122 368 1161 q 310 1058 349 1082 q 186 1035 271 1035 q 63 1058 101 1035 q 15 1121 24 1082 q 6 1232 6 1160 l 56 1232 q 62 1143 56 1172 q 96 1098 68 1114 q 186 1082 124 1082 q 276 1098 249 1082 q 311 1143 304 1114 q 318 1232 318 1172 l 368 1232 z "},"Ǐ":{"ha":375,"x_min":3,"x_max":374,"o":"m 154 0 l 154 956 l 221 956 l 221 0 l 154 0 m 150 1039 l 3 1225 l 3 1232 l 50 1232 l 188 1086 l 326 1232 l 374 1232 l 374 1225 l 226 1039 l 150 1039 z "},"Î":{"ha":375,"x_min":3,"x_max":374,"o":"m 154 0 l 154 956 l 221 956 l 221 0 l 154 0 m 3 1042 l 3 1049 l 150 1235 l 226 1235 l 374 1049 l 374 1042 l 326 1042 l 188 1188 l 50 1042 l 3 1042 z "},"Ȉ":{"ha":375,"x_min":-126,"x_max":360,"o":"m 154 0 l 154 956 l 221 956 l 221 0 l 154 0 m 93 1040 l 47 1040 l -126 1224 l -126 1231 l -53 1231 l 93 1047 l 93 1040 m 360 1040 l 314 1040 l 140 1224 l 140 1231 l 215 1231 l 360 1047 l 360 1040 z "},"Ï":{"ha":375,"x_min":25,"x_max":349,"o":"m 154 0 l 154 956 l 221 956 l 221 0 l 154 0 m 25 1069 l 25 1161 l 96 1161 l 96 1069 l 25 1069 m 278 1069 l 278 1161 l 349 1161 l 349 1069 l 278 1069 z "},"İ":{"ha":375,"x_min":151,"x_max":222,"o":"m 154 0 l 154 956 l 221 956 l 221 0 l 154 0 m 151 1124 l 151 1215 l 222 1215 l 222 1124 l 151 1124 z "},"Ị":{"ha":375,"x_min":147,"x_max":229,"o":"m 154 0 l 154 956 l 221 956 l 221 0 l 154 0 m 147 -187 l 147 -86 l 229 -86 l 229 -187 l 147 -187 z "},"Ì":{"ha":375,"x_min":10,"x_max":233,"o":"m 154 0 l 154 956 l 221 956 l 221 0 l 154 0 m 185 1042 l 10 1228 l 10 1235 l 88 1235 l 233 1049 l 233 1042 l 185 1042 z "},"Ỉ":{"ha":375,"x_min":22,"x_max":353,"o":"m 154 0 l 154 956 l 221 956 l 221 0 l 154 0 m 125 1026 q 137 1073 125 1060 q 183 1096 149 1086 l 219 1106 q 273 1122 257 1115 q 294 1140 289 1129 q 300 1169 300 1150 q 288 1210 300 1197 q 252 1225 276 1222 q 176 1228 228 1228 q 22 1221 115 1228 l 22 1263 q 176 1272 100 1272 q 281 1265 244 1272 q 335 1238 318 1258 q 353 1176 353 1218 q 338 1111 353 1132 q 271 1076 322 1090 l 232 1067 q 188 1053 200 1058 q 174 1040 176 1047 q 171 1013 171 1032 l 125 1013 l 125 1026 z "},"Ȋ":{"ha":375,"x_min":6,"x_max":368,"o":"m 154 0 l 154 956 l 221 956 l 221 0 l 154 0 m 6 1046 q 15 1156 6 1117 q 64 1219 25 1196 q 188 1243 103 1243 q 311 1219 272 1243 q 359 1157 350 1196 q 368 1046 368 1118 l 318 1046 q 312 1135 318 1106 q 278 1180 306 1164 q 188 1196 250 1196 q 97 1180 125 1196 q 63 1135 69 1164 q 56 1046 56 1106 l 6 1046 z "},"Ī":{"ha":375,"x_min":28,"x_max":346,"o":"m 154 0 l 154 956 l 221 956 l 221 0 l 154 0 m 28 1167 l 28 1231 l 346 1231 l 346 1167 l 28 1167 z "},"Į":{"ha":375,"x_min":74,"x_max":222,"o":"m 186 -272 q 101 -244 128 -272 q 74 -171 74 -217 q 97 -84 74 -131 q 160 0 121 -37 l 154 0 l 154 956 l 221 956 l 221 0 q 162 -73 190 -25 q 133 -158 133 -121 q 199 -219 133 -219 q 222 -218 211 -219 l 222 -271 q 186 -272 211 -272 z "},"Ĩ":{"ha":375,"x_min":-54,"x_max":428,"o":"m 154 0 l 154 956 l 221 956 l 221 0 l 154 0 m 428 1232 q 410 1123 428 1153 q 338 1093 393 1093 q 268 1101 301 1093 q 172 1131 235 1110 q 98 1153 129 1146 q 38 1161 67 1161 q -1 1144 7 1161 q -10 1078 -10 1126 l -54 1078 q -37 1187 -54 1157 q 36 1217 -19 1217 q 111 1207 74 1217 q 201 1179 149 1197 q 238 1167 208 1176 q 292 1153 267 1158 q 336 1149 317 1149 q 374 1166 365 1149 q 383 1232 383 1183 l 428 1232 z "},"J":{"ha":460,"x_min":53,"x_max":318,"o":"m 53 61 q 196 78 160 64 q 242 144 232 93 q 251 344 251 194 l 251 956 l 318 956 l 318 372 q 304 110 318 179 q 241 22 290 42 q 53 0 192 3 l 53 61 z "},"Ĵ":{"ha":460,"x_min":53,"x_max":471,"o":"m 53 61 q 196 78 160 64 q 242 144 232 93 q 251 344 251 194 l 251 956 l 318 956 l 318 372 q 304 110 318 179 q 241 22 290 42 q 53 0 192 3 l 53 61 m 100 1039 l 100 1046 l 247 1232 l 324 1232 l 471 1046 l 471 1039 l 424 1039 l 285 1185 l 147 1039 l 100 1039 z "},"K":{"ha":924,"x_min":154,"x_max":874,"o":"m 794 0 l 444 454 l 221 454 l 221 0 l 154 0 l 154 956 l 221 956 l 221 515 l 444 515 l 793 956 l 869 956 l 499 486 l 874 0 l 794 0 z "},"Ķ":{"ha":922,"x_min":154,"x_max":872,"o":"m 794 0 l 444 454 l 221 454 l 221 0 l 154 0 l 154 956 l 221 956 l 221 515 l 444 515 l 793 956 l 869 956 l 499 486 l 874 0 l 794 0 m 403 -293 q 450 -286 435 -293 q 470 -262 465 -279 q 475 -211 475 -246 l 475 -187 l 442 -187 l 442 -86 l 522 -86 l 522 -192 q 513 -277 522 -249 q 478 -317 503 -306 q 403 -329 453 -329 l 403 -293 z "},"L":{"ha":744,"x_min":154,"x_max":697,"o":"m 154 0 l 154 956 l 221 956 l 221 63 l 697 63 l 697 0 l 154 0 z "},"Ǉ":{"ha":1203,"x_min":154,"x_max":1061,"o":"m 154 0 l 154 956 l 221 956 l 221 63 l 697 63 l 697 0 l 154 0 m 796 61 q 939 78 903 64 q 985 144 975 93 q 994 344 994 194 l 994 956 l 1061 956 l 1061 372 q 1047 110 1061 179 q 984 22 1033 42 q 796 0 935 3 l 796 61 z "},"Ĺ":{"ha":743,"x_min":154,"x_max":697,"o":"m 154 0 l 154 956 l 221 956 l 221 63 l 697 63 l 697 0 l 154 0 m 154 1039 l 154 1046 l 300 1232 l 378 1232 l 378 1225 l 203 1039 l 154 1039 z "},"Ľ":{"ha":743,"x_min":154,"x_max":697,"o":"m 154 0 l 154 956 l 221 956 l 221 63 l 697 63 l 697 0 l 154 0 m 447 626 l 465 836 l 465 956 l 532 956 l 532 836 l 490 626 l 447 626 z "},"Ļ":{"ha":743,"x_min":154,"x_max":697,"o":"m 154 0 l 154 956 l 221 956 l 221 63 l 697 63 l 697 0 l 154 0 m 340 -293 q 388 -286 372 -293 q 408 -262 403 -279 q 413 -211 413 -246 l 413 -187 l 379 -187 l 379 -86 l 460 -86 l 460 -192 q 450 -277 460 -249 q 415 -317 440 -306 q 340 -329 390 -329 l 340 -293 z "},"Ŀ":{"ha":744,"x_min":154,"x_max":697,"o":"m 154 0 l 154 956 l 221 956 l 221 63 l 697 63 l 697 0 l 154 0 m 524 451 l 524 553 l 606 553 l 606 451 l 524 451 z "},"ǈ":{"ha":1075,"x_min":154,"x_max":946,"o":"m 154 0 l 154 956 l 221 956 l 221 63 l 697 63 l 697 0 l 154 0 m 872 938 l 872 1032 l 946 1032 l 946 938 l 872 938 m 738 -224 q 831 -217 801 -224 q 869 -194 860 -210 q 878 -146 878 -179 l 878 708 l 942 708 l 942 -129 q 921 -229 942 -197 q 860 -269 900 -261 q 738 -278 819 -278 l 738 -224 z "},"Ł":{"ha":744,"x_min":60,"x_max":697,"o":"m 221 63 l 697 63 l 697 0 l 154 0 l 154 424 l 60 389 l 60 449 l 154 483 l 154 954 l 221 954 l 221 507 l 508 613 l 508 554 l 221 449 l 221 63 z "},"M":{"ha":1267,"x_min":154,"x_max":1111,"o":"m 1046 0 l 1046 833 l 1040 833 l 660 0 l 604 0 l 224 833 l 218 833 l 218 0 l 154 0 l 154 956 l 242 956 l 629 106 l 636 106 l 1026 956 l 1111 956 l 1111 0 l 1046 0 z "},"N":{"ha":1022,"x_min":154,"x_max":867,"o":"m 803 0 l 225 833 l 219 833 l 219 0 l 154 0 l 154 956 l 221 956 l 797 125 l 803 125 l 803 956 l 867 956 l 867 0 l 803 0 z "},"Ǌ":{"ha":1481,"x_min":154,"x_max":1339,"o":"m 803 0 l 225 833 l 219 833 l 219 0 l 154 0 l 154 956 l 221 956 l 797 125 l 803 125 l 803 956 l 867 956 l 867 0 l 803 0 m 1074 61 q 1217 78 1181 64 q 1263 144 1253 93 q 1272 344 1272 194 l 1272 956 l 1339 956 l 1339 372 q 1325 110 1339 179 q 1262 22 1311 42 q 1074 0 1213 3 l 1074 61 z "},"Ń":{"ha":1021,"x_min":154,"x_max":865,"o":"m 803 0 l 225 833 l 219 833 l 219 0 l 154 0 l 154 956 l 221 956 l 797 125 l 803 125 l 803 956 l 867 956 l 867 0 l 803 0 m 478 1039 l 478 1046 l 624 1232 l 701 1232 l 701 1225 l 526 1039 l 478 1039 z "},"Ň":{"ha":1021,"x_min":154,"x_max":865,"o":"m 803 0 l 225 833 l 219 833 l 219 0 l 154 0 l 154 956 l 221 956 l 797 125 l 803 125 l 803 956 l 867 956 l 867 0 l 803 0 m 474 1039 l 326 1225 l 326 1232 l 374 1232 l 511 1086 l 650 1232 l 697 1232 l 697 1225 l 550 1039 l 474 1039 z "},"Ņ":{"ha":1021,"x_min":154,"x_max":865,"o":"m 803 0 l 225 833 l 219 833 l 219 0 l 154 0 l 154 956 l 221 956 l 797 125 l 803 125 l 803 956 l 867 956 l 867 0 l 803 0 m 451 -293 q 499 -286 483 -293 q 519 -262 514 -279 q 524 -211 524 -246 l 524 -187 l 490 -187 l 490 -86 l 571 -86 l 571 -192 q 561 -277 571 -249 q 526 -317 551 -306 q 451 -329 501 -329 l 451 -293 z "},"Ṅ":{"ha":1021,"x_min":154,"x_max":865,"o":"m 803 0 l 225 833 l 219 833 l 219 0 l 154 0 l 154 956 l 221 956 l 797 125 l 803 125 l 803 956 l 867 956 l 867 0 l 803 0 m 475 1124 l 475 1215 l 546 1215 l 546 1124 l 475 1124 z "},"Ŋ":{"ha":1022,"x_min":154,"x_max":867,"o":"m 867 956 l 867 -129 q 847 -229 867 -197 q 785 -269 826 -261 q 664 -278 744 -278 l 664 -224 q 756 -217 728 -224 q 794 -194 785 -210 q 803 -146 803 -179 l 803 0 l 225 833 l 219 833 l 219 0 l 154 0 l 154 956 l 221 956 l 797 125 l 803 125 l 803 956 l 867 956 z "},"Ɲ":{"ha":1022,"x_min":15,"x_max":867,"o":"m 867 956 l 867 0 l 803 0 l 225 833 l 219 833 l 219 -129 q 199 -229 219 -197 q 138 -269 178 -261 q 15 -278 97 -278 l 15 -224 q 108 -217 79 -224 q 146 -194 138 -210 q 154 -146 154 -179 l 154 956 l 221 956 l 797 125 l 803 125 l 803 956 l 867 956 z "},"ǋ":{"ha":1353,"x_min":154,"x_max":1224,"o":"m 803 0 l 225 833 l 219 833 l 219 0 l 154 0 l 154 956 l 221 956 l 797 125 l 803 125 l 803 956 l 867 956 l 867 0 l 803 0 m 1150 938 l 1150 1032 l 1224 1032 l 1224 938 l 1150 938 m 1015 -224 q 1108 -217 1079 -224 q 1147 -194 1138 -210 q 1156 -146 1156 -179 l 1156 708 l 1219 708 l 1219 -129 q 1199 -229 1219 -197 q 1138 -269 1178 -261 q 1015 -278 1097 -278 l 1015 -224 z "},"Ñ":{"ha":1022,"x_min":154,"x_max":865,"o":"m 803 0 l 225 833 l 219 833 l 219 0 l 154 0 l 154 956 l 221 956 l 797 125 l 803 125 l 803 956 l 867 956 l 867 0 l 803 0 m 757 1196 q 740 1087 757 1117 q 667 1057 722 1057 q 597 1065 631 1057 q 501 1094 564 1074 q 427 1117 458 1110 q 367 1125 396 1125 q 328 1108 338 1125 q 319 1042 319 1090 l 275 1042 q 292 1151 275 1121 q 365 1181 310 1181 q 440 1171 403 1181 q 531 1143 478 1161 q 567 1131 538 1140 q 621 1117 596 1122 q 665 1113 646 1113 q 704 1130 696 1113 q 713 1196 713 1147 l 757 1196 z "},"O":{"ha":1004,"x_min":121,"x_max":883,"o":"m 501 -11 q 240 22 315 -11 q 142 149 164 56 q 121 478 121 243 q 142 806 121 713 q 240 933 164 900 q 501 967 315 967 q 765 933 689 967 q 862 806 840 900 q 883 478 883 713 q 862 149 883 243 q 765 22 840 56 q 501 -11 689 -11 m 501 50 q 721 71 663 50 q 798 174 779 92 q 817 478 817 256 q 798 782 817 700 q 721 885 779 864 q 501 906 663 906 q 282 885 340 906 q 205 781 224 864 q 186 478 186 699 q 205 174 186 257 q 282 71 224 92 q 501 50 340 50 z "},"Ó":{"ha":1004,"x_min":121,"x_max":882,"o":"m 501 -11 q 240 22 315 -11 q 142 149 164 56 q 121 478 121 243 q 142 806 121 713 q 240 933 164 900 q 501 967 315 967 q 765 933 689 967 q 862 806 840 900 q 883 478 883 713 q 862 149 883 243 q 765 22 840 56 q 501 -11 689 -11 m 501 50 q 721 71 663 50 q 798 174 779 92 q 817 478 817 256 q 798 782 817 700 q 721 885 779 864 q 501 906 663 906 q 282 885 340 906 q 205 781 224 864 q 186 478 186 699 q 205 174 186 257 q 282 71 224 92 q 501 50 340 50 m 464 1042 l 464 1049 l 610 1235 l 688 1235 l 688 1228 l 513 1042 l 464 1042 z "},"Ŏ":{"ha":1003,"x_min":121,"x_max":882,"o":"m 501 -11 q 240 22 315 -11 q 142 149 164 56 q 121 478 121 243 q 142 806 121 713 q 240 933 164 900 q 501 967 315 967 q 765 933 689 967 q 862 806 840 900 q 883 478 883 713 q 862 149 883 243 q 765 22 840 56 q 501 -11 689 -11 m 501 50 q 721 71 663 50 q 798 174 779 92 q 817 478 817 256 q 798 782 817 700 q 721 885 779 864 q 501 906 663 906 q 282 885 340 906 q 205 781 224 864 q 186 478 186 699 q 205 174 186 257 q 282 71 224 92 q 501 50 340 50 m 683 1232 q 674 1122 683 1161 q 625 1058 664 1082 q 501 1035 586 1035 q 378 1058 417 1035 q 330 1121 339 1082 q 321 1232 321 1160 l 371 1232 q 377 1143 371 1172 q 411 1098 383 1114 q 501 1082 439 1082 q 592 1098 564 1082 q 626 1143 619 1114 q 633 1232 633 1172 l 683 1232 z "},"Ǒ":{"ha":1003,"x_min":121,"x_max":882,"o":"m 501 -11 q 240 22 315 -11 q 142 149 164 56 q 121 478 121 243 q 142 806 121 713 q 240 933 164 900 q 501 967 315 967 q 765 933 689 967 q 862 806 840 900 q 883 478 883 713 q 862 149 883 243 q 765 22 840 56 q 501 -11 689 -11 m 501 50 q 721 71 663 50 q 798 174 779 92 q 817 478 817 256 q 798 782 817 700 q 721 885 779 864 q 501 906 663 906 q 282 885 340 906 q 205 781 224 864 q 186 478 186 699 q 205 174 186 257 q 282 71 224 92 q 501 50 340 50 m 465 1039 l 318 1225 l 318 1232 l 365 1232 l 503 1086 l 642 1232 l 689 1232 l 689 1225 l 542 1039 l 465 1039 z "},"Ô":{"ha":1004,"x_min":121,"x_max":882,"o":"m 501 -11 q 240 22 315 -11 q 142 149 164 56 q 121 478 121 243 q 142 806 121 713 q 240 933 164 900 q 501 967 315 967 q 765 933 689 967 q 862 806 840 900 q 883 478 883 713 q 862 149 883 243 q 765 22 840 56 q 501 -11 689 -11 m 501 50 q 721 71 663 50 q 798 174 779 92 q 817 478 817 256 q 798 782 817 700 q 721 885 779 864 q 501 906 663 906 q 282 885 340 906 q 205 781 224 864 q 186 478 186 699 q 205 174 186 257 q 282 71 224 92 q 501 50 340 50 m 317 1042 l 317 1049 l 464 1235 l 540 1235 l 688 1049 l 688 1042 l 640 1042 l 501 1188 l 364 1042 l 317 1042 z "},"Ố":{"ha":1003,"x_min":121,"x_max":882,"o":"m 597 1236 l 597 1243 l 743 1429 l 821 1429 l 821 1422 l 646 1236 l 597 1236 m 313 1038 l 313 1044 l 460 1231 l 535 1231 l 682 1044 l 682 1038 l 635 1038 l 497 1183 l 360 1038 l 313 1038 m 501 -11 q 240 22 315 -11 q 142 149 164 56 q 121 478 121 243 q 142 805 121 711 q 240 932 164 899 q 501 965 315 965 q 763 932 688 965 q 860 805 839 899 q 882 478 882 711 q 860 149 882 243 q 763 22 839 56 q 501 -11 688 -11 m 501 50 q 720 71 663 50 q 797 174 778 92 q 815 478 815 256 q 797 781 815 699 q 720 883 778 863 q 501 904 663 904 q 282 883 340 904 q 205 781 224 863 q 186 478 186 699 q 205 174 186 257 q 282 71 224 92 q 501 50 340 50 z "},"Ộ":{"ha":1003,"x_min":121,"x_max":882,"o":"m 501 -11 q 240 22 315 -11 q 142 149 164 56 q 121 478 121 243 q 142 806 121 713 q 240 933 164 900 q 501 967 315 967 q 765 933 689 967 q 862 806 840 900 q 883 478 883 713 q 862 149 883 243 q 765 22 840 56 q 501 -11 689 -11 m 501 50 q 721 71 663 50 q 798 174 779 92 q 817 478 817 256 q 798 782 817 700 q 721 885 779 864 q 501 906 663 906 q 282 885 340 906 q 205 781 224 864 q 186 478 186 699 q 205 174 186 257 q 282 71 224 92 q 501 50 340 50 m 463 -187 l 463 -86 l 544 -86 l 544 -187 l 463 -187 m 318 1039 l 318 1046 l 465 1232 l 542 1232 l 689 1046 l 689 1039 l 642 1039 l 503 1185 l 365 1039 l 318 1039 z "},"Ồ":{"ha":1003,"x_min":121,"x_max":882,"o":"m 644 1236 l 469 1422 l 469 1429 l 547 1429 l 693 1243 l 693 1236 l 644 1236 m 310 1038 l 310 1044 l 457 1231 l 532 1231 l 679 1044 l 679 1038 l 632 1038 l 494 1183 l 357 1038 l 310 1038 m 501 -11 q 240 22 315 -11 q 142 149 164 56 q 121 478 121 243 q 142 805 121 711 q 240 932 164 899 q 501 965 315 965 q 763 932 688 965 q 860 805 839 899 q 882 478 882 711 q 860 149 882 243 q 763 22 839 56 q 501 -11 688 -11 m 501 50 q 720 71 663 50 q 797 174 778 92 q 815 478 815 256 q 797 781 815 699 q 720 883 778 863 q 501 904 663 904 q 282 883 340 904 q 205 781 224 863 q 186 478 186 699 q 205 174 186 257 q 282 71 224 92 q 501 50 340 50 z "},"Ổ":{"ha":1003,"x_min":121,"x_max":882,"o":"m 565 1250 q 577 1295 565 1282 q 624 1319 589 1308 l 660 1328 q 713 1345 697 1338 q 735 1363 729 1353 q 740 1393 740 1374 q 728 1431 740 1419 q 693 1446 717 1443 q 618 1449 669 1449 q 463 1443 536 1449 l 463 1485 q 617 1493 529 1493 q 721 1487 685 1493 q 774 1460 757 1481 q 792 1399 792 1440 q 777 1334 792 1354 q 711 1300 763 1314 l 672 1289 q 628 1275 640 1281 q 614 1262 617 1269 q 611 1235 611 1254 l 565 1235 l 565 1250 m 318 1038 l 318 1044 l 465 1231 l 540 1231 l 688 1044 l 688 1038 l 640 1038 l 503 1183 l 365 1038 l 318 1038 m 501 -11 q 240 22 315 -11 q 142 149 164 56 q 121 478 121 243 q 142 805 121 711 q 240 932 164 899 q 501 965 315 965 q 763 932 688 965 q 860 805 839 899 q 882 478 882 711 q 860 149 882 243 q 763 22 839 56 q 501 -11 688 -11 m 501 50 q 720 71 663 50 q 797 174 778 92 q 815 478 815 256 q 797 781 815 699 q 720 883 778 863 q 501 904 663 904 q 282 883 340 904 q 205 781 224 863 q 186 478 186 699 q 205 174 186 257 q 282 71 224 92 q 501 50 340 50 z "},"Ỗ":{"ha":1003,"x_min":121,"x_max":882,"o":"m 742 1471 q 724 1362 742 1392 q 651 1332 707 1332 q 585 1340 618 1332 q 524 1357 553 1347 q 488 1369 496 1367 q 413 1392 444 1385 q 353 1400 382 1400 q 315 1383 324 1400 q 306 1317 306 1365 l 261 1317 q 278 1426 261 1396 q 351 1456 296 1456 q 426 1446 389 1456 q 517 1418 464 1436 q 553 1406 525 1415 q 606 1392 582 1397 q 650 1388 631 1388 q 689 1405 681 1388 q 697 1471 697 1422 l 742 1471 m 315 1038 l 315 1044 l 463 1231 l 538 1231 l 685 1044 l 685 1038 l 638 1038 l 500 1183 l 363 1038 l 315 1038 m 501 -11 q 240 22 315 -11 q 142 149 164 56 q 121 478 121 243 q 142 805 121 711 q 240 932 164 899 q 501 965 315 965 q 763 932 688 965 q 860 805 839 899 q 882 478 882 711 q 860 149 882 243 q 763 22 839 56 q 501 -11 688 -11 m 501 50 q 720 71 663 50 q 797 174 778 92 q 815 478 815 256 q 797 781 815 699 q 720 883 778 863 q 501 904 663 904 q 282 883 340 904 q 205 781 224 863 q 186 478 186 699 q 205 174 186 257 q 282 71 224 92 q 501 50 340 50 z "},"Ȍ":{"ha":1003,"x_min":121,"x_max":882,"o":"m 501 -11 q 240 22 315 -11 q 142 149 164 56 q 121 478 121 243 q 142 806 121 713 q 240 933 164 900 q 501 967 315 967 q 765 933 689 967 q 862 806 840 900 q 883 478 883 713 q 862 149 883 243 q 765 22 840 56 q 501 -11 689 -11 m 501 50 q 721 71 663 50 q 798 174 779 92 q 817 478 817 256 q 798 782 817 700 q 721 885 779 864 q 501 906 663 906 q 282 885 340 906 q 205 781 224 864 q 186 478 186 699 q 205 174 186 257 q 282 71 224 92 q 501 50 340 50 m 408 1040 l 363 1040 l 189 1224 l 189 1231 l 263 1231 l 408 1047 l 408 1040 m 675 1040 l 629 1040 l 456 1224 l 456 1231 l 531 1231 l 675 1047 l 675 1040 z "},"Ö":{"ha":1004,"x_min":121,"x_max":882,"o":"m 501 -11 q 240 22 315 -11 q 142 149 164 56 q 121 478 121 243 q 142 806 121 713 q 240 933 164 900 q 501 967 315 967 q 765 933 689 967 q 862 806 840 900 q 883 478 883 713 q 862 149 883 243 q 765 22 840 56 q 501 -11 689 -11 m 501 50 q 721 71 663 50 q 798 174 779 92 q 817 478 817 256 q 798 782 817 700 q 721 885 779 864 q 501 906 663 906 q 282 885 340 906 q 205 781 224 864 q 186 478 186 699 q 205 174 186 257 q 282 71 224 92 q 501 50 340 50 m 340 1071 l 340 1163 l 411 1163 l 411 1071 l 340 1071 m 593 1071 l 593 1163 l 664 1163 l 664 1071 l 593 1071 z "},"Ọ":{"ha":1003,"x_min":121,"x_max":882,"o":"m 501 -11 q 240 22 315 -11 q 142 149 164 56 q 121 478 121 243 q 142 806 121 713 q 240 933 164 900 q 501 967 315 967 q 765 933 689 967 q 862 806 840 900 q 883 478 883 713 q 862 149 883 243 q 765 22 840 56 q 501 -11 689 -11 m 501 50 q 721 71 663 50 q 798 174 779 92 q 817 478 817 256 q 798 782 817 700 q 721 885 779 864 q 501 906 663 906 q 282 885 340 906 q 205 781 224 864 q 186 478 186 699 q 205 174 186 257 q 282 71 224 92 q 501 50 340 50 m 463 -187 l 463 -86 l 544 -86 l 544 -187 l 463 -187 z "},"Ò":{"ha":1004,"x_min":121,"x_max":882,"o":"m 501 -11 q 240 22 315 -11 q 142 149 164 56 q 121 478 121 243 q 142 806 121 713 q 240 933 164 900 q 501 967 315 967 q 765 933 689 967 q 862 806 840 900 q 883 478 883 713 q 862 149 883 243 q 765 22 840 56 q 501 -11 689 -11 m 501 50 q 721 71 663 50 q 798 174 779 92 q 817 478 817 256 q 798 782 817 700 q 721 885 779 864 q 501 906 663 906 q 282 885 340 906 q 205 781 224 864 q 186 478 186 699 q 205 174 186 257 q 282 71 224 92 q 501 50 340 50 m 483 1042 l 308 1228 l 308 1235 l 386 1235 l 532 1049 l 532 1042 l 483 1042 z "},"Ỏ":{"ha":1003,"x_min":121,"x_max":882,"o":"m 501 -11 q 240 22 315 -11 q 142 149 164 56 q 121 478 121 243 q 142 806 121 713 q 240 933 164 900 q 501 967 315 967 q 765 933 689 967 q 862 806 840 900 q 883 478 883 713 q 862 149 883 243 q 765 22 840 56 q 501 -11 689 -11 m 501 50 q 721 71 663 50 q 798 174 779 92 q 817 478 817 256 q 798 782 817 700 q 721 885 779 864 q 501 906 663 906 q 282 885 340 906 q 205 781 224 864 q 186 478 186 699 q 205 174 186 257 q 282 71 224 92 q 501 50 340 50 m 440 1026 q 452 1073 440 1060 q 499 1096 464 1086 l 535 1106 q 588 1122 572 1115 q 610 1140 604 1129 q 615 1169 615 1150 q 603 1210 615 1197 q 567 1225 592 1222 q 492 1228 543 1228 q 338 1221 431 1228 l 338 1263 q 492 1272 415 1272 q 597 1265 560 1272 q 651 1238 633 1258 q 668 1176 668 1218 q 653 1111 668 1132 q 586 1076 638 1090 l 547 1067 q 503 1053 515 1058 q 489 1040 492 1047 q 486 1013 486 1032 l 440 1013 l 440 1026 z "},"Ơ":{"ha":1003,"x_min":121,"x_max":889,"o":"m 889 1051 q 870 948 889 976 q 794 914 851 919 q 852 832 833 885 q 876 700 871 779 q 882 478 882 621 q 860 149 882 243 q 763 22 839 56 q 501 -11 688 -11 q 240 22 315 -11 q 142 149 164 56 q 121 478 121 243 q 142 805 121 711 q 240 932 164 899 q 501 965 315 965 q 688 954 622 965 l 763 954 q 822 972 808 954 q 835 1042 835 989 l 835 1089 l 889 1089 l 889 1051 m 815 478 q 797 781 815 699 q 720 883 778 863 q 501 904 663 904 q 282 883 340 904 q 205 781 224 863 q 186 478 186 699 q 205 174 186 257 q 282 71 224 92 q 501 50 340 50 q 720 71 663 50 q 797 174 778 92 q 815 478 815 256 z "},"Ớ":{"ha":1001,"x_min":121,"x_max":888,"o":"m 889 1051 q 870 948 889 976 q 794 914 851 919 q 852 832 833 885 q 876 700 871 779 q 882 478 882 621 q 860 149 882 243 q 763 22 839 56 q 501 -11 688 -11 q 240 22 315 -11 q 142 149 164 56 q 121 478 121 243 q 142 805 121 711 q 240 932 164 899 q 501 965 315 965 q 688 954 622 965 l 763 954 q 822 972 808 954 q 835 1042 835 989 l 835 1089 l 889 1089 l 889 1051 m 815 478 q 797 781 815 699 q 720 883 778 863 q 501 904 663 904 q 282 883 340 904 q 205 781 224 863 q 186 478 186 699 q 205 174 186 257 q 282 71 224 92 q 501 50 340 50 q 720 71 663 50 q 797 174 778 92 q 815 478 815 256 m 468 1038 l 468 1044 l 614 1231 l 692 1231 l 692 1224 l 517 1038 l 468 1038 z "},"Ợ":{"ha":1001,"x_min":121,"x_max":888,"o":"m 889 1051 q 870 948 889 976 q 794 914 851 919 q 852 832 833 885 q 876 700 871 779 q 882 478 882 621 q 860 149 882 243 q 763 22 839 56 q 501 -11 688 -11 q 240 22 315 -11 q 142 149 164 56 q 121 478 121 243 q 142 805 121 711 q 240 932 164 899 q 501 965 315 965 q 688 954 622 965 l 763 954 q 822 972 808 954 q 835 1042 835 989 l 835 1089 l 889 1089 l 889 1051 m 815 478 q 797 781 815 699 q 720 883 778 863 q 501 904 663 904 q 282 883 340 904 q 205 781 224 863 q 186 478 186 699 q 205 174 186 257 q 282 71 224 92 q 501 50 340 50 q 720 71 663 50 q 797 174 778 92 q 815 478 815 256 m 461 -187 l 461 -86 l 543 -86 l 543 -187 l 461 -187 z "},"Ờ":{"ha":1001,"x_min":121,"x_max":888,"o":"m 889 1051 q 870 948 889 976 q 794 914 851 919 q 852 832 833 885 q 876 700 871 779 q 882 478 882 621 q 860 149 882 243 q 763 22 839 56 q 501 -11 688 -11 q 240 22 315 -11 q 142 149 164 56 q 121 478 121 243 q 142 805 121 711 q 240 932 164 899 q 501 965 315 965 q 688 954 622 965 l 763 954 q 822 972 808 954 q 835 1042 835 989 l 835 1089 l 889 1089 l 889 1051 m 815 478 q 797 781 815 699 q 720 883 778 863 q 501 904 663 904 q 282 883 340 904 q 205 781 224 863 q 186 478 186 699 q 205 174 186 257 q 282 71 224 92 q 501 50 340 50 q 720 71 663 50 q 797 174 778 92 q 815 478 815 256 m 493 1038 l 318 1224 l 318 1231 l 396 1231 l 542 1044 l 542 1038 l 493 1038 z "},"Ở":{"ha":1001,"x_min":121,"x_max":888,"o":"m 889 1051 q 870 948 889 976 q 794 914 851 919 q 852 832 833 885 q 876 700 871 779 q 882 478 882 621 q 860 149 882 243 q 763 22 839 56 q 501 -11 688 -11 q 240 22 315 -11 q 142 149 164 56 q 121 478 121 243 q 142 805 121 711 q 240 932 164 899 q 501 965 315 965 q 688 954 622 965 l 763 954 q 822 972 808 954 q 835 1042 835 989 l 835 1089 l 889 1089 l 889 1051 m 815 478 q 797 781 815 699 q 720 883 778 863 q 501 904 663 904 q 282 883 340 904 q 205 781 224 863 q 186 478 186 699 q 205 174 186 257 q 282 71 224 92 q 501 50 340 50 q 720 71 663 50 q 797 174 778 92 q 815 478 815 256 m 439 1025 q 451 1072 439 1058 q 497 1094 463 1085 l 533 1104 q 587 1121 571 1114 q 608 1138 603 1128 q 614 1168 614 1149 q 602 1208 614 1196 q 566 1224 590 1221 q 490 1226 542 1226 q 336 1219 429 1226 l 336 1261 q 490 1271 414 1271 q 595 1264 558 1271 q 649 1237 632 1257 q 667 1175 667 1217 q 651 1110 667 1131 q 585 1075 636 1089 l 546 1065 q 502 1051 514 1057 q 488 1038 490 1046 q 485 1011 485 1031 l 439 1011 l 439 1025 z "},"Ỡ":{"ha":1001,"x_min":121,"x_max":888,"o":"m 889 1051 q 870 948 889 976 q 794 914 851 919 q 852 832 833 885 q 876 700 871 779 q 882 478 882 621 q 860 149 882 243 q 763 22 839 56 q 501 -11 688 -11 q 240 22 315 -11 q 142 149 164 56 q 121 478 121 243 q 142 805 121 711 q 240 932 164 899 q 501 965 315 965 q 688 954 622 965 l 763 954 q 822 972 808 954 q 835 1042 835 989 l 835 1089 l 889 1089 l 889 1051 m 815 478 q 797 781 815 699 q 720 883 778 863 q 501 904 663 904 q 282 883 340 904 q 205 781 224 863 q 186 478 186 699 q 205 174 186 257 q 282 71 224 92 q 501 50 340 50 q 720 71 663 50 q 797 174 778 92 q 815 478 815 256 m 742 1231 q 724 1122 742 1151 q 651 1092 707 1092 q 582 1100 615 1092 q 486 1129 549 1108 q 412 1152 443 1144 q 351 1160 381 1160 q 313 1142 321 1160 q 304 1076 304 1125 l 260 1076 q 277 1185 260 1156 q 350 1215 294 1215 q 425 1206 388 1215 q 515 1178 463 1196 q 551 1166 522 1175 q 606 1152 581 1157 q 650 1147 631 1147 q 688 1165 679 1147 q 697 1231 697 1182 l 742 1231 z "},"Ő":{"ha":1003,"x_min":121,"x_max":882,"o":"m 501 -11 q 240 22 315 -11 q 142 149 164 56 q 121 478 121 243 q 142 806 121 713 q 240 933 164 900 q 501 967 315 967 q 765 933 689 967 q 862 806 840 900 q 883 478 883 713 q 862 149 883 243 q 765 22 840 56 q 501 -11 689 -11 m 501 50 q 721 71 663 50 q 798 174 779 92 q 817 478 817 256 q 798 782 817 700 q 721 885 779 864 q 501 906 663 906 q 282 885 340 906 q 205 781 224 864 q 186 478 186 699 q 205 174 186 257 q 282 71 224 92 q 501 50 340 50 m 344 1040 l 344 1047 l 489 1231 l 564 1231 l 564 1224 l 390 1040 l 344 1040 m 611 1040 l 611 1047 l 757 1231 l 831 1231 l 831 1224 l 657 1040 l 611 1040 z "},"Ȏ":{"ha":1003,"x_min":121,"x_max":882,"o":"m 501 -11 q 240 22 315 -11 q 142 149 164 56 q 121 478 121 243 q 142 806 121 713 q 240 933 164 900 q 501 967 315 967 q 765 933 689 967 q 862 806 840 900 q 883 478 883 713 q 862 149 883 243 q 765 22 840 56 q 501 -11 689 -11 m 501 50 q 721 71 663 50 q 798 174 779 92 q 817 478 817 256 q 798 782 817 700 q 721 885 779 864 q 501 906 663 906 q 282 885 340 906 q 205 781 224 864 q 186 478 186 699 q 205 174 186 257 q 282 71 224 92 q 501 50 340 50 m 321 1046 q 331 1156 321 1117 q 379 1219 340 1196 q 503 1243 418 1243 q 626 1219 588 1243 q 674 1157 665 1196 q 683 1046 683 1118 l 633 1046 q 627 1135 633 1106 q 593 1180 621 1164 q 503 1196 565 1196 q 413 1180 440 1196 q 378 1135 385 1164 q 371 1046 371 1106 l 321 1046 z "},"Ō":{"ha":1003,"x_min":121,"x_max":882,"o":"m 501 -11 q 240 22 315 -11 q 142 149 164 56 q 121 478 121 243 q 142 806 121 713 q 240 933 164 900 q 501 967 315 967 q 765 933 689 967 q 862 806 840 900 q 883 478 883 713 q 862 149 883 243 q 765 22 840 56 q 501 -11 689 -11 m 501 50 q 721 71 663 50 q 798 174 779 92 q 817 478 817 256 q 798 782 817 700 q 721 885 779 864 q 501 906 663 906 q 282 885 340 906 q 205 781 224 864 q 186 478 186 699 q 205 174 186 257 q 282 71 224 92 q 501 50 340 50 m 343 1167 l 343 1231 l 661 1231 l 661 1167 l 343 1167 z "},"Ǫ":{"ha":1004,"x_min":121,"x_max":883,"o":"m 700 -272 q 615 -245 642 -272 q 588 -175 588 -218 q 613 -87 588 -132 q 683 0 639 -42 q 501 -11 621 -11 q 240 22 315 -11 q 142 149 164 56 q 121 478 121 243 q 142 806 121 713 q 240 933 164 900 q 501 967 315 967 q 765 933 689 967 q 862 806 840 900 q 883 478 883 713 q 877 244 883 326 q 849 108 871 161 q 779 29 826 56 q 686 -57 725 -1 q 647 -161 647 -112 q 663 -203 647 -186 q 713 -219 679 -219 q 736 -218 725 -219 l 736 -271 q 700 -272 721 -272 m 501 50 q 721 71 663 50 q 798 174 779 92 q 817 478 817 256 q 798 782 817 700 q 721 885 779 864 q 501 906 663 906 q 282 885 340 906 q 205 781 224 864 q 186 478 186 699 q 205 174 186 257 q 282 71 224 92 q 501 50 340 50 z "},"Ø":{"ha":1004,"x_min":121,"x_max":883,"o":"m 806 907 q 857 824 840 876 q 878 692 874 771 q 883 478 883 614 q 862 149 883 243 q 765 22 840 56 q 501 -11 689 -11 q 347 -4 408 -11 q 246 19 286 3 l 185 -76 l 121 -76 l 199 49 q 147 131 164 78 q 126 262 131 183 q 121 478 121 340 q 142 806 121 713 q 240 933 164 900 q 501 967 315 967 q 656 960 594 967 q 758 936 718 953 l 818 1032 l 883 1032 l 806 907 m 186 478 q 196 226 186 308 q 236 106 206 144 l 724 883 q 643 901 692 897 q 501 906 594 906 q 282 885 340 906 q 205 781 224 864 q 186 478 186 699 m 501 50 q 721 71 663 50 q 798 174 779 92 q 817 478 817 256 q 808 730 817 650 q 768 849 799 810 l 279 72 q 360 54 311 58 q 501 50 410 50 z "},"Ǿ":{"ha":1003,"x_min":121,"x_max":882,"o":"m 806 907 q 857 824 840 876 q 878 692 874 771 q 883 478 883 614 q 862 149 883 243 q 765 22 840 56 q 501 -11 689 -11 q 347 -4 408 -11 q 246 19 286 3 l 185 -76 l 121 -76 l 199 49 q 147 131 164 78 q 126 262 131 183 q 121 478 121 340 q 142 806 121 713 q 240 933 164 900 q 501 967 315 967 q 656 960 594 967 q 758 936 718 953 l 818 1032 l 883 1032 l 806 907 m 186 478 q 196 226 186 308 q 236 106 206 144 l 724 883 q 643 901 692 897 q 501 906 594 906 q 282 885 340 906 q 205 781 224 864 q 186 478 186 699 m 501 50 q 721 71 663 50 q 798 174 779 92 q 817 478 817 256 q 808 730 817 650 q 768 849 799 810 l 279 72 q 360 54 311 58 q 501 50 410 50 m 469 1039 l 469 1046 l 615 1232 l 693 1232 l 693 1225 l 518 1039 l 469 1039 z "},"Õ":{"ha":1004,"x_min":121,"x_max":882,"o":"m 501 -11 q 240 22 315 -11 q 142 149 164 56 q 121 478 121 243 q 142 806 121 713 q 240 933 164 900 q 501 967 315 967 q 765 933 689 967 q 862 806 840 900 q 883 478 883 713 q 862 149 883 243 q 765 22 840 56 q 501 -11 689 -11 m 501 50 q 721 71 663 50 q 798 174 779 92 q 817 478 817 256 q 798 782 817 700 q 721 885 779 864 q 501 906 663 906 q 282 885 340 906 q 205 781 224 864 q 186 478 186 699 q 205 174 186 257 q 282 71 224 92 q 501 50 340 50 m 743 1196 q 726 1087 743 1117 q 653 1057 708 1057 q 583 1065 617 1057 q 488 1094 550 1074 q 413 1117 444 1110 q 353 1125 382 1125 q 315 1108 324 1125 q 306 1042 306 1090 l 261 1042 q 278 1151 261 1121 q 351 1181 296 1181 q 426 1171 389 1181 q 517 1143 464 1161 q 553 1131 524 1140 q 607 1117 582 1122 q 651 1113 632 1113 q 690 1130 682 1113 q 699 1196 699 1147 l 743 1196 z "},"Œ":{"ha":1479,"x_min":121,"x_max":1400,"o":"m 501 0 q 239 33 314 0 q 142 157 164 65 q 121 478 121 249 q 142 799 121 707 q 239 923 164 890 q 501 956 314 956 l 1400 956 l 1400 894 l 892 894 q 790 900 829 894 q 849 824 829 872 q 876 706 869 776 q 883 514 882 635 l 1335 514 l 1335 453 l 883 453 q 876 253 882 326 q 850 132 869 181 q 790 56 831 83 q 892 61 829 61 l 1400 61 l 1400 0 l 501 0 m 501 61 q 721 81 663 61 q 798 182 779 101 q 817 478 817 263 q 798 774 817 693 q 721 874 779 854 q 501 894 663 894 q 282 874 340 894 q 205 774 224 854 q 186 478 186 693 q 205 182 186 263 q 282 81 224 101 q 501 61 340 61 z "},"P":{"ha":907,"x_min":154,"x_max":821,"o":"m 154 956 l 558 956 q 733 918 675 956 q 806 820 790 881 q 821 664 821 760 q 805 510 821 569 q 731 412 789 450 q 558 374 674 374 l 221 374 l 221 0 l 154 0 l 154 956 m 546 435 q 685 460 640 435 q 743 533 731 486 q 756 664 756 579 q 743 797 756 750 q 686 869 731 843 q 547 894 642 894 l 221 894 l 221 435 l 546 435 z "},"Þ":{"ha":907,"x_min":154,"x_max":821,"o":"m 154 956 l 221 956 l 221 778 l 558 778 q 733 740 675 778 q 806 642 790 701 q 821 486 821 582 q 805 331 821 392 q 731 233 789 271 q 558 194 674 194 l 221 194 l 221 0 l 154 0 l 154 956 m 546 257 q 685 283 640 257 q 743 355 731 308 q 756 486 756 401 q 743 618 756 572 q 686 690 731 664 q 547 715 642 715 l 221 715 l 221 257 l 546 257 z "},"Q":{"ha":1004,"x_min":121,"x_max":901,"o":"m 901 -157 l 901 -160 l 824 -160 l 701 3 q 501 -11 638 -11 q 240 22 315 -11 q 142 149 164 56 q 121 478 121 243 q 142 806 121 713 q 240 933 164 900 q 501 967 315 967 q 765 933 689 967 q 862 806 840 900 q 883 478 883 713 q 876 235 883 319 q 843 99 868 151 q 765 22 818 47 l 901 -157 m 501 50 q 661 56 619 50 l 475 303 l 551 303 l 726 72 q 785 134 767 90 q 810 255 804 178 q 817 478 817 332 q 798 782 817 700 q 721 885 779 864 q 501 906 663 906 q 282 885 340 906 q 205 781 224 864 q 186 478 186 699 q 205 174 186 257 q 282 71 224 92 q 501 50 340 50 z "},"R":{"ha":949,"x_min":154,"x_max":843,"o":"m 771 0 l 611 403 q 561 401 592 401 l 221 401 l 221 0 l 154 0 l 154 956 l 582 956 q 748 918 693 956 q 817 824 803 881 q 832 678 832 767 q 822 560 832 610 q 778 470 813 510 q 676 414 744 431 l 843 0 l 771 0 m 553 463 q 694 488 647 463 q 753 558 740 514 q 767 678 767 601 q 756 799 767 756 q 702 869 744 843 q 571 894 660 894 l 221 894 l 221 463 l 553 463 z "},"Ŕ":{"ha":947,"x_min":154,"x_max":842,"o":"m 771 0 l 611 403 q 561 401 592 401 l 221 401 l 221 0 l 154 0 l 154 956 l 582 956 q 748 918 693 956 q 817 824 803 881 q 832 678 832 767 q 822 560 832 610 q 778 470 813 510 q 676 414 744 431 l 843 0 l 771 0 m 553 463 q 694 488 647 463 q 753 558 740 514 q 767 678 767 601 q 756 799 767 756 q 702 869 744 843 q 571 894 660 894 l 221 894 l 221 463 l 553 463 m 442 1039 l 442 1046 l 588 1232 l 665 1232 l 665 1225 l 490 1039 l 442 1039 z "},"Ř":{"ha":947,"x_min":154,"x_max":842,"o":"m 771 0 l 611 403 q 561 401 592 401 l 221 401 l 221 0 l 154 0 l 154 956 l 582 956 q 748 918 693 956 q 817 824 803 881 q 832 678 832 767 q 822 560 832 610 q 778 470 813 510 q 676 414 744 431 l 843 0 l 771 0 m 553 463 q 694 488 647 463 q 753 558 740 514 q 767 678 767 601 q 756 799 767 756 q 702 869 744 843 q 571 894 660 894 l 221 894 l 221 463 l 553 463 m 438 1039 l 290 1225 l 290 1232 l 338 1232 l 475 1086 l 614 1232 l 661 1232 l 661 1225 l 514 1039 l 438 1039 z "},"Ŗ":{"ha":947,"x_min":154,"x_max":842,"o":"m 771 0 l 611 403 q 561 401 592 401 l 221 401 l 221 0 l 154 0 l 154 956 l 582 956 q 748 918 693 956 q 817 824 803 881 q 832 678 832 767 q 822 560 832 610 q 778 470 813 510 q 676 414 744 431 l 843 0 l 771 0 m 553 463 q 694 488 647 463 q 753 558 740 514 q 767 678 767 601 q 756 799 767 756 q 702 869 744 843 q 571 894 660 894 l 221 894 l 221 463 l 553 463 m 415 -293 q 463 -286 447 -293 q 483 -262 478 -279 q 488 -211 488 -246 l 488 -187 l 454 -187 l 454 -86 l 535 -86 l 535 -192 q 525 -277 535 -249 q 490 -317 515 -306 q 415 -329 465 -329 l 415 -293 z "},"Ȑ":{"ha":947,"x_min":154,"x_max":842,"o":"m 771 0 l 611 403 q 561 401 592 401 l 221 401 l 221 0 l 154 0 l 154 956 l 582 956 q 748 918 693 956 q 817 824 803 881 q 832 678 832 767 q 822 560 832 610 q 778 470 813 510 q 676 414 744 431 l 843 0 l 771 0 m 553 463 q 694 488 647 463 q 753 558 740 514 q 767 678 767 601 q 756 799 767 756 q 702 869 744 843 q 571 894 660 894 l 221 894 l 221 463 l 553 463 m 381 1040 l 335 1040 l 161 1224 l 161 1231 l 235 1231 l 381 1047 l 381 1040 m 647 1040 l 601 1040 l 428 1224 l 428 1231 l 503 1231 l 647 1047 l 647 1040 z "},"Ṛ":{"ha":947,"x_min":154,"x_max":842,"o":"m 771 0 l 611 403 q 561 401 592 401 l 221 401 l 221 0 l 154 0 l 154 956 l 582 956 q 748 918 693 956 q 817 824 803 881 q 832 678 832 767 q 822 560 832 610 q 778 470 813 510 q 676 414 744 431 l 843 0 l 771 0 m 553 463 q 694 488 647 463 q 753 558 740 514 q 767 678 767 601 q 756 799 767 756 q 702 869 744 843 q 571 894 660 894 l 221 894 l 221 463 l 553 463 m 435 -187 l 435 -86 l 517 -86 l 517 -187 l 435 -187 z "},"Ȓ":{"ha":947,"x_min":154,"x_max":842,"o":"m 771 0 l 611 403 q 561 401 592 401 l 221 401 l 221 0 l 154 0 l 154 956 l 582 956 q 748 918 693 956 q 817 824 803 881 q 832 678 832 767 q 822 560 832 610 q 778 470 813 510 q 676 414 744 431 l 843 0 l 771 0 m 553 463 q 694 488 647 463 q 753 558 740 514 q 767 678 767 601 q 756 799 767 756 q 702 869 744 843 q 571 894 660 894 l 221 894 l 221 463 l 553 463 m 293 1046 q 303 1156 293 1117 q 351 1219 313 1196 q 475 1243 390 1243 q 599 1219 560 1243 q 647 1157 638 1196 q 656 1046 656 1118 l 606 1046 q 599 1135 606 1106 q 565 1180 593 1164 q 475 1196 538 1196 q 385 1180 413 1196 q 350 1135 357 1164 q 343 1046 343 1106 l 293 1046 z "},"S":{"ha":879,"x_min":107,"x_max":772,"o":"m 461 -11 q 293 -6 385 -11 q 135 6 201 -1 l 135 68 q 294 56 206 61 q 442 50 383 50 q 565 57 518 50 q 649 83 611 64 q 695 146 683 103 q 707 257 707 189 q 699 378 707 344 q 658 426 690 411 q 540 449 625 440 l 290 475 q 166 513 206 483 q 117 586 126 542 q 107 711 107 631 q 142 873 107 818 q 248 947 178 928 q 440 967 318 967 q 601 962 522 967 q 725 947 681 957 l 725 888 q 592 901 669 896 q 449 906 514 906 q 310 897 363 906 q 226 865 257 888 q 184 809 194 846 q 174 710 174 772 q 183 609 174 642 q 219 562 192 576 q 306 540 246 547 l 544 515 q 654 499 615 508 q 720 470 693 490 q 760 410 747 450 q 770 353 768 385 q 772 264 772 322 q 735 80 772 139 q 636 5 699 21 q 461 -11 574 -11 z "},"Ś":{"ha":878,"x_min":107,"x_max":771,"o":"m 461 -11 q 293 -6 385 -11 q 135 6 201 -1 l 135 68 q 294 56 206 61 q 442 50 383 50 q 565 57 518 50 q 649 83 611 64 q 695 146 683 103 q 707 257 707 189 q 699 378 707 344 q 658 426 690 411 q 540 449 625 440 l 290 475 q 166 513 206 483 q 117 586 126 542 q 107 711 107 631 q 142 873 107 818 q 248 947 178 928 q 440 967 318 967 q 601 962 522 967 q 725 947 681 957 l 725 888 q 592 901 669 896 q 449 906 514 906 q 310 897 363 906 q 226 865 257 888 q 184 809 194 846 q 174 710 174 772 q 183 609 174 642 q 219 562 192 576 q 306 540 246 547 l 544 515 q 654 499 615 508 q 720 470 693 490 q 760 410 747 450 q 770 353 768 385 q 772 264 772 322 q 735 80 772 139 q 636 5 699 21 q 461 -11 574 -11 m 407 1039 l 407 1046 l 553 1232 l 631 1232 l 631 1225 l 456 1039 l 407 1039 z "},"Ꞌ":{"ha":158,"x_min":46,"x_max":113,"o":"m 46 404 l 46 956 l 113 956 l 113 708 l 89 404 l 46 404 z "},"Š":{"ha":879,"x_min":107,"x_max":771,"o":"m 461 -11 q 293 -6 385 -11 q 135 6 201 -1 l 135 68 q 294 56 206 61 q 442 50 383 50 q 565 57 518 50 q 649 83 611 64 q 695 146 683 103 q 707 257 707 189 q 699 378 707 344 q 658 426 690 411 q 540 449 625 440 l 290 475 q 166 513 206 483 q 117 586 126 542 q 107 711 107 631 q 142 873 107 818 q 248 947 178 928 q 440 967 318 967 q 601 962 522 967 q 725 947 681 957 l 725 888 q 592 901 669 896 q 449 906 514 906 q 310 897 363 906 q 226 865 257 888 q 184 809 194 846 q 174 710 174 772 q 183 609 174 642 q 219 562 192 576 q 306 540 246 547 l 544 515 q 654 499 615 508 q 720 470 693 490 q 760 410 747 450 q 770 353 768 385 q 772 264 772 322 q 735 80 772 139 q 636 5 699 21 q 461 -11 574 -11 m 415 1042 l 268 1228 l 268 1235 l 315 1235 l 453 1089 l 592 1235 l 639 1235 l 639 1228 l 492 1042 l 415 1042 z "},"Ş":{"ha":878,"x_min":107,"x_max":771,"o":"m 771 264 q 735 81 771 140 q 636 5 699 21 q 464 -11 574 -11 l 407 -264 l 338 -264 l 338 -257 l 414 -11 q 135 6 240 -6 l 135 68 q 294 56 206 61 q 442 50 383 50 q 565 57 518 50 q 649 83 611 64 q 694 145 683 103 q 706 257 706 188 q 697 378 706 346 q 657 426 689 411 q 540 449 625 440 l 290 475 q 166 513 206 483 q 117 585 126 542 q 107 710 107 629 q 142 872 107 817 q 248 946 178 926 q 440 965 318 965 q 601 960 522 965 q 724 946 681 956 l 724 886 q 591 899 668 894 q 449 904 514 904 q 310 895 363 904 q 226 864 257 886 q 184 808 194 844 q 174 708 174 771 q 183 608 174 640 q 219 562 192 576 q 306 540 246 547 l 544 515 q 653 499 615 508 q 719 470 692 490 q 758 410 746 450 q 769 353 767 385 q 771 264 771 322 z "},"Ŝ":{"ha":878,"x_min":107,"x_max":771,"o":"m 461 -11 q 293 -6 385 -11 q 135 6 201 -1 l 135 68 q 294 56 206 61 q 442 50 383 50 q 565 57 518 50 q 649 83 611 64 q 695 146 683 103 q 707 257 707 189 q 699 378 707 344 q 658 426 690 411 q 540 449 625 440 l 290 475 q 166 513 206 483 q 117 586 126 542 q 107 711 107 631 q 142 873 107 818 q 248 947 178 928 q 440 967 318 967 q 601 962 522 967 q 725 947 681 957 l 725 888 q 592 901 669 896 q 449 906 514 906 q 310 897 363 906 q 226 865 257 888 q 184 809 194 846 q 174 710 174 772 q 183 609 174 642 q 219 562 192 576 q 306 540 246 547 l 544 515 q 654 499 615 508 q 720 470 693 490 q 760 410 747 450 q 770 353 768 385 q 772 264 772 322 q 735 80 772 139 q 636 5 699 21 q 461 -11 574 -11 m 256 1039 l 256 1046 l 403 1232 l 479 1232 l 626 1046 l 626 1039 l 579 1039 l 440 1185 l 303 1039 l 256 1039 z "},"Ș":{"ha":878,"x_min":107,"x_max":771,"o":"m 461 -11 q 293 -6 385 -11 q 135 6 201 -1 l 135 68 q 294 56 206 61 q 442 50 383 50 q 565 57 518 50 q 649 83 611 64 q 695 146 683 103 q 707 257 707 189 q 699 378 707 344 q 658 426 690 411 q 540 449 625 440 l 290 475 q 166 513 206 483 q 117 586 126 542 q 107 711 107 631 q 142 873 107 818 q 248 947 178 928 q 440 967 318 967 q 601 962 522 967 q 725 947 681 957 l 725 888 q 592 901 669 896 q 449 906 514 906 q 310 897 363 906 q 226 865 257 888 q 184 809 194 846 q 174 710 174 772 q 183 609 174 642 q 219 562 192 576 q 306 540 246 547 l 544 515 q 654 499 615 508 q 720 470 693 490 q 760 410 747 450 q 770 353 768 385 q 772 264 772 322 q 735 80 772 139 q 636 5 699 21 q 461 -11 574 -11 m 381 -293 q 428 -286 413 -293 q 448 -262 443 -279 q 453 -211 453 -246 l 453 -187 l 419 -187 l 419 -86 l 500 -86 l 500 -192 q 490 -277 500 -249 q 456 -317 481 -306 q 381 -329 431 -329 l 381 -293 z "},"Ṣ":{"ha":878,"x_min":107,"x_max":771,"o":"m 461 -11 q 293 -6 385 -11 q 135 6 201 -1 l 135 68 q 294 56 206 61 q 442 50 383 50 q 565 57 518 50 q 649 83 611 64 q 695 146 683 103 q 707 257 707 189 q 699 378 707 344 q 658 426 690 411 q 540 449 625 440 l 290 475 q 166 513 206 483 q 117 586 126 542 q 107 711 107 631 q 142 873 107 818 q 248 947 178 928 q 440 967 318 967 q 601 962 522 967 q 725 947 681 957 l 725 888 q 592 901 669 896 q 449 906 514 906 q 310 897 363 906 q 226 865 257 888 q 184 809 194 846 q 174 710 174 772 q 183 609 174 642 q 219 562 192 576 q 306 540 246 547 l 544 515 q 654 499 615 508 q 720 470 693 490 q 760 410 747 450 q 770 353 768 385 q 772 264 772 322 q 735 80 772 139 q 636 5 699 21 q 461 -11 574 -11 m 400 -187 l 400 -86 l 482 -86 l 482 -187 l 400 -187 z "},"ẞ":{"ha":993,"x_min":142,"x_max":879,"o":"m 619 510 q 815 448 751 510 q 879 250 879 386 q 808 52 879 115 q 571 -11 736 -11 q 455 -6 518 -11 q 346 10 392 0 l 346 67 q 575 50 476 50 q 717 69 665 50 q 790 131 768 88 q 813 253 813 175 q 768 407 813 360 q 622 454 724 454 l 460 454 l 460 499 l 735 864 q 599 896 661 886 q 461 906 536 906 q 290 877 340 906 q 223 764 239 849 q 207 478 207 679 l 207 0 l 142 0 l 142 478 q 166 790 142 689 q 253 929 190 892 q 447 967 315 967 q 642 949 549 967 q 804 906 735 932 l 804 854 l 546 510 l 619 510 z "},"Ə":{"ha":976,"x_min":121,"x_max":856,"o":"m 468 967 q 722 934 644 967 q 828 803 800 901 q 856 478 856 704 q 835 149 856 243 q 742 22 815 56 q 488 -11 668 -11 q 234 22 307 -11 q 141 149 161 56 q 121 478 121 243 l 121 514 l 789 514 q 765 780 788 701 q 676 882 742 858 q 450 906 610 906 q 333 898 397 906 q 224 879 269 890 l 224 940 q 341 959 272 951 q 468 967 410 967 m 488 50 q 694 70 639 50 q 769 168 750 90 q 789 453 788 246 l 186 453 q 206 168 188 246 q 281 70 225 90 q 488 50 336 50 z "},"T":{"ha":807,"x_min":53,"x_max":754,"o":"m 371 0 l 371 893 l 53 893 l 53 956 l 754 956 l 754 893 l 436 893 l 436 0 l 371 0 z "},"Ŧ":{"ha":807,"x_min":53,"x_max":753,"o":"m 753 892 l 436 892 l 436 524 l 714 524 l 714 467 l 436 467 l 436 0 l 371 0 l 371 467 l 93 467 l 93 524 l 371 524 l 371 892 l 53 892 l 53 954 l 753 954 l 753 892 z "},"Ť":{"ha":806,"x_min":53,"x_max":753,"o":"m 371 0 l 371 893 l 53 893 l 53 956 l 754 956 l 754 893 l 436 893 l 436 0 l 371 0 m 367 1039 l 219 1225 l 219 1232 l 267 1232 l 404 1086 l 543 1232 l 590 1232 l 590 1225 l 443 1039 l 367 1039 z "},"Ţ":{"ha":806,"x_min":53,"x_max":753,"o":"m 53 954 l 753 954 l 753 892 l 436 892 l 436 0 l 429 0 l 371 -264 l 301 -264 l 301 -257 l 382 0 l 371 0 l 371 892 l 53 892 l 53 954 z "},"Ț":{"ha":806,"x_min":53,"x_max":753,"o":"m 371 0 l 371 893 l 53 893 l 53 956 l 754 956 l 754 893 l 436 893 l 436 0 l 371 0 m 344 -293 q 392 -286 376 -293 q 412 -262 407 -279 q 417 -211 417 -246 l 417 -187 l 383 -187 l 383 -86 l 464 -86 l 464 -192 q 454 -277 464 -249 q 419 -317 444 -306 q 344 -329 394 -329 l 344 -293 z "},"Ṭ":{"ha":806,"x_min":53,"x_max":753,"o":"m 371 0 l 371 893 l 53 893 l 53 956 l 754 956 l 754 893 l 436 893 l 436 0 l 371 0 m 364 -187 l 364 -86 l 446 -86 l 446 -187 l 364 -187 z "},"U":{"ha":992,"x_min":142,"x_max":850,"o":"m 850 956 l 850 411 q 828 142 850 226 q 734 24 807 58 q 497 -11 661 -11 q 259 24 332 -11 q 164 142 186 58 q 142 411 142 226 l 142 956 l 207 956 l 207 368 q 224 164 207 226 q 300 76 240 101 q 497 50 360 50 q 692 76 633 50 q 767 163 751 101 q 783 368 783 225 l 783 956 l 850 956 z "},"Ú":{"ha":992,"x_min":142,"x_max":849,"o":"m 850 956 l 850 411 q 828 142 850 226 q 734 24 807 58 q 497 -11 661 -11 q 259 24 332 -11 q 164 142 186 58 q 142 411 142 226 l 142 956 l 207 956 l 207 368 q 224 164 207 226 q 300 76 240 101 q 497 50 360 50 q 692 76 633 50 q 767 163 751 101 q 783 368 783 225 l 783 956 l 850 956 m 451 1042 l 451 1049 l 597 1235 l 675 1235 l 675 1228 l 500 1042 l 451 1042 z "},"Ŭ":{"ha":990,"x_min":142,"x_max":849,"o":"m 850 956 l 850 411 q 828 142 850 226 q 734 24 807 58 q 497 -11 661 -11 q 259 24 332 -11 q 164 142 186 58 q 142 411 142 226 l 142 956 l 207 956 l 207 368 q 224 164 207 226 q 300 76 240 101 q 497 50 360 50 q 692 76 633 50 q 767 163 751 101 q 783 368 783 225 l 783 956 l 850 956 m 678 1232 q 668 1122 678 1161 q 619 1058 658 1082 q 496 1035 581 1035 q 372 1058 411 1035 q 324 1121 333 1082 q 315 1232 315 1160 l 365 1232 q 372 1143 365 1172 q 406 1098 378 1114 q 496 1082 433 1082 q 586 1098 558 1082 q 621 1143 614 1114 q 628 1232 628 1172 l 678 1232 z "},"Ǔ":{"ha":990,"x_min":142,"x_max":849,"o":"m 850 956 l 850 411 q 828 142 850 226 q 734 24 807 58 q 497 -11 661 -11 q 259 24 332 -11 q 164 142 186 58 q 142 411 142 226 l 142 956 l 207 956 l 207 368 q 224 164 207 226 q 300 76 240 101 q 497 50 360 50 q 692 76 633 50 q 767 163 751 101 q 783 368 783 225 l 783 956 l 850 956 m 460 1039 l 313 1225 l 313 1232 l 360 1232 l 497 1086 l 636 1232 l 683 1232 l 683 1225 l 536 1039 l 460 1039 z "},"Û":{"ha":992,"x_min":142,"x_max":849,"o":"m 850 956 l 850 411 q 828 142 850 226 q 734 24 807 58 q 497 -11 661 -11 q 259 24 332 -11 q 164 142 186 58 q 142 411 142 226 l 142 956 l 207 956 l 207 368 q 224 164 207 226 q 300 76 240 101 q 497 50 360 50 q 692 76 633 50 q 767 163 751 101 q 783 368 783 225 l 783 956 l 850 956 m 313 1042 l 313 1049 l 460 1235 l 536 1235 l 683 1049 l 683 1042 l 636 1042 l 497 1188 l 360 1042 l 313 1042 z "},"Ȕ":{"ha":990,"x_min":142,"x_max":849,"o":"m 850 956 l 850 411 q 828 142 850 226 q 734 24 807 58 q 497 -11 661 -11 q 259 24 332 -11 q 164 142 186 58 q 142 411 142 226 l 142 956 l 207 956 l 207 368 q 224 164 207 226 q 300 76 240 101 q 497 50 360 50 q 692 76 633 50 q 767 163 751 101 q 783 368 783 225 l 783 956 l 850 956 m 403 1040 l 357 1040 l 183 1224 l 183 1231 l 257 1231 l 403 1047 l 403 1040 m 669 1040 l 624 1040 l 450 1224 l 450 1231 l 525 1231 l 669 1047 l 669 1040 z "},"Ü":{"ha":992,"x_min":142,"x_max":849,"o":"m 850 956 l 850 411 q 828 142 850 226 q 734 24 807 58 q 497 -11 661 -11 q 259 24 332 -11 q 164 142 186 58 q 142 411 142 226 l 142 956 l 207 956 l 207 368 q 224 164 207 226 q 300 76 240 101 q 497 50 360 50 q 692 76 633 50 q 767 163 751 101 q 783 368 783 225 l 783 956 l 850 956 m 335 1071 l 335 1163 l 406 1163 l 406 1071 l 335 1071 m 588 1071 l 588 1163 l 658 1163 l 658 1071 l 588 1071 z "},"Ǘ":{"ha":990,"x_min":142,"x_max":849,"o":"m 850 956 l 850 411 q 828 142 850 226 q 734 24 807 58 q 497 -11 661 -11 q 259 24 332 -11 q 164 142 186 58 q 142 411 142 226 l 142 956 l 207 956 l 207 368 q 224 164 207 226 q 300 76 240 101 q 497 50 360 50 q 692 76 633 50 q 767 163 751 101 q 783 368 783 225 l 783 956 l 850 956 m 335 1124 l 335 1215 l 406 1215 l 406 1124 l 335 1124 m 588 1124 l 588 1215 l 658 1215 l 658 1124 l 588 1124 m 467 1217 l 467 1224 l 613 1410 l 690 1410 l 690 1403 l 515 1217 l 467 1217 z "},"Ǚ":{"ha":990,"x_min":142,"x_max":849,"o":"m 850 956 l 850 411 q 828 142 850 226 q 734 24 807 58 q 497 -11 661 -11 q 259 24 332 -11 q 164 142 186 58 q 142 411 142 226 l 142 956 l 207 956 l 207 368 q 224 164 207 226 q 300 76 240 101 q 497 50 360 50 q 692 76 633 50 q 767 163 751 101 q 783 368 783 225 l 783 956 l 850 956 m 335 1124 l 335 1215 l 406 1215 l 406 1124 l 335 1124 m 588 1124 l 588 1215 l 658 1215 l 658 1124 l 588 1124 m 463 1217 l 315 1403 l 315 1410 l 363 1410 l 500 1264 l 639 1410 l 686 1410 l 686 1403 l 539 1217 l 463 1217 z "},"Ǜ":{"ha":990,"x_min":142,"x_max":849,"o":"m 850 956 l 850 411 q 828 142 850 226 q 734 24 807 58 q 497 -11 661 -11 q 259 24 332 -11 q 164 142 186 58 q 142 411 142 226 l 142 956 l 207 956 l 207 368 q 224 164 207 226 q 300 76 240 101 q 497 50 360 50 q 692 76 633 50 q 767 163 751 101 q 783 368 783 225 l 783 956 l 850 956 m 335 1124 l 335 1215 l 406 1215 l 406 1124 l 335 1124 m 588 1124 l 588 1215 l 658 1215 l 658 1124 l 588 1124 m 492 1217 l 317 1403 l 317 1410 l 394 1410 l 540 1224 l 540 1217 l 492 1217 z "},"Ǖ":{"ha":990,"x_min":142,"x_max":849,"o":"m 850 956 l 850 411 q 828 142 850 226 q 734 24 807 58 q 497 -11 661 -11 q 259 24 332 -11 q 164 142 186 58 q 142 411 142 226 l 142 956 l 207 956 l 207 368 q 224 164 207 226 q 300 76 240 101 q 497 50 360 50 q 692 76 633 50 q 767 163 751 101 q 783 368 783 225 l 783 956 l 850 956 m 335 1124 l 335 1215 l 406 1215 l 406 1124 l 335 1124 m 588 1124 l 588 1215 l 658 1215 l 658 1124 l 588 1124 m 340 1344 l 340 1408 l 658 1408 l 658 1344 l 340 1344 z "},"Ụ":{"ha":990,"x_min":142,"x_max":849,"o":"m 850 956 l 850 411 q 828 142 850 226 q 734 24 807 58 q 497 -11 661 -11 q 259 24 332 -11 q 164 142 186 58 q 142 411 142 226 l 142 956 l 207 956 l 207 368 q 224 164 207 226 q 300 76 240 101 q 497 50 360 50 q 692 76 633 50 q 767 163 751 101 q 783 368 783 225 l 783 956 l 850 956 m 457 -187 l 457 -86 l 539 -86 l 539 -187 l 457 -187 z "},"Ù":{"ha":992,"x_min":142,"x_max":849,"o":"m 850 956 l 850 411 q 828 142 850 226 q 734 24 807 58 q 497 -11 661 -11 q 259 24 332 -11 q 164 142 186 58 q 142 411 142 226 l 142 956 l 207 956 l 207 368 q 224 164 207 226 q 300 76 240 101 q 497 50 360 50 q 692 76 633 50 q 767 163 751 101 q 783 368 783 225 l 783 956 l 850 956 m 513 1042 l 338 1228 l 338 1235 l 415 1235 l 561 1049 l 561 1042 l 513 1042 z "},"Ủ":{"ha":990,"x_min":142,"x_max":849,"o":"m 850 956 l 850 411 q 828 142 850 226 q 734 24 807 58 q 497 -11 661 -11 q 259 24 332 -11 q 164 142 186 58 q 142 411 142 226 l 142 956 l 207 956 l 207 368 q 224 164 207 226 q 300 76 240 101 q 497 50 360 50 q 692 76 633 50 q 767 163 751 101 q 783 368 783 225 l 783 956 l 850 956 m 435 1026 q 447 1073 435 1060 q 493 1096 458 1086 l 529 1106 q 583 1122 567 1115 q 604 1140 599 1129 q 610 1169 610 1150 q 598 1210 610 1197 q 562 1225 586 1222 q 486 1228 538 1228 q 332 1221 425 1228 l 332 1263 q 486 1272 410 1272 q 591 1265 554 1272 q 645 1238 628 1258 q 663 1176 663 1218 q 647 1111 663 1132 q 581 1076 632 1090 l 542 1067 q 498 1053 510 1058 q 483 1040 486 1047 q 481 1013 481 1032 l 435 1013 l 435 1026 z "},"Ư":{"ha":990,"x_min":142,"x_max":1003,"o":"m 1003 1089 l 1003 1051 q 992 965 1003 994 q 956 924 982 936 q 876 913 929 913 l 849 913 l 849 411 q 827 142 849 226 q 733 24 806 58 q 497 -11 661 -11 q 259 24 332 -11 q 164 142 186 58 q 142 411 142 226 l 142 954 l 207 954 l 207 368 q 224 164 207 226 q 300 76 240 101 q 497 50 360 50 q 692 76 633 50 q 766 163 750 101 q 782 368 782 225 l 782 954 l 876 954 q 935 972 922 954 q 949 1042 949 989 l 949 1089 l 1003 1089 z "},"Ứ":{"ha":989,"x_min":142,"x_max":1001,"o":"m 1003 1089 l 1003 1051 q 992 965 1003 994 q 956 924 982 936 q 876 913 929 913 l 849 913 l 849 411 q 827 142 849 226 q 733 24 806 58 q 497 -11 661 -11 q 259 24 332 -11 q 164 142 186 58 q 142 411 142 226 l 142 954 l 207 954 l 207 368 q 224 164 207 226 q 300 76 240 101 q 497 50 360 50 q 692 76 633 50 q 766 163 750 101 q 782 368 782 225 l 782 954 l 876 954 q 935 972 922 954 q 949 1042 949 989 l 949 1089 l 1003 1089 m 463 1038 l 463 1044 l 608 1231 l 686 1231 l 686 1224 l 511 1038 l 463 1038 z "},"Ự":{"ha":989,"x_min":142,"x_max":1001,"o":"m 1003 1089 l 1003 1051 q 992 965 1003 994 q 956 924 982 936 q 876 913 929 913 l 849 913 l 849 411 q 827 142 849 226 q 733 24 806 58 q 497 -11 661 -11 q 259 24 332 -11 q 164 142 186 58 q 142 411 142 226 l 142 954 l 207 954 l 207 368 q 224 164 207 226 q 300 76 240 101 q 497 50 360 50 q 692 76 633 50 q 766 163 750 101 q 782 368 782 225 l 782 954 l 876 954 q 935 972 922 954 q 949 1042 949 989 l 949 1089 l 1003 1089 m 456 -187 l 456 -86 l 538 -86 l 538 -187 l 456 -187 z "},"Ừ":{"ha":989,"x_min":142,"x_max":1001,"o":"m 1003 1089 l 1003 1051 q 992 965 1003 994 q 956 924 982 936 q 876 913 929 913 l 849 913 l 849 411 q 827 142 849 226 q 733 24 806 58 q 497 -11 661 -11 q 259 24 332 -11 q 164 142 186 58 q 142 411 142 226 l 142 954 l 207 954 l 207 368 q 224 164 207 226 q 300 76 240 101 q 497 50 360 50 q 692 76 633 50 q 766 163 750 101 q 782 368 782 225 l 782 954 l 876 954 q 935 972 922 954 q 949 1042 949 989 l 949 1089 l 1003 1089 m 488 1038 l 313 1224 l 313 1231 l 390 1231 l 536 1044 l 536 1038 l 488 1038 z "},"Ử":{"ha":989,"x_min":142,"x_max":1001,"o":"m 1003 1089 l 1003 1051 q 992 965 1003 994 q 956 924 982 936 q 876 913 929 913 l 849 913 l 849 411 q 827 142 849 226 q 733 24 806 58 q 497 -11 661 -11 q 259 24 332 -11 q 164 142 186 58 q 142 411 142 226 l 142 954 l 207 954 l 207 368 q 224 164 207 226 q 300 76 240 101 q 497 50 360 50 q 692 76 633 50 q 766 163 750 101 q 782 368 782 225 l 782 954 l 876 954 q 935 972 922 954 q 949 1042 949 989 l 949 1089 l 1003 1089 m 433 1025 q 445 1072 433 1058 q 492 1094 457 1085 l 528 1104 q 581 1121 565 1114 q 603 1138 597 1128 q 608 1168 608 1149 q 597 1208 608 1196 q 560 1224 585 1221 q 485 1226 536 1226 q 331 1219 424 1226 l 331 1261 q 485 1271 408 1271 q 590 1264 553 1271 q 644 1237 626 1257 q 661 1175 661 1217 q 646 1110 661 1131 q 579 1075 631 1089 l 540 1065 q 497 1051 508 1057 q 482 1038 485 1046 q 479 1011 479 1031 l 433 1011 l 433 1025 z "},"Ữ":{"ha":989,"x_min":142,"x_max":1001,"o":"m 1003 1089 l 1003 1051 q 992 965 1003 994 q 956 924 982 936 q 876 913 929 913 l 849 913 l 849 411 q 827 142 849 226 q 733 24 806 58 q 497 -11 661 -11 q 259 24 332 -11 q 164 142 186 58 q 142 411 142 226 l 142 954 l 207 954 l 207 368 q 224 164 207 226 q 300 76 240 101 q 497 50 360 50 q 692 76 633 50 q 766 163 750 101 q 782 368 782 225 l 782 954 l 876 954 q 935 972 922 954 q 949 1042 949 989 l 949 1089 l 1003 1089 m 736 1231 q 719 1122 736 1151 q 646 1092 701 1092 q 576 1100 610 1092 q 481 1129 543 1108 q 406 1152 438 1144 q 346 1160 375 1160 q 307 1142 315 1160 q 299 1076 299 1125 l 254 1076 q 272 1185 254 1156 q 344 1215 289 1215 q 419 1206 382 1215 q 510 1178 457 1196 q 546 1166 517 1175 q 600 1152 575 1157 q 644 1147 625 1147 q 683 1165 674 1147 q 692 1231 692 1182 l 736 1231 z "},"Ű":{"ha":990,"x_min":142,"x_max":849,"o":"m 850 956 l 850 411 q 828 142 850 226 q 734 24 807 58 q 497 -11 661 -11 q 259 24 332 -11 q 164 142 186 58 q 142 411 142 226 l 142 956 l 207 956 l 207 368 q 224 164 207 226 q 300 76 240 101 q 497 50 360 50 q 692 76 633 50 q 767 163 751 101 q 783 368 783 225 l 783 956 l 850 956 m 339 1040 l 339 1047 l 483 1231 l 558 1231 l 558 1224 l 385 1040 l 339 1040 m 606 1040 l 606 1047 l 751 1231 l 825 1231 l 825 1224 l 651 1040 l 606 1040 z "},"Ȗ":{"ha":990,"x_min":142,"x_max":849,"o":"m 850 956 l 850 411 q 828 142 850 226 q 734 24 807 58 q 497 -11 661 -11 q 259 24 332 -11 q 164 142 186 58 q 142 411 142 226 l 142 956 l 207 956 l 207 368 q 224 164 207 226 q 300 76 240 101 q 497 50 360 50 q 692 76 633 50 q 767 163 751 101 q 783 368 783 225 l 783 956 l 850 956 m 315 1046 q 325 1156 315 1117 q 374 1219 335 1196 q 497 1243 413 1243 q 621 1219 582 1243 q 669 1157 660 1196 q 678 1046 678 1118 l 628 1046 q 622 1135 628 1106 q 588 1180 615 1164 q 497 1196 560 1196 q 407 1180 435 1196 q 372 1135 379 1164 q 365 1046 365 1106 l 315 1046 z "},"Ū":{"ha":990,"x_min":142,"x_max":849,"o":"m 850 956 l 850 411 q 828 142 850 226 q 734 24 807 58 q 497 -11 661 -11 q 259 24 332 -11 q 164 142 186 58 q 142 411 142 226 l 142 956 l 207 956 l 207 368 q 224 164 207 226 q 300 76 240 101 q 497 50 360 50 q 692 76 633 50 q 767 163 751 101 q 783 368 783 225 l 783 956 l 850 956 m 338 1167 l 338 1231 l 656 1231 l 656 1167 l 338 1167 z "},"Ų":{"ha":992,"x_min":142,"x_max":850,"o":"m 850 956 l 850 411 q 843 221 850 292 q 813 103 836 150 q 744 31 790 56 q 658 -50 699 4 q 618 -158 618 -104 q 683 -219 618 -219 l 707 -218 l 707 -271 q 671 -272 692 -272 q 585 -244 613 -272 q 558 -171 558 -217 q 583 -85 558 -131 q 649 0 607 -40 q 497 -11 593 -11 q 259 24 332 -11 q 164 142 186 58 q 142 411 142 226 l 142 956 l 207 956 l 207 368 q 224 164 207 226 q 300 76 240 101 q 497 50 360 50 q 692 76 633 50 q 767 163 751 101 q 783 368 783 225 l 783 956 l 850 956 z "},"Ů":{"ha":990,"x_min":142,"x_max":849,"o":"m 850 956 l 850 411 q 828 142 850 226 q 734 24 807 58 q 497 -11 661 -11 q 259 24 332 -11 q 164 142 186 58 q 142 411 142 226 l 142 956 l 207 956 l 207 368 q 224 164 207 226 q 300 76 240 101 q 497 50 360 50 q 692 76 633 50 q 767 163 751 101 q 783 368 783 225 l 783 956 l 850 956 m 496 1006 q 388 1018 421 1006 q 345 1056 354 1031 q 336 1139 336 1082 q 345 1222 336 1194 q 388 1261 354 1249 q 496 1274 421 1274 q 605 1261 571 1274 q 648 1222 639 1249 q 657 1139 657 1194 q 648 1056 657 1082 q 605 1018 639 1031 q 496 1006 571 1006 m 496 1050 q 572 1058 550 1050 q 600 1082 594 1065 q 606 1139 606 1099 q 600 1197 606 1179 q 572 1222 594 1214 q 496 1229 550 1229 q 421 1222 443 1229 q 393 1197 399 1214 q 388 1139 388 1179 q 393 1082 388 1099 q 420 1058 399 1065 q 496 1050 442 1050 z "},"Ũ":{"ha":990,"x_min":142,"x_max":849,"o":"m 850 956 l 850 411 q 828 142 850 226 q 734 24 807 58 q 497 -11 661 -11 q 259 24 332 -11 q 164 142 186 58 q 142 411 142 226 l 142 956 l 207 956 l 207 368 q 224 164 207 226 q 300 76 240 101 q 497 50 360 50 q 692 76 633 50 q 767 163 751 101 q 783 368 783 225 l 783 956 l 850 956 m 738 1232 q 720 1123 738 1153 q 647 1093 703 1093 q 578 1101 611 1093 q 482 1131 544 1110 q 408 1153 439 1146 q 347 1161 376 1161 q 308 1144 317 1161 q 300 1078 300 1126 l 256 1078 q 273 1187 256 1157 q 346 1217 290 1217 q 421 1207 383 1217 q 511 1179 458 1197 q 547 1167 518 1176 q 601 1153 576 1158 q 646 1149 626 1149 q 684 1166 675 1149 q 693 1232 693 1183 l 738 1232 z "},"V":{"ha":919,"x_min":51,"x_max":868,"o":"m 424 0 l 51 956 l 122 956 l 457 93 l 464 93 l 799 956 l 868 956 l 496 0 l 424 0 z "},"W":{"ha":1367,"x_min":63,"x_max":1303,"o":"m 956 0 l 686 842 l 681 842 l 411 0 l 340 0 l 63 956 l 133 956 l 375 107 l 383 107 l 650 956 l 719 956 l 988 107 l 996 107 l 1236 956 l 1303 956 l 1026 0 l 956 0 z "},"Ẃ":{"ha":1365,"x_min":63,"x_max":1301,"o":"m 956 0 l 686 842 l 681 842 l 411 0 l 340 0 l 63 956 l 133 956 l 375 107 l 383 107 l 650 956 l 719 956 l 988 107 l 996 107 l 1236 956 l 1303 956 l 1026 0 l 956 0 m 650 1039 l 650 1046 l 796 1232 l 874 1232 l 874 1225 l 699 1039 l 650 1039 z "},"Ŵ":{"ha":1365,"x_min":63,"x_max":1301,"o":"m 956 0 l 686 842 l 681 842 l 411 0 l 340 0 l 63 956 l 133 956 l 375 107 l 383 107 l 650 956 l 719 956 l 988 107 l 996 107 l 1236 956 l 1303 956 l 1026 0 l 956 0 m 499 1039 l 499 1046 l 646 1232 l 722 1232 l 869 1046 l 869 1039 l 822 1039 l 683 1185 l 546 1039 l 499 1039 z "},"Ẅ":{"ha":1365,"x_min":63,"x_max":1301,"o":"m 956 0 l 686 842 l 681 842 l 411 0 l 340 0 l 63 956 l 133 956 l 375 107 l 383 107 l 650 956 l 719 956 l 988 107 l 996 107 l 1236 956 l 1303 956 l 1026 0 l 956 0 m 521 1124 l 521 1215 l 592 1215 l 592 1124 l 521 1124 m 774 1124 l 774 1215 l 844 1215 l 844 1124 l 774 1124 z "},"Ẁ":{"ha":1365,"x_min":63,"x_max":1301,"o":"m 956 0 l 686 842 l 681 842 l 411 0 l 340 0 l 63 956 l 133 956 l 375 107 l 383 107 l 650 956 l 719 956 l 988 107 l 996 107 l 1236 956 l 1303 956 l 1026 0 l 956 0 m 675 1039 l 500 1225 l 500 1232 l 578 1232 l 724 1046 l 724 1039 l 675 1039 z "},"X":{"ha":935,"x_min":51,"x_max":883,"o":"m 803 0 l 472 421 l 461 421 l 131 0 l 51 0 l 428 481 l 57 956 l 139 956 l 464 539 l 474 539 l 800 956 l 879 956 l 508 482 l 883 0 l 803 0 z "},"Y":{"ha":835,"x_min":25,"x_max":810,"o":"m 383 0 l 383 383 l 25 956 l 100 956 l 413 454 l 422 454 l 736 956 l 810 956 l 450 383 l 450 0 l 383 0 z "},"Ý":{"ha":835,"x_min":25,"x_max":808,"o":"m 383 0 l 383 383 l 25 956 l 100 956 l 413 454 l 422 454 l 736 956 l 810 956 l 450 383 l 450 0 l 383 0 m 389 1042 l 389 1049 l 535 1235 l 613 1235 l 613 1228 l 438 1042 l 389 1042 z "},"Ŷ":{"ha":833,"x_min":25,"x_max":808,"o":"m 383 0 l 383 383 l 25 956 l 100 956 l 413 454 l 422 454 l 736 956 l 810 956 l 450 383 l 450 0 l 383 0 m 233 1039 l 233 1046 l 381 1232 l 457 1232 l 604 1046 l 604 1039 l 557 1039 l 418 1185 l 281 1039 l 233 1039 z "},"Ÿ":{"ha":835,"x_min":25,"x_max":808,"o":"m 383 0 l 383 383 l 25 956 l 100 956 l 413 454 l 422 454 l 736 956 l 810 956 l 450 383 l 450 0 l 383 0 m 258 1071 l 258 1163 l 329 1163 l 329 1071 l 258 1071 m 511 1071 l 511 1163 l 582 1163 l 582 1071 l 511 1071 z "},"Ỵ":{"ha":833,"x_min":25,"x_max":808,"o":"m 383 0 l 383 383 l 25 956 l 100 956 l 413 454 l 422 454 l 736 956 l 810 956 l 450 383 l 450 0 l 383 0 m 378 -187 l 378 -86 l 460 -86 l 460 -187 l 378 -187 z "},"Ỳ":{"ha":833,"x_min":25,"x_max":808,"o":"m 383 0 l 383 383 l 25 956 l 100 956 l 413 454 l 422 454 l 736 956 l 810 956 l 450 383 l 450 0 l 383 0 m 410 1039 l 235 1225 l 235 1232 l 313 1232 l 458 1046 l 458 1039 l 410 1039 z "},"Ỷ":{"ha":833,"x_min":25,"x_max":808,"o":"m 383 0 l 383 383 l 25 956 l 100 956 l 413 454 l 422 454 l 736 956 l 810 956 l 450 383 l 450 0 l 383 0 m 356 1026 q 367 1073 356 1060 q 414 1096 379 1086 l 450 1106 q 503 1122 488 1115 q 525 1140 519 1129 q 531 1169 531 1150 q 519 1210 531 1197 q 483 1225 507 1222 q 407 1228 458 1228 q 253 1221 346 1228 l 253 1263 q 407 1272 331 1272 q 512 1265 475 1272 q 566 1238 549 1258 q 583 1176 583 1218 q 568 1111 583 1132 q 501 1076 553 1090 l 463 1067 q 419 1053 431 1058 q 404 1040 407 1047 q 401 1013 401 1032 l 356 1013 l 356 1026 z "},"Ȳ":{"ha":833,"x_min":25,"x_max":808,"o":"m 383 0 l 383 383 l 25 956 l 100 956 l 413 454 l 422 454 l 736 956 l 810 956 l 450 383 l 450 0 l 383 0 m 258 1167 l 258 1231 l 576 1231 l 576 1167 l 258 1167 z "},"Ỹ":{"ha":833,"x_min":25,"x_max":808,"o":"m 383 0 l 383 383 l 25 956 l 100 956 l 413 454 l 422 454 l 736 956 l 810 956 l 450 383 l 450 0 l 383 0 m 658 1232 q 641 1123 658 1153 q 568 1093 624 1093 q 499 1101 532 1093 q 403 1131 465 1110 q 328 1153 360 1146 q 268 1161 297 1161 q 229 1144 238 1161 q 221 1078 221 1126 l 176 1078 q 194 1187 176 1157 q 267 1217 211 1217 q 342 1207 304 1217 q 432 1179 379 1197 q 468 1167 439 1176 q 522 1153 497 1158 q 567 1149 547 1149 q 605 1166 596 1149 q 614 1232 614 1183 l 658 1232 z "},"Z":{"ha":835,"x_min":81,"x_max":761,"o":"m 81 0 l 81 58 l 667 894 l 96 894 l 96 956 l 750 956 l 750 897 l 165 61 l 761 61 l 761 0 l 81 0 z "},"Ź":{"ha":833,"x_min":81,"x_max":760,"o":"m 81 0 l 81 58 l 667 894 l 96 894 l 96 956 l 750 956 l 750 897 l 165 61 l 761 61 l 761 0 l 81 0 m 385 1039 l 385 1046 l 531 1232 l 608 1232 l 608 1225 l 433 1039 l 385 1039 z "},"Ž":{"ha":835,"x_min":81,"x_max":760,"o":"m 81 0 l 81 58 l 667 894 l 96 894 l 96 956 l 750 956 l 750 897 l 165 61 l 761 61 l 761 0 l 81 0 m 388 1040 l 240 1226 l 240 1233 l 288 1233 l 425 1088 l 564 1233 l 611 1233 l 611 1226 l 464 1040 l 388 1040 z "},"Ż":{"ha":833,"x_min":81,"x_max":760,"o":"m 81 0 l 81 58 l 667 894 l 96 894 l 96 956 l 750 956 l 750 897 l 165 61 l 761 61 l 761 0 l 81 0 m 382 1124 l 382 1215 l 453 1215 l 453 1124 l 382 1124 z "},"Ẓ":{"ha":833,"x_min":81,"x_max":760,"o":"m 81 0 l 81 58 l 667 894 l 96 894 l 96 956 l 750 956 l 750 897 l 165 61 l 761 61 l 761 0 l 81 0 m 378 -187 l 378 -86 l 460 -86 l 460 -187 l 378 -187 z "},"a":{"ha":794,"x_min":88,"x_max":660,"o":"m 338 -11 q 194 6 247 -11 q 114 66 140 22 q 88 193 88 110 q 106 316 88 272 q 169 378 125 360 q 297 397 214 397 q 596 390 343 397 l 596 449 q 578 593 596 550 q 515 649 561 636 q 358 661 468 661 q 241 656 308 661 q 136 644 174 651 l 136 703 q 383 719 236 719 q 560 697 503 719 q 639 620 618 675 q 660 456 660 565 l 660 0 l 607 0 l 603 111 l 596 111 q 501 13 569 38 q 338 -11 432 -11 m 346 46 q 487 61 432 46 q 564 125 542 76 q 589 201 582 163 q 596 292 596 240 l 596 343 l 315 343 q 210 333 244 343 q 163 291 176 322 q 150 194 150 260 q 166 101 150 132 q 222 58 182 69 q 346 46 263 46 z "},"á":{"ha":794,"x_min":88,"x_max":660,"o":"m 338 -11 q 194 6 247 -11 q 114 66 140 22 q 88 193 88 110 q 106 316 88 272 q 169 378 125 360 q 297 397 214 397 q 596 390 343 397 l 596 449 q 578 593 596 550 q 515 649 561 636 q 358 661 468 661 q 241 656 308 661 q 136 644 174 651 l 136 703 q 383 719 236 719 q 560 697 503 719 q 639 620 618 675 q 660 456 660 565 l 660 0 l 607 0 l 603 111 l 596 111 q 501 13 569 38 q 338 -11 432 -11 m 346 46 q 487 61 432 46 q 564 125 542 76 q 589 201 582 163 q 596 292 596 240 l 596 343 l 315 343 q 210 333 244 343 q 163 291 176 322 q 150 194 150 260 q 166 101 150 132 q 222 58 182 69 q 346 46 263 46 m 349 839 l 349 846 l 494 1032 l 572 1032 l 572 1025 l 397 839 l 349 839 z "},"ă":{"ha":793,"x_min":88,"x_max":660,"o":"m 338 -11 q 194 6 247 -11 q 114 66 140 22 q 88 193 88 110 q 106 316 88 272 q 169 378 125 360 q 297 397 214 397 q 596 390 343 397 l 596 449 q 578 593 596 550 q 515 649 561 636 q 358 661 468 661 q 241 656 308 661 q 136 644 174 651 l 136 703 q 383 719 236 719 q 560 697 503 719 q 639 620 618 675 q 660 456 660 565 l 660 0 l 607 0 l 603 111 l 596 111 q 501 13 569 38 q 338 -11 432 -11 m 346 46 q 487 61 432 46 q 564 125 542 76 q 589 201 582 163 q 596 292 596 240 l 596 343 l 315 343 q 210 333 244 343 q 163 291 176 322 q 150 194 150 260 q 166 101 150 132 q 222 58 182 69 q 346 46 263 46 m 578 1031 q 568 920 578 960 q 519 857 558 881 q 396 833 481 833 q 272 857 311 833 q 224 919 233 881 q 215 1031 215 958 l 265 1031 q 272 942 265 971 q 306 897 278 913 q 396 881 333 881 q 486 897 458 881 q 521 942 514 913 q 528 1031 528 971 l 578 1031 z "},"ắ":{"ha":793,"x_min":88,"x_max":660,"o":"m 360 1076 l 360 1083 l 506 1269 l 583 1269 l 583 1263 l 408 1076 l 360 1076 m 569 1029 q 560 919 569 958 q 511 856 550 879 q 389 832 472 832 q 265 856 304 832 q 217 918 226 879 q 208 1029 208 957 l 258 1029 q 265 940 258 969 q 299 895 271 911 q 389 879 326 879 q 479 895 451 879 q 514 940 507 911 q 521 1029 521 969 l 569 1029 m 338 -11 q 194 6 247 -11 q 114 66 140 22 q 88 193 88 110 q 106 316 88 272 q 169 378 125 360 q 297 397 214 397 q 596 390 343 397 l 596 449 q 578 593 596 550 q 515 649 561 636 q 358 661 468 661 q 241 656 308 661 q 136 644 174 651 l 136 703 q 383 718 243 718 q 560 696 503 718 q 639 619 618 674 q 660 456 660 565 l 660 0 l 607 0 l 603 111 l 596 111 q 501 13 569 38 q 338 -11 432 -11 m 346 46 q 487 61 432 46 q 564 125 542 76 q 589 201 582 163 q 596 292 596 240 l 596 343 l 315 343 q 210 333 244 343 q 163 291 176 322 q 150 194 150 260 q 166 101 150 132 q 222 58 182 69 q 346 46 263 46 z "},"ặ":{"ha":793,"x_min":88,"x_max":660,"o":"m 338 -11 q 194 6 247 -11 q 114 66 140 22 q 88 193 88 110 q 106 316 88 272 q 169 378 125 360 q 297 397 214 397 q 596 390 343 397 l 596 449 q 578 593 596 550 q 515 649 561 636 q 358 661 468 661 q 241 656 308 661 q 136 644 174 651 l 136 703 q 383 719 236 719 q 560 697 503 719 q 639 620 618 675 q 660 456 660 565 l 660 0 l 607 0 l 603 111 l 596 111 q 501 13 569 38 q 338 -11 432 -11 m 346 46 q 487 61 432 46 q 564 125 542 76 q 589 201 582 163 q 596 292 596 240 l 596 343 l 315 343 q 210 333 244 343 q 163 291 176 322 q 150 194 150 260 q 166 101 150 132 q 222 58 182 69 q 346 46 263 46 m 357 -187 l 357 -86 l 439 -86 l 439 -187 l 357 -187 m 578 1031 q 568 920 578 960 q 519 857 558 881 q 396 833 481 833 q 272 857 311 833 q 224 919 233 881 q 215 1031 215 958 l 265 1031 q 272 942 265 971 q 306 897 278 913 q 396 881 333 881 q 486 897 458 881 q 521 942 514 913 q 528 1031 528 971 l 578 1031 z "},"ằ":{"ha":793,"x_min":88,"x_max":660,"o":"m 394 1076 l 219 1263 l 219 1269 l 297 1269 l 443 1083 l 443 1076 l 394 1076 m 578 1029 q 568 919 578 958 q 519 856 558 879 q 397 832 481 832 q 274 856 313 832 q 226 918 235 879 q 217 1029 217 957 l 267 1029 q 273 940 267 969 q 307 895 279 911 q 397 879 335 879 q 488 895 460 879 q 522 940 515 911 q 529 1029 529 969 l 578 1029 m 338 -11 q 194 6 247 -11 q 114 66 140 22 q 88 193 88 110 q 106 316 88 272 q 169 378 125 360 q 297 397 214 397 q 596 390 343 397 l 596 449 q 578 593 596 550 q 515 649 561 636 q 358 661 468 661 q 241 656 308 661 q 136 644 174 651 l 136 703 q 383 718 243 718 q 560 696 503 718 q 639 619 618 674 q 660 456 660 565 l 660 0 l 607 0 l 603 111 l 596 111 q 501 13 569 38 q 338 -11 432 -11 m 346 46 q 487 61 432 46 q 564 125 542 76 q 589 201 582 163 q 596 292 596 240 l 596 343 l 315 343 q 210 333 244 343 q 163 291 176 322 q 150 194 150 260 q 166 101 150 132 q 222 58 182 69 q 346 46 263 46 z "},"ẳ":{"ha":793,"x_min":88,"x_max":660,"o":"m 338 1046 q 349 1091 338 1078 q 396 1115 361 1104 l 432 1124 q 485 1141 469 1133 q 507 1159 501 1149 q 513 1189 513 1169 q 501 1227 513 1215 q 465 1242 489 1239 q 390 1244 442 1244 q 235 1239 308 1244 l 235 1281 q 389 1289 301 1289 q 493 1283 457 1289 q 547 1256 529 1276 q 564 1194 564 1236 q 549 1130 564 1150 q 483 1096 535 1110 l 444 1085 q 401 1071 413 1076 q 386 1058 389 1065 q 383 1031 383 1050 l 338 1031 l 338 1046 m 576 1029 q 567 919 576 958 q 518 856 557 879 q 396 832 479 832 q 272 856 311 832 q 224 918 233 879 q 215 1029 215 957 l 265 1029 q 272 940 265 969 q 306 895 278 911 q 396 879 333 879 q 486 895 458 879 q 521 940 514 911 q 528 1029 528 969 l 576 1029 m 338 -11 q 194 6 247 -11 q 114 66 140 22 q 88 193 88 110 q 106 316 88 272 q 169 378 125 360 q 297 397 214 397 q 596 390 343 397 l 596 449 q 578 593 596 550 q 515 649 561 636 q 358 661 468 661 q 241 656 308 661 q 136 644 174 651 l 136 703 q 383 718 243 718 q 560 696 503 718 q 639 619 618 674 q 660 456 660 565 l 660 0 l 607 0 l 603 111 l 596 111 q 501 13 569 38 q 338 -11 432 -11 m 346 46 q 487 61 432 46 q 564 125 542 76 q 589 201 582 163 q 596 292 596 240 l 596 343 l 315 343 q 210 333 244 343 q 163 291 176 322 q 150 194 150 260 q 166 101 150 132 q 222 58 182 69 q 346 46 263 46 z "},"ẵ":{"ha":793,"x_min":88,"x_max":660,"o":"m 636 1269 q 619 1160 636 1190 q 546 1131 601 1131 q 480 1138 513 1131 q 419 1156 447 1146 q 382 1168 390 1165 q 308 1191 339 1183 q 247 1199 276 1199 q 209 1181 218 1199 q 200 1115 200 1164 l 156 1115 q 173 1224 156 1194 q 246 1254 190 1254 q 321 1244 283 1254 q 411 1217 358 1235 q 448 1205 419 1214 q 501 1191 476 1196 q 544 1186 525 1186 q 583 1203 575 1186 q 592 1269 592 1221 l 636 1269 m 574 1029 q 564 919 574 958 q 515 856 554 879 q 393 832 476 832 q 269 856 308 832 q 222 918 231 879 q 213 1029 213 957 l 263 1029 q 269 940 263 969 q 303 895 275 911 q 393 879 331 879 q 483 895 456 879 q 518 940 511 911 q 525 1029 525 969 l 574 1029 m 338 -11 q 194 6 247 -11 q 114 66 140 22 q 88 193 88 110 q 106 316 88 272 q 169 378 125 360 q 297 397 214 397 q 596 390 343 397 l 596 449 q 578 593 596 550 q 515 649 561 636 q 358 661 468 661 q 241 656 308 661 q 136 644 174 651 l 136 703 q 383 718 243 718 q 560 696 503 718 q 639 619 618 674 q 660 456 660 565 l 660 0 l 607 0 l 603 111 l 596 111 q 501 13 569 38 q 338 -11 432 -11 m 346 46 q 487 61 432 46 q 564 125 542 76 q 589 201 582 163 q 596 292 596 240 l 596 343 l 315 343 q 210 333 244 343 q 163 291 176 322 q 150 194 150 260 q 166 101 150 132 q 222 58 182 69 q 346 46 263 46 z "},"ǎ":{"ha":793,"x_min":88,"x_max":660,"o":"m 338 -11 q 194 6 247 -11 q 114 66 140 22 q 88 193 88 110 q 106 316 88 272 q 169 378 125 360 q 297 397 214 397 q 596 390 343 397 l 596 449 q 578 593 596 550 q 515 649 561 636 q 358 661 468 661 q 241 656 308 661 q 136 644 174 651 l 136 703 q 383 719 236 719 q 560 697 503 719 q 639 620 618 675 q 660 456 660 565 l 660 0 l 607 0 l 603 111 l 596 111 q 501 13 569 38 q 338 -11 432 -11 m 346 46 q 487 61 432 46 q 564 125 542 76 q 589 201 582 163 q 596 292 596 240 l 596 343 l 315 343 q 210 333 244 343 q 163 291 176 322 q 150 194 150 260 q 166 101 150 132 q 222 58 182 69 q 346 46 263 46 m 360 838 l 213 1024 l 213 1031 l 260 1031 l 397 885 l 536 1031 l 583 1031 l 583 1024 l 436 838 l 360 838 z "},"â":{"ha":794,"x_min":88,"x_max":660,"o":"m 338 -11 q 194 6 247 -11 q 114 66 140 22 q 88 193 88 110 q 106 316 88 272 q 169 378 125 360 q 297 397 214 397 q 596 390 343 397 l 596 449 q 578 593 596 550 q 515 649 561 636 q 358 661 468 661 q 241 656 308 661 q 136 644 174 651 l 136 703 q 383 719 236 719 q 560 697 503 719 q 639 620 618 675 q 660 456 660 565 l 660 0 l 607 0 l 603 111 l 596 111 q 501 13 569 38 q 338 -11 432 -11 m 346 46 q 487 61 432 46 q 564 125 542 76 q 589 201 582 163 q 596 292 596 240 l 596 343 l 315 343 q 210 333 244 343 q 163 291 176 322 q 150 194 150 260 q 166 101 150 132 q 222 58 182 69 q 346 46 263 46 m 217 839 l 217 846 l 364 1032 l 440 1032 l 588 846 l 588 839 l 540 839 l 401 985 l 264 839 l 217 839 z "},"ấ":{"ha":793,"x_min":88,"x_max":715,"o":"m 492 1035 l 492 1042 l 638 1228 l 715 1228 l 715 1221 l 540 1035 l 492 1035 m 207 836 l 207 843 l 354 1029 l 429 1029 l 576 843 l 576 836 l 529 836 l 392 982 l 254 836 l 207 836 m 338 -11 q 194 6 247 -11 q 114 66 140 22 q 88 193 88 110 q 106 316 88 272 q 169 378 125 360 q 297 397 214 397 q 596 390 343 397 l 596 449 q 578 593 596 550 q 515 649 561 636 q 358 661 468 661 q 241 656 308 661 q 136 644 174 651 l 136 703 q 383 718 243 718 q 560 696 503 718 q 639 619 618 674 q 660 456 660 565 l 660 0 l 607 0 l 603 111 l 596 111 q 501 13 569 38 q 338 -11 432 -11 m 346 46 q 487 61 432 46 q 564 125 542 76 q 589 201 582 163 q 596 292 596 240 l 596 343 l 315 343 q 210 333 244 343 q 163 291 176 322 q 150 194 150 260 q 166 101 150 132 q 222 58 182 69 q 346 46 263 46 z "},"ậ":{"ha":793,"x_min":88,"x_max":660,"o":"m 338 -11 q 194 6 247 -11 q 114 66 140 22 q 88 193 88 110 q 106 316 88 272 q 169 378 125 360 q 297 397 214 397 q 596 390 343 397 l 596 449 q 578 593 596 550 q 515 649 561 636 q 358 661 468 661 q 241 656 308 661 q 136 644 174 651 l 136 703 q 383 719 236 719 q 560 697 503 719 q 639 620 618 675 q 660 456 660 565 l 660 0 l 607 0 l 603 111 l 596 111 q 501 13 569 38 q 338 -11 432 -11 m 346 46 q 487 61 432 46 q 564 125 542 76 q 589 201 582 163 q 596 292 596 240 l 596 343 l 315 343 q 210 333 244 343 q 163 291 176 322 q 150 194 150 260 q 166 101 150 132 q 222 58 182 69 q 346 46 263 46 m 357 -187 l 357 -86 l 439 -86 l 439 -187 l 357 -187 m 213 838 l 213 844 l 360 1031 l 436 1031 l 583 844 l 583 838 l 536 838 l 397 983 l 260 838 l 213 838 z "},"ầ":{"ha":793,"x_min":88,"x_max":660,"o":"m 539 1035 l 364 1221 l 364 1228 l 442 1228 l 588 1042 l 588 1035 l 539 1035 m 204 836 l 204 843 l 351 1029 l 428 1029 l 574 843 l 574 836 l 528 836 l 389 982 l 251 836 l 204 836 m 338 -11 q 194 6 247 -11 q 114 66 140 22 q 88 193 88 110 q 106 316 88 272 q 169 378 125 360 q 297 397 214 397 q 596 390 343 397 l 596 449 q 578 593 596 550 q 515 649 561 636 q 358 661 468 661 q 241 656 308 661 q 136 644 174 651 l 136 703 q 383 718 243 718 q 560 696 503 718 q 639 619 618 674 q 660 456 660 565 l 660 0 l 607 0 l 603 111 l 596 111 q 501 13 569 38 q 338 -11 432 -11 m 346 46 q 487 61 432 46 q 564 125 542 76 q 589 201 582 163 q 596 292 596 240 l 596 343 l 315 343 q 210 333 244 343 q 163 291 176 322 q 150 194 150 260 q 166 101 150 132 q 222 58 182 69 q 346 46 263 46 z "},"ẩ":{"ha":793,"x_min":88,"x_max":686,"o":"m 460 1049 q 472 1094 460 1081 q 518 1118 483 1107 l 554 1126 q 608 1144 592 1136 q 629 1162 624 1151 q 635 1192 635 1172 q 623 1230 635 1218 q 588 1244 611 1242 q 513 1247 564 1247 q 357 1242 431 1247 l 357 1283 q 511 1292 424 1292 q 615 1285 579 1292 q 669 1259 651 1279 q 686 1197 686 1239 q 672 1133 686 1153 q 606 1099 657 1113 l 567 1088 q 523 1074 535 1079 q 508 1060 511 1068 q 506 1033 506 1053 l 460 1033 l 460 1049 m 213 836 l 213 843 l 360 1029 l 436 1029 l 582 843 l 582 836 l 536 836 l 397 982 l 260 836 l 213 836 m 338 -11 q 194 6 247 -11 q 114 66 140 22 q 88 193 88 110 q 106 316 88 272 q 169 378 125 360 q 297 397 214 397 q 596 390 343 397 l 596 449 q 578 593 596 550 q 515 649 561 636 q 358 661 468 661 q 241 656 308 661 q 136 644 174 651 l 136 703 q 383 718 243 718 q 560 696 503 718 q 639 619 618 674 q 660 456 660 565 l 660 0 l 607 0 l 603 111 l 596 111 q 501 13 569 38 q 338 -11 432 -11 m 346 46 q 487 61 432 46 q 564 125 542 76 q 589 201 582 163 q 596 292 596 240 l 596 343 l 315 343 q 210 333 244 343 q 163 291 176 322 q 150 194 150 260 q 166 101 150 132 q 222 58 182 69 q 346 46 263 46 z "},"ẫ":{"ha":793,"x_min":88,"x_max":660,"o":"m 636 1269 q 619 1160 636 1190 q 546 1131 601 1131 q 480 1138 513 1131 q 419 1156 447 1146 q 382 1168 390 1165 q 308 1191 339 1183 q 247 1199 276 1199 q 209 1181 218 1199 q 200 1115 200 1164 l 156 1115 q 173 1224 156 1194 q 246 1254 190 1254 q 321 1244 283 1254 q 411 1217 358 1235 q 448 1205 419 1214 q 501 1191 476 1196 q 544 1186 525 1186 q 583 1203 575 1186 q 592 1269 592 1221 l 636 1269 m 210 836 l 210 843 l 357 1029 l 433 1029 l 579 843 l 579 836 l 533 836 l 394 982 l 257 836 l 210 836 m 338 -11 q 194 6 247 -11 q 114 66 140 22 q 88 193 88 110 q 106 316 88 272 q 169 378 125 360 q 297 397 214 397 q 596 390 343 397 l 596 449 q 578 593 596 550 q 515 649 561 636 q 358 661 468 661 q 241 656 308 661 q 136 644 174 651 l 136 703 q 383 718 243 718 q 560 696 503 718 q 639 619 618 674 q 660 456 660 565 l 660 0 l 607 0 l 603 111 l 596 111 q 501 13 569 38 q 338 -11 432 -11 m 346 46 q 487 61 432 46 q 564 125 542 76 q 589 201 582 163 q 596 292 596 240 l 596 343 l 315 343 q 210 333 244 343 q 163 291 176 322 q 150 194 150 260 q 166 101 150 132 q 222 58 182 69 q 346 46 263 46 z "},"ȁ":{"ha":793,"x_min":83,"x_max":660,"o":"m 338 -11 q 194 6 247 -11 q 114 66 140 22 q 88 193 88 110 q 106 316 88 272 q 169 378 125 360 q 297 397 214 397 q 596 390 343 397 l 596 449 q 578 593 596 550 q 515 649 561 636 q 358 661 468 661 q 241 656 308 661 q 136 644 174 651 l 136 703 q 383 719 236 719 q 560 697 503 719 q 639 620 618 675 q 660 456 660 565 l 660 0 l 607 0 l 603 111 l 596 111 q 501 13 569 38 q 338 -11 432 -11 m 346 46 q 487 61 432 46 q 564 125 542 76 q 589 201 582 163 q 596 292 596 240 l 596 343 l 315 343 q 210 333 244 343 q 163 291 176 322 q 150 194 150 260 q 166 101 150 132 q 222 58 182 69 q 346 46 263 46 m 303 839 l 257 839 l 83 1022 l 83 1029 l 157 1029 l 303 846 l 303 839 m 569 839 l 524 839 l 350 1022 l 350 1029 l 425 1029 l 569 846 l 569 839 z "},"ä":{"ha":794,"x_min":88,"x_max":660,"o":"m 338 -11 q 194 6 247 -11 q 114 66 140 22 q 88 193 88 110 q 106 316 88 272 q 169 378 125 360 q 297 397 214 397 q 596 390 343 397 l 596 449 q 578 593 596 550 q 515 649 561 636 q 358 661 468 661 q 241 656 308 661 q 136 644 174 651 l 136 703 q 383 719 236 719 q 560 697 503 719 q 639 620 618 675 q 660 456 660 565 l 660 0 l 607 0 l 603 111 l 596 111 q 501 13 569 38 q 338 -11 432 -11 m 346 46 q 487 61 432 46 q 564 125 542 76 q 589 201 582 163 q 596 292 596 240 l 596 343 l 315 343 q 210 333 244 343 q 163 291 176 322 q 150 194 150 260 q 166 101 150 132 q 222 58 182 69 q 346 46 263 46 m 240 924 l 240 1015 l 311 1015 l 311 924 l 240 924 m 493 924 l 493 1015 l 564 1015 l 564 924 l 493 924 z "},"ạ":{"ha":793,"x_min":88,"x_max":660,"o":"m 338 -11 q 194 6 247 -11 q 114 66 140 22 q 88 193 88 110 q 106 316 88 272 q 169 378 125 360 q 297 397 214 397 q 596 390 343 397 l 596 449 q 578 593 596 550 q 515 649 561 636 q 358 661 468 661 q 241 656 308 661 q 136 644 174 651 l 136 703 q 383 719 236 719 q 560 697 503 719 q 639 620 618 675 q 660 456 660 565 l 660 0 l 607 0 l 603 111 l 596 111 q 501 13 569 38 q 338 -11 432 -11 m 346 46 q 487 61 432 46 q 564 125 542 76 q 589 201 582 163 q 596 292 596 240 l 596 343 l 315 343 q 210 333 244 343 q 163 291 176 322 q 150 194 150 260 q 166 101 150 132 q 222 58 182 69 q 346 46 263 46 m 357 -187 l 357 -86 l 439 -86 l 439 -187 l 357 -187 z "},"à":{"ha":794,"x_min":88,"x_max":660,"o":"m 338 -11 q 194 6 247 -11 q 114 66 140 22 q 88 193 88 110 q 106 316 88 272 q 169 378 125 360 q 297 397 214 397 q 596 390 343 397 l 596 449 q 578 593 596 550 q 515 649 561 636 q 358 661 468 661 q 241 656 308 661 q 136 644 174 651 l 136 703 q 383 719 236 719 q 560 697 503 719 q 639 620 618 675 q 660 456 660 565 l 660 0 l 607 0 l 603 111 l 596 111 q 501 13 569 38 q 338 -11 432 -11 m 346 46 q 487 61 432 46 q 564 125 542 76 q 589 201 582 163 q 596 292 596 240 l 596 343 l 315 343 q 210 333 244 343 q 163 291 176 322 q 150 194 150 260 q 166 101 150 132 q 222 58 182 69 q 346 46 263 46 m 413 839 l 238 1025 l 238 1032 l 315 1032 l 461 846 l 461 839 l 413 839 z "},"ả":{"ha":793,"x_min":88,"x_max":660,"o":"m 338 -11 q 194 6 247 -11 q 114 66 140 22 q 88 193 88 110 q 106 316 88 272 q 169 378 125 360 q 297 397 214 397 q 596 390 343 397 l 596 449 q 578 593 596 550 q 515 649 561 636 q 358 661 468 661 q 241 656 308 661 q 136 644 174 651 l 136 703 q 383 719 236 719 q 560 697 503 719 q 639 620 618 675 q 660 456 660 565 l 660 0 l 607 0 l 603 111 l 596 111 q 501 13 569 38 q 338 -11 432 -11 m 346 46 q 487 61 432 46 q 564 125 542 76 q 589 201 582 163 q 596 292 596 240 l 596 343 l 315 343 q 210 333 244 343 q 163 291 176 322 q 150 194 150 260 q 166 101 150 132 q 222 58 182 69 q 346 46 263 46 m 335 857 q 347 902 335 889 q 393 926 358 915 l 429 935 q 483 952 467 944 q 504 970 499 960 q 510 1000 510 981 q 498 1040 510 1028 q 462 1054 486 1051 q 386 1057 438 1057 q 232 1050 325 1057 l 232 1093 q 386 1101 299 1101 q 491 1094 454 1101 q 545 1067 528 1088 q 563 1006 563 1047 q 547 941 563 961 q 481 907 532 921 l 442 896 q 398 882 410 888 q 383 869 386 876 q 381 842 381 861 l 335 842 l 335 857 z "},"ȃ":{"ha":793,"x_min":88,"x_max":660,"o":"m 338 -11 q 194 6 247 -11 q 114 66 140 22 q 88 193 88 110 q 106 316 88 272 q 169 378 125 360 q 297 397 214 397 q 596 390 343 397 l 596 449 q 578 593 596 550 q 515 649 561 636 q 358 661 468 661 q 241 656 308 661 q 136 644 174 651 l 136 703 q 383 719 236 719 q 560 697 503 719 q 639 620 618 675 q 660 456 660 565 l 660 0 l 607 0 l 603 111 l 596 111 q 501 13 569 38 q 338 -11 432 -11 m 346 46 q 487 61 432 46 q 564 125 542 76 q 589 201 582 163 q 596 292 596 240 l 596 343 l 315 343 q 210 333 244 343 q 163 291 176 322 q 150 194 150 260 q 166 101 150 132 q 222 58 182 69 q 346 46 263 46 m 215 844 q 225 955 215 915 q 274 1018 235 994 q 397 1042 313 1042 q 521 1018 482 1042 q 569 956 560 994 q 578 844 578 917 l 528 844 q 522 933 528 904 q 488 978 515 963 q 397 994 460 994 q 307 978 335 994 q 272 933 279 963 q 265 844 265 904 l 215 844 z "},"ā":{"ha":793,"x_min":88,"x_max":660,"o":"m 338 -11 q 194 6 247 -11 q 114 66 140 22 q 88 193 88 110 q 106 316 88 272 q 169 378 125 360 q 297 397 214 397 q 596 390 343 397 l 596 449 q 578 593 596 550 q 515 649 561 636 q 358 661 468 661 q 241 656 308 661 q 136 644 174 651 l 136 703 q 383 719 236 719 q 560 697 503 719 q 639 620 618 675 q 660 456 660 565 l 660 0 l 607 0 l 603 111 l 596 111 q 501 13 569 38 q 338 -11 432 -11 m 346 46 q 487 61 432 46 q 564 125 542 76 q 589 201 582 163 q 596 292 596 240 l 596 343 l 315 343 q 210 333 244 343 q 163 291 176 322 q 150 194 150 260 q 166 101 150 132 q 222 58 182 69 q 346 46 263 46 m 238 965 l 238 1029 l 556 1029 l 556 965 l 238 965 z "},"ą":{"ha":794,"x_min":88,"x_max":665,"o":"m 642 -219 q 665 -218 654 -219 l 665 -271 q 629 -272 650 -272 q 544 -244 571 -272 q 517 -174 517 -217 q 542 -82 517 -129 q 607 4 567 -35 l 603 111 l 596 111 q 501 13 569 38 q 338 -11 432 -11 q 194 6 247 -11 q 114 66 140 22 q 88 193 88 110 q 106 316 88 272 q 169 378 125 360 q 297 397 214 397 q 596 390 343 397 l 596 449 q 578 593 596 550 q 515 649 561 636 q 358 661 468 661 q 241 656 308 661 q 136 644 174 651 l 136 703 q 383 719 236 719 q 560 697 503 719 q 639 620 618 675 q 660 456 660 565 l 660 0 q 603 -72 631 -24 q 576 -160 576 -119 q 642 -219 576 -219 m 596 343 l 315 343 q 210 333 244 343 q 163 291 176 322 q 150 194 150 260 q 166 101 150 132 q 222 58 182 69 q 346 46 263 46 q 487 61 432 46 q 564 125 542 76 q 589 201 582 163 q 596 292 596 240 l 596 343 z "},"å":{"ha":794,"x_min":88,"x_max":660,"o":"m 338 -11 q 194 6 247 -11 q 114 66 140 22 q 88 193 88 110 q 106 316 88 272 q 169 378 125 360 q 297 397 214 397 q 596 390 343 397 l 596 449 q 578 593 596 550 q 515 649 561 636 q 358 661 468 661 q 241 656 308 661 q 136 644 174 651 l 136 703 q 383 719 236 719 q 560 697 503 719 q 639 620 618 675 q 660 456 660 565 l 660 0 l 607 0 l 603 111 l 596 111 q 501 13 569 38 q 338 -11 432 -11 m 346 46 q 487 61 432 46 q 564 125 542 76 q 589 201 582 163 q 596 292 596 240 l 596 343 l 315 343 q 210 333 244 343 q 163 291 176 322 q 150 194 150 260 q 166 101 150 132 q 222 58 182 69 q 346 46 263 46 m 396 844 q 288 857 321 844 q 245 895 254 869 q 236 978 236 921 q 245 1060 236 1033 q 288 1100 254 1088 q 396 1113 321 1113 q 505 1100 471 1113 q 548 1060 539 1088 q 557 978 557 1033 q 548 895 557 921 q 505 857 539 869 q 396 844 471 844 m 396 889 q 472 897 450 889 q 500 921 494 904 q 506 978 506 938 q 500 1035 506 1018 q 472 1060 494 1053 q 396 1068 450 1068 q 321 1060 343 1068 q 293 1035 299 1053 q 288 978 288 1018 q 293 921 288 938 q 320 897 299 904 q 396 889 342 889 z "},"ǻ":{"ha":793,"x_min":88,"x_max":660,"o":"m 338 -11 q 194 6 247 -11 q 114 66 140 22 q 88 193 88 110 q 106 316 88 272 q 169 378 125 360 q 297 397 214 397 q 596 390 343 397 l 596 449 q 578 593 596 550 q 515 649 561 636 q 358 661 468 661 q 241 656 308 661 q 136 644 174 651 l 136 703 q 383 719 236 719 q 560 697 503 719 q 639 620 618 675 q 660 456 660 565 l 660 0 l 607 0 l 603 111 l 596 111 q 501 13 569 38 q 338 -11 432 -11 m 346 46 q 487 61 432 46 q 564 125 542 76 q 589 201 582 163 q 596 292 596 240 l 596 343 l 315 343 q 210 333 244 343 q 163 291 176 322 q 150 194 150 260 q 166 101 150 132 q 222 58 182 69 q 346 46 263 46 m 396 846 q 288 858 321 846 q 245 897 254 871 q 236 979 236 922 q 245 1062 236 1035 q 288 1101 254 1089 q 396 1114 321 1114 q 505 1101 471 1114 q 548 1062 539 1089 q 557 979 557 1035 q 548 897 557 922 q 505 858 539 871 q 396 846 471 846 m 396 890 q 472 898 450 890 q 500 922 494 906 q 506 979 506 939 q 500 1037 506 1019 q 472 1062 494 1054 q 396 1069 450 1069 q 321 1062 343 1069 q 293 1037 299 1054 q 288 979 288 1019 q 293 922 288 939 q 320 898 299 906 q 396 890 342 890 m 369 1161 l 369 1168 l 515 1354 l 593 1354 l 593 1347 l 418 1161 l 369 1161 z "},"ã":{"ha":794,"x_min":88,"x_max":660,"o":"m 338 -11 q 194 6 247 -11 q 114 66 140 22 q 88 193 88 110 q 106 316 88 272 q 169 378 125 360 q 297 397 214 397 q 596 390 343 397 l 596 449 q 578 593 596 550 q 515 649 561 636 q 358 661 468 661 q 241 656 308 661 q 136 644 174 651 l 136 703 q 383 719 236 719 q 560 697 503 719 q 639 620 618 675 q 660 456 660 565 l 660 0 l 607 0 l 603 111 l 596 111 q 501 13 569 38 q 338 -11 432 -11 m 346 46 q 487 61 432 46 q 564 125 542 76 q 589 201 582 163 q 596 292 596 240 l 596 343 l 315 343 q 210 333 244 343 q 163 291 176 322 q 150 194 150 260 q 166 101 150 132 q 222 58 182 69 q 346 46 263 46 m 638 1032 q 620 923 638 953 q 547 893 603 893 q 478 901 511 893 q 382 931 444 910 q 308 953 339 946 q 247 961 276 961 q 209 944 218 961 q 200 878 200 926 l 156 878 q 173 987 156 957 q 246 1017 190 1017 q 321 1007 283 1017 q 411 979 358 997 q 447 967 418 976 q 501 953 476 958 q 546 949 526 949 q 585 966 576 949 q 593 1032 593 983 l 638 1032 z "},"æ":{"ha":1275,"x_min":88,"x_max":1174,"o":"m 1174 338 l 661 338 q 677 151 661 210 q 744 69 693 93 q 911 46 796 46 q 1031 51 965 46 q 1146 65 1097 57 l 1146 7 q 1037 -6 1106 -1 q 901 -11 968 -11 q 709 17 771 -11 q 622 121 647 46 q 517 14 588 39 q 340 -11 446 -11 q 194 6 249 -11 q 114 67 140 22 q 88 193 88 111 q 106 313 88 271 q 169 374 125 356 q 297 392 214 392 l 596 392 l 596 449 q 578 593 596 550 q 515 649 561 636 q 358 661 468 661 q 241 656 308 661 q 136 644 174 651 l 136 703 q 383 719 233 719 q 553 699 496 719 q 633 625 611 678 q 723 698 661 676 q 903 719 785 719 q 1087 688 1031 719 q 1158 585 1143 656 q 1174 360 1174 515 l 1174 338 m 899 663 q 740 643 788 663 q 676 569 692 624 q 661 390 661 515 l 1111 390 l 1111 411 q 1093 577 1111 525 q 1032 646 1075 629 q 899 663 989 663 m 596 338 l 315 338 q 210 328 244 338 q 163 288 176 318 q 150 194 150 258 q 166 101 150 132 q 222 58 182 69 q 346 46 263 46 q 487 62 432 46 q 567 129 542 78 q 590 203 583 165 q 596 292 596 240 l 596 338 z "},"ǽ":{"ha":1274,"x_min":88,"x_max":1172,"o":"m 1174 338 l 661 338 q 677 151 661 210 q 744 69 693 93 q 911 46 796 46 q 1031 51 965 46 q 1146 65 1097 57 l 1146 7 q 1037 -6 1106 -1 q 901 -11 968 -11 q 709 17 771 -11 q 622 121 647 46 q 517 14 588 39 q 340 -11 446 -11 q 194 6 249 -11 q 114 67 140 22 q 88 193 88 111 q 106 313 88 271 q 169 374 125 356 q 297 392 214 392 l 596 392 l 596 449 q 578 593 596 550 q 515 649 561 636 q 358 661 468 661 q 241 656 308 661 q 136 644 174 651 l 136 703 q 383 719 233 719 q 553 699 496 719 q 633 625 611 678 q 723 698 661 676 q 903 719 785 719 q 1087 688 1031 719 q 1158 585 1143 656 q 1174 360 1174 515 l 1174 338 m 899 663 q 740 643 788 663 q 676 569 692 624 q 661 390 661 515 l 1111 390 l 1111 411 q 1093 577 1111 525 q 1032 646 1075 629 q 899 663 989 663 m 596 338 l 315 338 q 210 328 244 338 q 163 288 176 318 q 150 194 150 258 q 166 101 150 132 q 222 58 182 69 q 346 46 263 46 q 487 62 432 46 q 567 129 542 78 q 590 203 583 165 q 596 292 596 240 l 596 338 m 607 838 l 607 844 l 753 1031 l 831 1031 l 831 1024 l 656 838 l 607 838 z "},"b":{"ha":825,"x_min":135,"x_max":724,"o":"m 450 -11 q 289 13 353 -11 q 199 111 225 38 l 192 111 l 188 0 l 135 0 l 135 1032 l 199 1032 l 199 608 l 204 608 q 289 694 229 668 q 450 719 349 719 q 624 690 567 719 q 702 583 681 660 q 724 354 724 507 q 702 125 724 201 q 624 19 681 49 q 450 -11 567 -11 m 428 47 q 581 68 535 47 q 644 151 628 89 q 660 354 660 213 q 644 556 660 494 q 581 639 628 618 q 428 660 535 660 q 290 636 342 660 q 221 563 239 613 q 203 476 207 522 q 199 354 199 431 q 202 232 199 276 q 219 149 206 188 q 290 72 238 96 q 428 47 342 47 z "},"c":{"ha":636,"x_min":100,"x_max":565,"o":"m 565 6 q 481 -6 532 -1 q 382 -11 429 -11 q 195 24 254 -11 q 118 133 136 60 q 100 353 100 207 q 122 578 100 501 q 202 688 144 656 q 375 719 260 719 q 473 715 422 719 q 558 703 524 710 l 558 646 q 389 661 482 661 q 242 637 289 661 q 180 550 196 613 q 164 356 164 488 q 180 156 164 219 q 243 70 196 93 q 393 47 290 47 q 484 52 436 47 q 565 64 532 57 l 565 6 z "},"ć":{"ha":636,"x_min":100,"x_max":565,"o":"m 565 6 q 481 -6 532 -1 q 382 -11 429 -11 q 195 24 254 -11 q 118 133 136 60 q 100 353 100 207 q 122 578 100 501 q 202 688 144 656 q 375 719 260 719 q 473 715 422 719 q 558 703 524 710 l 558 646 q 389 661 482 661 q 242 637 289 661 q 180 550 196 613 q 164 356 164 488 q 180 156 164 219 q 243 70 196 93 q 393 47 290 47 q 484 52 436 47 q 565 64 532 57 l 565 6 m 288 838 l 288 844 l 433 1031 l 511 1031 l 511 1024 l 336 838 l 288 838 z "},"č":{"ha":636,"x_min":100,"x_max":565,"o":"m 565 6 q 481 -6 532 -1 q 382 -11 429 -11 q 195 24 254 -11 q 118 133 136 60 q 100 353 100 207 q 122 578 100 501 q 202 688 144 656 q 375 719 260 719 q 473 715 422 719 q 558 703 524 710 l 558 646 q 389 661 482 661 q 242 637 289 661 q 180 550 196 613 q 164 356 164 488 q 180 156 164 219 q 243 70 196 93 q 393 47 290 47 q 484 52 436 47 q 565 64 532 57 l 565 6 m 281 838 l 133 1024 l 133 1031 l 181 1031 l 318 885 l 457 1031 l 504 1031 l 504 1024 l 357 838 l 281 838 z "},"ç":{"ha":636,"x_min":100,"x_max":565,"o":"m 393 47 q 484 52 436 47 q 565 64 532 57 l 565 6 q 481 -6 532 -1 q 382 -11 429 -11 q 342 -10 354 -11 l 285 -264 l 215 -264 l 215 -257 l 293 -6 q 166 46 207 6 q 113 156 125 86 q 100 353 100 225 q 122 578 100 501 q 202 686 144 654 q 375 718 260 718 q 558 703 475 718 l 558 646 q 389 661 482 661 q 242 637 289 661 q 180 550 196 613 q 164 356 164 488 q 180 156 164 219 q 243 70 196 93 q 393 47 290 47 z "},"ĉ":{"ha":636,"x_min":100,"x_max":565,"o":"m 565 6 q 481 -6 532 -1 q 382 -11 429 -11 q 195 24 254 -11 q 118 133 136 60 q 100 353 100 207 q 122 578 100 501 q 202 688 144 656 q 375 719 260 719 q 473 715 422 719 q 558 703 524 710 l 558 646 q 389 661 482 661 q 242 637 289 661 q 180 550 196 613 q 164 356 164 488 q 180 156 164 219 q 243 70 196 93 q 393 47 290 47 q 484 52 436 47 q 565 64 532 57 l 565 6 m 133 838 l 133 844 l 281 1031 l 357 1031 l 504 844 l 504 838 l 457 838 l 318 983 l 181 838 l 133 838 z "},"ċ":{"ha":636,"x_min":100,"x_max":565,"o":"m 565 6 q 481 -6 532 -1 q 382 -11 429 -11 q 195 24 254 -11 q 118 133 136 60 q 100 353 100 207 q 122 578 100 501 q 202 688 144 656 q 375 719 260 719 q 473 715 422 719 q 558 703 524 710 l 558 646 q 389 661 482 661 q 242 637 289 661 q 180 550 196 613 q 164 356 164 488 q 180 156 164 219 q 243 70 196 93 q 393 47 290 47 q 484 52 436 47 q 565 64 532 57 l 565 6 m 282 922 l 282 1014 l 353 1014 l 353 922 l 282 922 z "},"d":{"ha":825,"x_min":100,"x_max":690,"o":"m 375 -11 q 201 19 258 -11 q 122 125 143 49 q 100 354 100 201 q 122 583 100 507 q 200 690 143 660 q 375 719 257 719 q 536 694 476 719 q 621 608 596 668 l 626 608 l 626 1032 l 690 1032 l 690 0 l 638 0 l 632 111 l 626 111 q 536 13 600 38 q 375 -11 472 -11 m 396 47 q 536 72 485 47 q 606 147 588 96 q 623 236 619 190 q 626 371 626 282 q 623 474 626 432 q 608 549 619 517 q 536 634 588 608 q 390 660 485 660 q 242 639 288 660 q 180 556 196 618 q 164 354 164 494 q 180 151 164 213 q 243 68 196 89 q 396 47 290 47 z "},"ð":{"ha":804,"x_min":100,"x_max":703,"o":"m 401 -11 q 197 17 258 -11 q 117 117 135 46 q 100 353 100 189 q 117 587 100 515 q 195 689 135 658 q 396 719 256 719 q 596 672 528 719 l 603 676 q 499 883 564 794 l 331 856 l 331 908 l 461 931 q 393 999 424 975 q 360 1026 363 1024 l 360 1032 l 435 1032 q 528 942 492 986 l 669 967 l 669 914 l 563 896 q 641 747 606 832 q 689 578 676 663 q 703 385 703 482 q 688 125 703 200 q 611 19 672 50 q 401 -11 550 -11 m 401 46 q 569 68 522 46 q 628 147 617 90 q 639 353 639 203 q 628 539 639 481 q 567 629 617 597 q 401 661 517 661 q 233 639 281 661 q 175 560 186 617 q 164 353 164 503 q 175 147 164 203 q 233 68 186 90 q 401 46 281 46 z "},"ď":{"ha":824,"x_min":100,"x_max":847,"o":"m 375 -11 q 201 19 258 -11 q 122 125 143 49 q 100 354 100 201 q 122 583 100 507 q 200 690 143 660 q 375 719 257 719 q 536 694 476 719 q 621 608 596 668 l 626 608 l 626 1032 l 690 1032 l 690 0 l 638 0 l 632 111 l 626 111 q 536 13 600 38 q 375 -11 472 -11 m 396 47 q 536 72 485 47 q 606 147 588 96 q 623 236 619 190 q 626 371 626 282 q 623 474 626 432 q 608 549 619 517 q 536 634 588 608 q 390 660 485 660 q 242 639 288 660 q 180 556 196 618 q 164 354 164 494 q 180 151 164 213 q 243 68 196 89 q 396 47 290 47 m 763 626 l 781 836 l 781 956 l 847 956 l 847 836 l 806 626 l 763 626 z "},"đ":{"ha":825,"x_min":100,"x_max":786,"o":"m 786 899 l 690 899 l 690 0 l 638 0 l 632 111 l 626 111 q 536 13 600 38 q 375 -11 472 -11 q 201 19 258 -11 q 122 125 143 49 q 100 354 100 201 q 122 583 100 507 q 200 688 143 658 q 375 718 257 718 q 536 693 476 718 q 621 608 596 668 l 626 608 l 626 899 l 422 899 l 422 956 l 626 956 l 626 1031 l 690 1031 l 690 956 l 786 956 l 786 899 m 606 147 q 623 236 619 190 q 626 371 626 282 q 623 474 626 432 q 608 549 619 517 q 536 634 588 608 q 390 660 485 660 q 242 639 288 660 q 180 556 196 618 q 164 354 164 494 q 180 151 164 213 q 243 68 196 89 q 396 47 290 47 q 536 72 485 47 q 606 147 588 96 z "},"ḍ":{"ha":824,"x_min":100,"x_max":690,"o":"m 375 -11 q 201 19 258 -11 q 122 125 143 49 q 100 354 100 201 q 122 583 100 507 q 200 690 143 660 q 375 719 257 719 q 536 694 476 719 q 621 608 596 668 l 626 608 l 626 1032 l 690 1032 l 690 0 l 638 0 l 632 111 l 626 111 q 536 13 600 38 q 375 -11 472 -11 m 396 47 q 536 72 485 47 q 606 147 588 96 q 623 236 619 190 q 626 371 626 282 q 623 474 626 432 q 608 549 619 517 q 536 634 588 608 q 390 660 485 660 q 242 639 288 660 q 180 556 196 618 q 164 354 164 494 q 180 151 164 213 q 243 68 196 89 q 396 47 290 47 m 372 -187 l 372 -86 l 454 -86 l 454 -187 l 372 -187 z "},"ǳ":{"ha":1515,"x_min":100,"x_max":1440,"o":"m 375 -11 q 201 19 258 -11 q 122 125 143 49 q 100 354 100 201 q 122 583 100 507 q 200 690 143 660 q 375 719 257 719 q 536 694 476 719 q 621 608 596 668 l 626 608 l 626 1032 l 690 1032 l 690 0 l 638 0 l 632 111 l 626 111 q 536 13 600 38 q 375 -11 472 -11 m 396 47 q 536 72 485 47 q 606 147 588 96 q 623 236 619 190 q 626 371 626 282 q 623 474 626 432 q 608 549 619 517 q 536 634 588 608 q 390 660 485 660 q 242 639 288 660 q 180 556 196 618 q 164 354 164 494 q 180 151 164 213 q 243 68 196 89 q 396 47 290 47 m 899 0 l 899 51 l 1353 650 l 915 650 l 915 708 l 1438 708 l 1438 657 l 985 58 l 1440 58 l 1440 0 l 899 0 z "},"ǆ":{"ha":1514,"x_min":100,"x_max":1438,"o":"m 374 -11 q 200 19 257 -11 q 122 124 143 49 q 100 353 100 200 q 122 582 100 506 q 200 688 143 658 q 374 718 257 718 q 535 692 475 718 q 619 607 594 667 l 625 607 l 625 1031 l 689 1031 l 689 0 l 636 0 l 631 111 l 625 111 q 535 13 599 38 q 374 -11 471 -11 m 1138 836 l 990 1022 l 990 1029 l 1038 1029 l 1175 883 l 1314 1029 l 1361 1029 l 1361 1022 l 1214 836 l 1138 836 m 897 0 l 897 51 l 1350 649 l 914 649 l 914 707 l 1435 707 l 1435 656 l 983 58 l 1438 58 l 1438 0 l 897 0 m 394 47 q 535 72 483 47 q 604 147 586 96 q 622 235 618 190 q 625 369 625 281 q 622 473 625 431 q 607 547 618 515 q 535 633 586 607 q 389 658 483 658 q 241 638 286 658 q 180 555 196 617 q 164 353 164 493 q 180 151 164 213 q 242 68 196 89 q 394 47 289 47 z "},"e":{"ha":779,"x_min":100,"x_max":678,"o":"m 678 332 l 164 332 q 180 149 164 207 q 248 69 196 92 q 415 46 300 46 q 535 51 469 46 q 650 65 601 57 l 650 7 q 541 -6 610 -1 q 404 -11 472 -11 q 206 19 269 -11 q 122 124 143 50 q 100 353 100 199 q 117 580 100 508 q 199 685 135 651 q 407 719 263 719 q 591 687 535 719 q 663 583 647 654 q 678 356 678 513 l 678 332 m 403 663 q 244 642 292 663 q 181 567 196 622 q 164 386 165 513 l 615 386 l 615 411 q 597 577 615 525 q 536 646 579 629 q 403 663 493 663 z "},"é":{"ha":779,"x_min":100,"x_max":678,"o":"m 678 332 l 164 332 q 180 149 164 207 q 248 69 196 92 q 415 46 300 46 q 535 51 469 46 q 650 65 601 57 l 650 7 q 541 -6 610 -1 q 404 -11 472 -11 q 206 19 269 -11 q 122 124 143 50 q 100 353 100 199 q 117 580 100 508 q 199 685 135 651 q 407 719 263 719 q 591 687 535 719 q 663 583 647 654 q 678 356 678 513 l 678 332 m 403 663 q 244 642 292 663 q 181 567 196 622 q 164 386 165 513 l 615 386 l 615 411 q 597 577 615 525 q 536 646 579 629 q 403 663 493 663 m 353 839 l 353 846 l 499 1032 l 576 1032 l 576 1025 l 401 839 l 353 839 z "},"ĕ":{"ha":778,"x_min":100,"x_max":678,"o":"m 678 332 l 164 332 q 180 149 164 207 q 248 69 196 92 q 415 46 300 46 q 535 51 469 46 q 650 65 601 57 l 650 7 q 541 -6 610 -1 q 404 -11 472 -11 q 206 19 269 -11 q 122 124 143 50 q 100 353 100 199 q 117 580 100 508 q 199 685 135 651 q 407 719 263 719 q 591 687 535 719 q 663 583 647 654 q 678 356 678 513 l 678 332 m 403 663 q 244 642 292 663 q 181 567 196 622 q 164 386 165 513 l 615 386 l 615 411 q 597 577 615 525 q 536 646 579 629 q 403 663 493 663 m 569 1031 q 560 920 569 960 q 511 857 550 881 q 388 833 472 833 q 264 857 303 833 q 216 919 225 881 q 207 1031 207 958 l 257 1031 q 263 942 257 971 q 297 897 269 913 q 388 881 325 881 q 478 897 450 881 q 513 942 506 913 q 519 1031 519 971 l 569 1031 z "},"ě":{"ha":778,"x_min":100,"x_max":678,"o":"m 678 332 l 164 332 q 180 149 164 207 q 248 69 196 92 q 415 46 300 46 q 535 51 469 46 q 650 65 601 57 l 650 7 q 541 -6 610 -1 q 404 -11 472 -11 q 206 19 269 -11 q 122 124 143 50 q 100 353 100 199 q 117 580 100 508 q 199 685 135 651 q 407 719 263 719 q 591 687 535 719 q 663 583 647 654 q 678 356 678 513 l 678 332 m 403 663 q 244 642 292 663 q 181 567 196 622 q 164 386 165 513 l 615 386 l 615 411 q 597 577 615 525 q 536 646 579 629 q 403 663 493 663 m 351 838 l 204 1024 l 204 1031 l 251 1031 l 389 885 l 528 1031 l 575 1031 l 575 1024 l 428 838 l 351 838 z "},"ê":{"ha":779,"x_min":100,"x_max":678,"o":"m 678 332 l 164 332 q 180 149 164 207 q 248 69 196 92 q 415 46 300 46 q 535 51 469 46 q 650 65 601 57 l 650 7 q 541 -6 610 -1 q 404 -11 472 -11 q 206 19 269 -11 q 122 124 143 50 q 100 353 100 199 q 117 580 100 508 q 199 685 135 651 q 407 719 263 719 q 591 687 535 719 q 663 583 647 654 q 678 356 678 513 l 678 332 m 403 663 q 244 642 292 663 q 181 567 196 622 q 164 386 165 513 l 615 386 l 615 411 q 597 577 615 525 q 536 646 579 629 q 403 663 493 663 m 206 839 l 206 846 l 353 1032 l 429 1032 l 576 846 l 576 839 l 529 839 l 390 985 l 253 839 l 206 839 z "},"ế":{"ha":778,"x_min":100,"x_max":707,"o":"m 629 1228 l 707 1228 l 707 1221 l 532 1035 l 483 1035 l 483 1042 l 629 1228 m 383 982 l 246 836 l 199 836 l 199 843 l 346 1029 l 422 1029 l 568 843 l 568 836 l 522 836 l 383 982 m 407 718 q 591 686 535 718 q 663 583 647 654 q 678 356 678 513 l 678 332 l 164 332 q 180 149 164 207 q 248 69 196 92 q 415 46 300 46 q 535 51 469 46 q 650 65 601 57 l 650 7 q 541 -6 610 -1 q 404 -11 472 -11 q 206 19 269 -11 q 122 124 143 50 q 100 353 100 199 q 117 580 100 508 q 199 685 135 651 q 407 718 263 718 m 403 663 q 244 642 292 663 q 181 567 196 622 q 164 386 165 513 l 615 386 l 615 411 q 597 577 615 525 q 536 646 579 629 q 403 663 493 663 z "},"ệ":{"ha":778,"x_min":100,"x_max":678,"o":"m 678 332 l 164 332 q 180 149 164 207 q 248 69 196 92 q 415 46 300 46 q 535 51 469 46 q 650 65 601 57 l 650 7 q 541 -6 610 -1 q 404 -11 472 -11 q 206 19 269 -11 q 122 124 143 50 q 100 353 100 199 q 117 580 100 508 q 199 685 135 651 q 407 719 263 719 q 591 687 535 719 q 663 583 647 654 q 678 356 678 513 l 678 332 m 403 663 q 244 642 292 663 q 181 567 196 622 q 164 386 165 513 l 615 386 l 615 411 q 597 577 615 525 q 536 646 579 629 q 403 663 493 663 m 349 -187 l 349 -86 l 431 -86 l 431 -187 l 349 -187 m 204 838 l 204 844 l 351 1031 l 428 1031 l 575 844 l 575 838 l 528 838 l 389 983 l 251 838 l 204 838 z "},"ề":{"ha":778,"x_min":100,"x_max":678,"o":"m 579 1035 l 531 1035 l 356 1221 l 356 1228 l 433 1228 l 579 1042 l 579 1035 m 381 982 l 243 836 l 196 836 l 196 843 l 343 1029 l 419 1029 l 565 843 l 565 836 l 519 836 l 381 982 m 678 332 l 164 332 q 180 149 164 207 q 248 69 196 92 q 415 46 300 46 q 535 51 469 46 q 650 65 601 57 l 650 7 q 541 -6 610 -1 q 404 -11 472 -11 q 206 19 269 -11 q 122 124 143 50 q 100 353 100 199 q 117 580 100 508 q 199 685 135 651 q 407 718 263 718 q 591 686 535 718 q 663 583 647 654 q 678 356 678 513 l 678 332 m 403 663 q 244 642 292 663 q 181 567 196 622 q 164 386 165 513 l 615 386 l 615 411 q 597 577 615 525 q 536 646 579 629 q 403 663 493 663 z "},"ể":{"ha":778,"x_min":100,"x_max":678,"o":"m 626 1192 q 615 1230 626 1218 q 579 1244 603 1242 q 504 1247 556 1247 q 349 1242 422 1247 l 349 1283 q 503 1292 415 1292 q 607 1285 571 1292 q 660 1259 643 1279 q 678 1197 678 1239 q 663 1133 678 1153 q 597 1099 649 1113 l 558 1088 q 515 1074 526 1079 q 500 1060 503 1068 q 497 1033 497 1053 l 451 1033 l 451 1049 q 463 1094 451 1081 q 510 1118 475 1107 l 546 1126 q 599 1144 583 1136 q 621 1162 615 1151 q 626 1192 626 1172 m 389 982 l 251 836 l 204 836 l 204 843 l 351 1029 l 428 1029 l 574 843 l 574 836 l 528 836 l 389 982 m 407 718 q 591 686 535 718 q 663 583 647 654 q 678 356 678 513 l 678 332 l 164 332 q 180 149 164 207 q 248 69 196 92 q 415 46 300 46 q 535 51 469 46 q 650 65 601 57 l 650 7 q 541 -6 610 -1 q 404 -11 472 -11 q 206 19 269 -11 q 122 124 143 50 q 100 353 100 199 q 117 580 100 508 q 199 685 135 651 q 407 718 263 718 m 403 663 q 244 642 292 663 q 181 567 196 622 q 164 386 165 513 l 615 386 l 615 411 q 597 577 615 525 q 536 646 579 629 q 403 663 493 663 z "},"ễ":{"ha":778,"x_min":100,"x_max":678,"o":"m 239 1199 q 201 1181 210 1199 q 192 1115 192 1164 l 147 1115 q 165 1224 147 1194 q 238 1254 182 1254 q 313 1244 275 1254 q 403 1217 350 1235 q 440 1205 411 1214 q 492 1191 468 1196 q 536 1186 517 1186 q 575 1203 567 1186 q 583 1269 583 1221 l 628 1269 q 610 1160 628 1190 q 538 1131 593 1131 q 472 1138 504 1131 q 410 1156 439 1146 q 374 1168 382 1165 q 299 1191 331 1183 q 239 1199 268 1199 m 349 1029 l 425 1029 l 571 843 l 571 836 l 525 836 l 386 982 l 249 836 l 201 836 l 201 843 l 349 1029 m 678 332 l 164 332 q 180 149 164 207 q 248 69 196 92 q 415 46 300 46 q 535 51 469 46 q 650 65 601 57 l 650 7 q 541 -6 610 -1 q 404 -11 472 -11 q 206 19 269 -11 q 122 124 143 50 q 100 353 100 199 q 117 580 100 508 q 199 685 135 651 q 407 718 263 718 q 591 686 535 718 q 663 583 647 654 q 678 356 678 513 l 678 332 m 403 663 q 244 642 292 663 q 181 567 196 622 q 164 386 165 513 l 615 386 l 615 411 q 597 577 615 525 q 536 646 579 629 q 403 663 493 663 z "},"ȅ":{"ha":778,"x_min":75,"x_max":678,"o":"m 678 332 l 164 332 q 180 149 164 207 q 248 69 196 92 q 415 46 300 46 q 535 51 469 46 q 650 65 601 57 l 650 7 q 541 -6 610 -1 q 404 -11 472 -11 q 206 19 269 -11 q 122 124 143 50 q 100 353 100 199 q 117 580 100 508 q 199 685 135 651 q 407 719 263 719 q 591 687 535 719 q 663 583 647 654 q 678 356 678 513 l 678 332 m 403 663 q 244 642 292 663 q 181 567 196 622 q 164 386 165 513 l 615 386 l 615 411 q 597 577 615 525 q 536 646 579 629 q 403 663 493 663 m 294 839 l 249 839 l 75 1022 l 75 1029 l 149 1029 l 294 846 l 294 839 m 561 839 l 515 839 l 342 1022 l 342 1029 l 417 1029 l 561 846 l 561 839 z "},"ë":{"ha":779,"x_min":100,"x_max":678,"o":"m 678 332 l 164 332 q 180 149 164 207 q 248 69 196 92 q 415 46 300 46 q 535 51 469 46 q 650 65 601 57 l 650 7 q 541 -6 610 -1 q 404 -11 472 -11 q 206 19 269 -11 q 122 124 143 50 q 100 353 100 199 q 117 580 100 508 q 199 685 135 651 q 407 719 263 719 q 591 687 535 719 q 663 583 647 654 q 678 356 678 513 l 678 332 m 403 663 q 244 642 292 663 q 181 567 196 622 q 164 386 165 513 l 615 386 l 615 411 q 597 577 615 525 q 536 646 579 629 q 403 663 493 663 m 228 924 l 228 1015 l 299 1015 l 299 924 l 228 924 m 481 924 l 481 1015 l 551 1015 l 551 924 l 481 924 z "},"ė":{"ha":778,"x_min":100,"x_max":678,"o":"m 678 332 l 164 332 q 180 149 164 207 q 248 69 196 92 q 415 46 300 46 q 535 51 469 46 q 650 65 601 57 l 650 7 q 541 -6 610 -1 q 404 -11 472 -11 q 206 19 269 -11 q 122 124 143 50 q 100 353 100 199 q 117 580 100 508 q 199 685 135 651 q 407 719 263 719 q 591 687 535 719 q 663 583 647 654 q 678 356 678 513 l 678 332 m 403 663 q 244 642 292 663 q 181 567 196 622 q 164 386 165 513 l 615 386 l 615 411 q 597 577 615 525 q 536 646 579 629 q 403 663 493 663 m 353 922 l 353 1014 l 424 1014 l 424 922 l 353 922 z "},"ẹ":{"ha":778,"x_min":100,"x_max":678,"o":"m 678 332 l 164 332 q 180 149 164 207 q 248 69 196 92 q 415 46 300 46 q 535 51 469 46 q 650 65 601 57 l 650 7 q 541 -6 610 -1 q 404 -11 472 -11 q 206 19 269 -11 q 122 124 143 50 q 100 353 100 199 q 117 580 100 508 q 199 685 135 651 q 407 719 263 719 q 591 687 535 719 q 663 583 647 654 q 678 356 678 513 l 678 332 m 403 663 q 244 642 292 663 q 181 567 196 622 q 164 386 165 513 l 615 386 l 615 411 q 597 577 615 525 q 536 646 579 629 q 403 663 493 663 m 349 -187 l 349 -86 l 431 -86 l 431 -187 l 349 -187 z "},"è":{"ha":779,"x_min":100,"x_max":678,"o":"m 678 332 l 164 332 q 180 149 164 207 q 248 69 196 92 q 415 46 300 46 q 535 51 469 46 q 650 65 601 57 l 650 7 q 541 -6 610 -1 q 404 -11 472 -11 q 206 19 269 -11 q 122 124 143 50 q 100 353 100 199 q 117 580 100 508 q 199 685 135 651 q 407 719 263 719 q 591 687 535 719 q 663 583 647 654 q 678 356 678 513 l 678 332 m 403 663 q 244 642 292 663 q 181 567 196 622 q 164 386 165 513 l 615 386 l 615 411 q 597 577 615 525 q 536 646 579 629 q 403 663 493 663 m 392 839 l 217 1025 l 217 1032 l 294 1032 l 440 846 l 440 839 l 392 839 z "},"ẻ":{"ha":778,"x_min":100,"x_max":678,"o":"m 678 332 l 164 332 q 180 149 164 207 q 248 69 196 92 q 415 46 300 46 q 535 51 469 46 q 650 65 601 57 l 650 7 q 541 -6 610 -1 q 404 -11 472 -11 q 206 19 269 -11 q 122 124 143 50 q 100 353 100 199 q 117 580 100 508 q 199 685 135 651 q 407 719 263 719 q 591 687 535 719 q 663 583 647 654 q 678 356 678 513 l 678 332 m 403 663 q 244 642 292 663 q 181 567 196 622 q 164 386 165 513 l 615 386 l 615 411 q 597 577 615 525 q 536 646 579 629 q 403 663 493 663 m 326 857 q 338 902 326 889 q 385 926 350 915 l 421 935 q 474 952 458 944 q 496 970 490 960 q 501 1000 501 981 q 490 1040 501 1028 q 453 1054 478 1051 q 378 1057 429 1057 q 224 1050 317 1057 l 224 1093 q 378 1101 290 1101 q 483 1094 446 1101 q 537 1067 519 1088 q 554 1006 554 1047 q 539 941 554 961 q 472 907 524 921 l 433 896 q 390 882 401 888 q 375 869 378 876 q 372 842 372 861 l 326 842 l 326 857 z "},"ȇ":{"ha":778,"x_min":100,"x_max":678,"o":"m 678 332 l 164 332 q 180 149 164 207 q 248 69 196 92 q 415 46 300 46 q 535 51 469 46 q 650 65 601 57 l 650 7 q 541 -6 610 -1 q 404 -11 472 -11 q 206 19 269 -11 q 122 124 143 50 q 100 353 100 199 q 117 580 100 508 q 199 685 135 651 q 407 719 263 719 q 591 687 535 719 q 663 583 647 654 q 678 356 678 513 l 678 332 m 403 663 q 244 642 292 663 q 181 567 196 622 q 164 386 165 513 l 615 386 l 615 411 q 597 577 615 525 q 536 646 579 629 q 403 663 493 663 m 207 844 q 217 955 207 915 q 265 1018 226 994 q 389 1042 304 1042 q 513 1018 474 1042 q 560 956 551 994 q 569 844 569 917 l 519 844 q 513 933 519 904 q 479 978 507 963 q 389 994 451 994 q 299 978 326 994 q 264 933 271 963 q 257 844 257 904 l 207 844 z "},"ē":{"ha":778,"x_min":100,"x_max":678,"o":"m 678 332 l 164 332 q 180 149 164 207 q 248 69 196 92 q 415 46 300 46 q 535 51 469 46 q 650 65 601 57 l 650 7 q 541 -6 610 -1 q 404 -11 472 -11 q 206 19 269 -11 q 122 124 143 50 q 100 353 100 199 q 117 580 100 508 q 199 685 135 651 q 407 719 263 719 q 591 687 535 719 q 663 583 647 654 q 678 356 678 513 l 678 332 m 403 663 q 244 642 292 663 q 181 567 196 622 q 164 386 165 513 l 615 386 l 615 411 q 597 577 615 525 q 536 646 579 629 q 403 663 493 663 m 229 965 l 229 1029 l 547 1029 l 547 965 l 229 965 z "},"ę":{"ha":779,"x_min":100,"x_max":678,"o":"m 678 332 l 164 332 q 180 149 164 207 q 248 69 196 92 q 415 46 300 46 q 535 51 469 46 q 650 65 601 57 l 650 7 q 584 -70 615 -21 q 553 -160 553 -119 q 568 -203 553 -186 q 618 -219 583 -219 q 642 -218 631 -219 l 642 -271 q 606 -272 631 -272 q 522 -244 549 -272 q 494 -174 494 -217 q 517 -87 494 -132 q 579 -3 540 -43 q 404 -11 500 -11 q 206 19 269 -11 q 122 124 143 50 q 100 353 100 199 q 117 580 100 508 q 199 685 135 651 q 407 719 263 719 q 591 687 535 719 q 663 583 647 654 q 678 356 678 513 l 678 332 m 403 663 q 244 642 292 663 q 181 567 196 622 q 164 386 165 513 l 615 386 l 615 411 q 597 577 615 525 q 536 646 579 629 q 403 663 493 663 z "},"ẽ":{"ha":778,"x_min":100,"x_max":678,"o":"m 678 332 l 164 332 q 180 149 164 207 q 248 69 196 92 q 415 46 300 46 q 535 51 469 46 q 650 65 601 57 l 650 7 q 541 -6 610 -1 q 404 -11 472 -11 q 206 19 269 -11 q 122 124 143 50 q 100 353 100 199 q 117 580 100 508 q 199 685 135 651 q 407 719 263 719 q 591 687 535 719 q 663 583 647 654 q 678 356 678 513 l 678 332 m 403 663 q 244 642 292 663 q 181 567 196 622 q 164 386 165 513 l 615 386 l 615 411 q 597 577 615 525 q 536 646 579 629 q 403 663 493 663 m 629 1031 q 612 922 629 951 q 539 892 594 892 q 469 900 503 892 q 374 929 436 908 q 299 952 331 944 q 239 960 268 960 q 200 942 208 960 q 192 876 192 925 l 147 876 q 165 985 147 956 q 238 1015 182 1015 q 313 1006 275 1015 q 403 978 350 996 q 439 966 410 975 q 493 952 468 957 q 538 947 518 947 q 576 965 567 947 q 585 1031 585 982 l 629 1031 z "},"ə":{"ha":779,"x_min":101,"x_max":679,"o":"m 375 718 q 573 688 510 718 q 658 583 636 657 q 679 354 679 508 q 662 127 679 199 q 581 22 644 56 q 372 -11 517 -11 q 188 21 244 -11 q 117 124 132 53 q 101 351 101 194 l 101 375 l 615 375 q 599 558 615 500 q 531 638 583 615 q 364 661 479 661 q 244 656 310 661 q 129 642 178 650 l 129 700 q 238 713 169 708 q 375 718 307 718 m 376 44 q 535 65 488 44 q 599 140 583 85 q 615 321 614 194 l 164 321 l 164 296 q 182 130 164 182 q 243 61 200 78 q 376 44 286 44 z "},"f":{"ha":486,"x_min":40,"x_max":440,"o":"m 189 650 l 40 650 l 40 708 l 189 708 l 189 856 q 215 972 189 933 q 293 1021 242 1010 q 440 1032 344 1032 l 440 978 q 324 969 363 978 q 269 937 285 960 q 253 867 253 914 l 253 708 l 440 708 l 440 650 l 253 650 l 253 0 l 189 0 l 189 650 z "},"g":{"ha":825,"x_min":100,"x_max":690,"o":"m 386 -286 q 129 -275 226 -286 l 129 -218 q 375 -228 236 -228 q 541 -202 489 -228 q 610 -114 593 -176 q 626 79 626 -51 l 626 100 l 621 100 q 537 16 597 42 q 375 -10 476 -10 q 200 20 257 -10 q 122 126 143 50 q 100 354 100 201 q 122 583 100 507 q 201 690 143 660 q 375 719 258 719 q 536 694 472 719 q 626 597 600 669 l 632 597 l 638 708 l 690 708 l 690 97 q 669 -136 690 -57 q 583 -251 647 -215 q 386 -286 519 -286 m 396 49 q 535 73 485 49 q 606 151 586 97 q 623 234 619 189 q 626 354 626 279 q 624 474 626 432 q 610 549 621 515 q 537 635 589 608 q 396 661 485 661 q 244 640 290 661 q 181 556 197 618 q 164 354 164 494 q 180 152 164 214 q 243 69 196 90 q 396 49 290 49 z "},"ǵ":{"ha":824,"x_min":100,"x_max":690,"o":"m 386 -286 q 129 -275 226 -286 l 129 -218 q 375 -228 236 -228 q 541 -202 489 -228 q 610 -114 593 -176 q 626 79 626 -51 l 626 100 l 621 100 q 537 16 597 42 q 375 -10 476 -10 q 200 20 257 -10 q 122 126 143 50 q 100 354 100 201 q 122 583 100 507 q 201 690 143 660 q 375 719 258 719 q 536 694 472 719 q 626 597 600 669 l 632 597 l 638 708 l 690 708 l 690 97 q 669 -136 690 -57 q 583 -251 647 -215 q 386 -286 519 -286 m 396 49 q 535 73 485 49 q 606 151 586 97 q 623 234 619 189 q 626 354 626 279 q 624 474 626 432 q 610 549 621 515 q 537 635 589 608 q 396 661 485 661 q 244 640 290 661 q 181 556 197 618 q 164 354 164 494 q 180 152 164 214 q 243 69 196 90 q 396 49 290 49 m 382 838 l 382 844 l 528 1031 l 606 1031 l 606 1024 l 431 838 l 382 838 z "},"ğ":{"ha":824,"x_min":100,"x_max":690,"o":"m 386 -286 q 129 -275 226 -286 l 129 -218 q 375 -228 236 -228 q 541 -202 489 -228 q 610 -114 593 -176 q 626 79 626 -51 l 626 100 l 621 100 q 537 16 597 42 q 375 -10 476 -10 q 200 20 257 -10 q 122 126 143 50 q 100 354 100 201 q 122 583 100 507 q 201 690 143 660 q 375 719 258 719 q 536 694 472 719 q 626 597 600 669 l 632 597 l 638 708 l 690 708 l 690 97 q 669 -136 690 -57 q 583 -251 647 -215 q 386 -286 519 -286 m 396 49 q 535 73 485 49 q 606 151 586 97 q 623 234 619 189 q 626 354 626 279 q 624 474 626 432 q 610 549 621 515 q 537 635 589 608 q 396 661 485 661 q 244 640 290 661 q 181 556 197 618 q 164 354 164 494 q 180 152 164 214 q 243 69 196 90 q 396 49 290 49 m 593 1031 q 583 920 593 960 q 535 857 574 881 q 411 833 496 833 q 288 857 326 833 q 240 919 249 881 q 231 1031 231 958 l 281 1031 q 287 942 281 971 q 321 897 293 913 q 411 881 349 881 q 501 897 474 881 q 536 942 529 913 q 543 1031 543 971 l 593 1031 z "},"ǧ":{"ha":824,"x_min":100,"x_max":690,"o":"m 386 -286 q 129 -275 226 -286 l 129 -218 q 375 -228 236 -228 q 541 -202 489 -228 q 610 -114 593 -176 q 626 79 626 -51 l 626 100 l 621 100 q 537 16 597 42 q 375 -10 476 -10 q 200 20 257 -10 q 122 126 143 50 q 100 354 100 201 q 122 583 100 507 q 201 690 143 660 q 375 719 258 719 q 536 694 472 719 q 626 597 600 669 l 632 597 l 638 708 l 690 708 l 690 97 q 669 -136 690 -57 q 583 -251 647 -215 q 386 -286 519 -286 m 396 49 q 535 73 485 49 q 606 151 586 97 q 623 234 619 189 q 626 354 626 279 q 624 474 626 432 q 610 549 621 515 q 537 635 589 608 q 396 661 485 661 q 244 640 290 661 q 181 556 197 618 q 164 354 164 494 q 180 152 164 214 q 243 69 196 90 q 396 49 290 49 m 375 838 l 228 1024 l 228 1031 l 275 1031 l 413 885 l 551 1031 l 599 1031 l 599 1024 l 451 838 l 375 838 z "},"ĝ":{"ha":824,"x_min":100,"x_max":690,"o":"m 386 -286 q 129 -275 226 -286 l 129 -218 q 375 -228 236 -228 q 541 -202 489 -228 q 610 -114 593 -176 q 626 79 626 -51 l 626 100 l 621 100 q 537 16 597 42 q 375 -10 476 -10 q 200 20 257 -10 q 122 126 143 50 q 100 354 100 201 q 122 583 100 507 q 201 690 143 660 q 375 719 258 719 q 536 694 472 719 q 626 597 600 669 l 632 597 l 638 708 l 690 708 l 690 97 q 669 -136 690 -57 q 583 -251 647 -215 q 386 -286 519 -286 m 396 49 q 535 73 485 49 q 606 151 586 97 q 623 234 619 189 q 626 354 626 279 q 624 474 626 432 q 610 549 621 515 q 537 635 589 608 q 396 661 485 661 q 244 640 290 661 q 181 556 197 618 q 164 354 164 494 q 180 152 164 214 q 243 69 196 90 q 396 49 290 49 m 228 838 l 228 844 l 375 1031 l 451 1031 l 599 844 l 599 838 l 551 838 l 413 983 l 275 838 l 228 838 z "},"ģ":{"ha":824,"x_min":100,"x_max":690,"o":"m 386 -286 q 129 -275 226 -286 l 129 -218 q 375 -228 236 -228 q 541 -202 489 -228 q 610 -114 593 -176 q 626 79 626 -51 l 626 100 l 621 100 q 537 16 597 42 q 375 -10 476 -10 q 200 20 257 -10 q 122 126 143 50 q 100 354 100 201 q 122 583 100 507 q 201 690 143 660 q 375 719 258 719 q 536 694 472 719 q 626 597 600 669 l 632 597 l 638 708 l 690 708 l 690 97 q 669 -136 690 -57 q 583 -251 647 -215 q 386 -286 519 -286 m 396 49 q 535 73 485 49 q 606 151 586 97 q 623 234 619 189 q 626 354 626 279 q 624 474 626 432 q 610 549 621 515 q 537 635 589 608 q 396 661 485 661 q 244 640 290 661 q 181 556 197 618 q 164 354 164 494 q 180 152 164 214 q 243 69 196 90 q 396 49 290 49 m 492 1049 q 444 1042 460 1049 q 424 1018 429 1035 q 419 967 419 1001 l 419 943 l 453 943 l 453 842 l 372 842 l 372 947 q 382 1033 372 1004 q 417 1073 392 1061 q 492 1085 442 1085 l 492 1049 z "},"ġ":{"ha":824,"x_min":100,"x_max":690,"o":"m 386 -286 q 129 -275 226 -286 l 129 -218 q 375 -228 236 -228 q 541 -202 489 -228 q 610 -114 593 -176 q 626 79 626 -51 l 626 100 l 621 100 q 537 16 597 42 q 375 -10 476 -10 q 200 20 257 -10 q 122 126 143 50 q 100 354 100 201 q 122 583 100 507 q 201 690 143 660 q 375 719 258 719 q 536 694 472 719 q 626 597 600 669 l 632 597 l 638 708 l 690 708 l 690 97 q 669 -136 690 -57 q 583 -251 647 -215 q 386 -286 519 -286 m 396 49 q 535 73 485 49 q 606 151 586 97 q 623 234 619 189 q 626 354 626 279 q 624 474 626 432 q 610 549 621 515 q 537 635 589 608 q 396 661 485 661 q 244 640 290 661 q 181 556 197 618 q 164 354 164 494 q 180 152 164 214 q 243 69 196 90 q 396 49 290 49 m 376 922 l 376 1014 l 447 1014 l 447 922 l 376 922 z "},"h":{"ha":836,"x_min":135,"x_max":701,"o":"m 638 429 q 622 581 638 533 q 565 644 607 628 q 428 660 522 660 q 271 624 321 660 q 210 530 221 588 q 199 367 199 472 l 199 0 l 135 0 l 135 1032 l 199 1032 l 199 607 l 204 607 q 278 688 224 656 q 447 719 332 719 q 611 692 557 719 q 683 608 665 665 q 701 444 701 551 l 701 0 l 638 0 l 638 429 z "},"ħ":{"ha":836,"x_min":39,"x_max":701,"o":"m 447 718 q 611 691 557 718 q 683 608 665 664 q 701 444 701 551 l 701 0 l 638 0 l 638 429 q 622 581 638 533 q 565 644 607 628 q 428 660 522 660 q 271 624 321 660 q 210 530 221 588 q 199 367 199 472 l 199 0 l 135 0 l 135 899 l 39 899 l 39 956 l 135 956 l 135 1031 l 199 1031 l 199 956 l 403 956 l 403 899 l 199 899 l 199 607 l 204 607 q 278 687 224 656 q 447 718 332 718 z "},"ĥ":{"ha":835,"x_min":-18,"x_max":701,"o":"m 638 429 q 622 581 638 533 q 565 644 607 628 q 428 660 522 660 q 271 624 321 660 q 210 530 221 588 q 199 367 199 472 l 199 0 l 135 0 l 135 1032 l 199 1032 l 199 607 l 204 607 q 278 688 224 656 q 447 719 332 719 q 611 692 557 719 q 683 608 665 665 q 701 444 701 551 l 701 0 l 638 0 l 638 429 m -18 1085 l -18 1092 l 129 1278 l 206 1278 l 353 1092 l 353 1085 l 306 1085 l 167 1231 l 29 1085 l -18 1085 z "},"ḥ":{"ha":835,"x_min":135,"x_max":701,"o":"m 638 429 q 622 581 638 533 q 565 644 607 628 q 428 660 522 660 q 271 624 321 660 q 210 530 221 588 q 199 367 199 472 l 199 0 l 135 0 l 135 1032 l 199 1032 l 199 607 l 204 607 q 278 688 224 656 q 447 719 332 719 q 611 692 557 719 q 683 608 665 665 q 701 444 701 551 l 701 0 l 638 0 l 638 429 m 378 -187 l 378 -86 l 460 -86 l 460 -187 l 378 -187 z "},"i":{"ha":332,"x_min":129,"x_max":203,"o":"m 129 938 l 129 1032 l 203 1032 l 203 938 l 129 938 m 135 0 l 135 708 l 199 708 l 199 0 l 135 0 z "},"ı":{"ha":332,"x_min":135,"x_max":199,"o":"m 135 0 l 135 708 l 199 708 l 199 0 l 135 0 z "},"í":{"ha":332,"x_min":131,"x_max":354,"o":"m 135 0 l 135 708 l 199 708 l 199 0 l 135 0 m 131 839 l 131 846 l 276 1032 l 354 1032 l 354 1025 l 179 839 l 131 839 z "},"ĭ":{"ha":332,"x_min":-15,"x_max":347,"o":"m 135 0 l 135 708 l 199 708 l 199 0 l 135 0 m 347 1031 q 338 920 347 960 q 289 857 328 881 q 165 833 250 833 q 42 857 81 833 q -6 919 3 881 q -15 1031 -15 958 l 35 1031 q 41 942 35 971 q 75 897 47 913 q 165 881 103 881 q 256 897 228 881 q 290 942 283 913 q 297 1031 297 971 l 347 1031 z "},"ǐ":{"ha":332,"x_min":-18,"x_max":353,"o":"m 135 0 l 135 708 l 199 708 l 199 0 l 135 0 m 129 838 l -18 1024 l -18 1031 l 29 1031 l 167 885 l 306 1031 l 353 1031 l 353 1024 l 206 838 l 129 838 z "},"î":{"ha":332,"x_min":-18,"x_max":353,"o":"m 135 0 l 135 708 l 199 708 l 199 0 l 135 0 m -18 839 l -18 846 l 129 1032 l 206 1032 l 353 846 l 353 839 l 306 839 l 167 985 l 29 839 l -18 839 z "},"ȉ":{"ha":332,"x_min":-147,"x_max":339,"o":"m 135 0 l 135 708 l 199 708 l 199 0 l 135 0 m 72 839 l 26 839 l -147 1022 l -147 1029 l -74 1029 l 72 846 l 72 839 m 339 839 l 293 839 l 119 1022 l 119 1029 l 194 1029 l 339 846 l 339 839 z "},"ï":{"ha":332,"x_min":4,"x_max":328,"o":"m 135 0 l 135 708 l 199 708 l 199 0 l 135 0 m 4 924 l 4 1015 l 75 1015 l 75 924 l 4 924 m 257 924 l 257 1015 l 328 1015 l 328 924 l 257 924 z "},"ị":{"ha":332,"x_min":89,"x_max":203,"o":"m 129 938 l 129 1032 l 203 1032 l 203 938 l 129 938 m 135 0 l 135 708 l 199 708 l 199 0 l 135 0 m 89 -187 l 89 -86 l 171 -86 l 171 -187 l 89 -187 z "},"ì":{"ha":332,"x_min":-21,"x_max":203,"o":"m 135 0 l 135 708 l 199 708 l 199 0 l 135 0 m 154 839 l -21 1025 l -21 1032 l 57 1032 l 203 846 l 203 839 l 154 839 z "},"ỉ":{"ha":332,"x_min":1,"x_max":332,"o":"m 135 0 l 135 708 l 199 708 l 199 0 l 135 0 m 104 857 q 116 902 104 889 q 163 926 128 915 l 199 935 q 252 952 236 944 q 274 970 268 960 q 279 1000 279 981 q 267 1040 279 1028 q 231 1054 256 1051 q 156 1057 207 1057 q 1 1050 94 1057 l 1 1093 q 156 1101 68 1101 q 260 1094 224 1101 q 315 1067 297 1088 q 332 1006 332 1047 q 317 941 332 961 q 250 907 301 921 l 211 896 q 167 882 179 888 q 153 869 156 876 q 150 842 150 861 l 104 842 l 104 857 z "},"ȋ":{"ha":332,"x_min":-15,"x_max":347,"o":"m 135 0 l 135 708 l 199 708 l 199 0 l 135 0 m -15 844 q -6 955 -15 915 q 43 1018 4 994 q 167 1042 82 1042 q 290 1018 251 1042 q 338 956 329 994 q 347 844 347 917 l 297 844 q 291 933 297 904 q 257 978 285 963 q 167 994 229 994 q 76 978 104 994 q 42 933 49 963 q 35 844 35 904 l -15 844 z "},"ĳ":{"ha":664,"x_min":129,"x_max":535,"o":"m 129 938 l 129 1032 l 203 1032 l 203 938 l 129 938 m 135 0 l 135 708 l 199 708 l 199 0 l 135 0 m 461 938 l 461 1032 l 535 1032 l 535 938 l 461 938 m 326 -224 q 419 -217 390 -224 q 458 -194 449 -210 q 467 -146 467 -179 l 467 708 l 531 708 l 531 -129 q 510 -229 531 -197 q 449 -269 489 -261 q 326 -278 408 -278 l 326 -224 z "},"ī":{"ha":332,"x_min":7,"x_max":325,"o":"m 135 0 l 135 708 l 199 708 l 199 0 l 135 0 m 7 965 l 7 1029 l 325 1029 l 325 965 l 7 965 z "},"į":{"ha":332,"x_min":51,"x_max":201,"o":"m 131 1015 l 201 1015 l 201 924 l 131 924 l 131 1015 m 111 -158 q 175 -219 111 -219 l 200 -218 l 200 -271 q 163 -272 185 -272 q 78 -244 104 -272 q 51 -171 51 -217 q 75 -84 51 -131 q 138 0 99 -37 l 135 0 l 135 708 l 199 708 l 199 0 q 140 -73 168 -25 q 111 -158 111 -121 z "},"ĩ":{"ha":332,"x_min":-75,"x_max":407,"o":"m 135 0 l 135 708 l 199 708 l 199 0 l 135 0 m 407 1031 q 390 922 407 951 q 317 892 372 892 q 247 900 281 892 q 151 929 214 908 q 77 952 108 944 q 17 960 46 960 q -22 942 -14 960 q -31 876 -31 925 l -75 876 q -58 985 -75 956 q 15 1015 -40 1015 q 90 1006 53 1015 q 181 978 128 996 q 217 966 188 975 q 271 952 246 957 q 315 947 296 947 q 353 965 344 947 q 363 1031 363 982 l 407 1031 z "},"j":{"ha":332,"x_min":-6,"x_max":203,"o":"m 129 938 l 129 1032 l 203 1032 l 203 938 l 129 938 m -6 -224 q 88 -217 58 -224 q 126 -194 117 -210 q 135 -146 135 -179 l 135 708 l 199 708 l 199 -129 q 178 -229 199 -197 q 117 -269 157 -261 q -6 -278 76 -278 l -6 -224 z "},"ȷ":{"ha":332,"x_min":-6,"x_max":199,"o":"m -6 -224 q 88 -217 58 -224 q 126 -194 117 -210 q 135 -146 135 -179 l 135 708 l 199 708 l 199 -129 q 178 -229 199 -197 q 117 -269 157 -261 q -6 -278 76 -278 l -6 -224 z "},"ĵ":{"ha":332,"x_min":-18,"x_max":353,"o":"m -6 -224 q 88 -217 58 -224 q 126 -194 117 -210 q 135 -146 135 -179 l 135 708 l 199 708 l 199 -129 q 178 -229 199 -197 q 117 -269 157 -261 q -6 -278 76 -278 l -6 -224 m -18 838 l -18 844 l 129 1031 l 206 1031 l 353 844 l 353 838 l 306 838 l 167 983 l 29 838 l -18 838 z "},"k":{"ha":726,"x_min":135,"x_max":675,"o":"m 594 0 l 310 331 l 199 331 l 199 0 l 135 0 l 135 1032 l 199 1032 l 199 390 l 310 390 l 594 708 l 671 708 l 361 364 l 675 0 l 594 0 z "},"ķ":{"ha":725,"x_min":135,"x_max":675,"o":"m 594 0 l 310 331 l 199 331 l 199 0 l 135 0 l 135 1032 l 199 1032 l 199 390 l 310 390 l 594 708 l 671 708 l 361 364 l 675 0 l 594 0 m 304 -293 q 351 -286 336 -293 q 372 -262 367 -279 q 376 -211 376 -246 l 376 -187 l 343 -187 l 343 -86 l 424 -86 l 424 -192 q 414 -277 424 -249 q 379 -317 404 -306 q 304 -329 354 -329 l 304 -293 z "},"ĸ":{"ha":726,"x_min":135,"x_max":675,"o":"m 594 0 l 310 331 l 199 331 l 199 0 l 135 0 l 135 708 l 199 708 l 199 390 l 310 390 l 594 708 l 671 708 l 361 364 l 675 0 l 594 0 z "},"l":{"ha":332,"x_min":135,"x_max":199,"o":"m 135 0 l 135 1032 l 199 1032 l 199 0 l 135 0 z "},"ĺ":{"ha":332,"x_min":135,"x_max":360,"o":"m 135 0 l 135 1032 l 199 1032 l 199 0 l 135 0 m 136 1085 l 136 1092 l 282 1278 l 360 1278 l 360 1271 l 185 1085 l 136 1085 z "},"ľ":{"ha":332,"x_min":135,"x_max":358,"o":"m 135 0 l 135 1032 l 199 1032 l 199 0 l 135 0 m 274 626 l 292 836 l 292 956 l 358 956 l 358 836 l 317 626 l 274 626 z "},"ļ":{"ha":332,"x_min":107,"x_max":226,"o":"m 135 0 l 135 1032 l 199 1032 l 199 0 l 135 0 m 107 -293 q 154 -286 139 -293 q 174 -262 169 -279 q 179 -211 179 -246 l 179 -187 l 146 -187 l 146 -86 l 226 -86 l 226 -192 q 217 -277 226 -249 q 182 -317 207 -306 q 107 -329 157 -329 l 107 -293 z "},"ŀ":{"ha":342,"x_min":135,"x_max":379,"o":"m 135 0 l 135 1032 l 199 1032 l 199 0 l 135 0 m 297 365 l 297 467 l 379 467 l 379 365 l 297 365 z "},"ǉ":{"ha":664,"x_min":135,"x_max":535,"o":"m 135 0 l 135 1032 l 199 1032 l 199 0 l 135 0 m 461 938 l 461 1032 l 535 1032 l 535 938 l 461 938 m 326 -224 q 419 -217 390 -224 q 458 -194 449 -210 q 467 -146 467 -179 l 467 708 l 531 708 l 531 -129 q 510 -229 531 -197 q 449 -269 489 -261 q 326 -278 408 -278 l 326 -224 z "},"ł":{"ha":333,"x_min":46,"x_max":292,"o":"m 135 0 l 135 467 l 46 436 l 46 496 l 135 528 l 135 1032 l 199 1032 l 199 551 l 292 586 l 292 525 l 199 492 l 199 0 l 135 0 z "},"m":{"ha":1235,"x_min":135,"x_max":1101,"o":"m 1038 429 q 1024 581 1038 533 q 974 644 1011 628 q 854 660 938 660 q 714 626 757 660 q 660 535 671 592 q 650 367 650 479 l 650 0 l 586 0 l 586 429 q 573 581 586 533 q 523 644 560 628 q 403 660 486 660 q 263 624 307 660 q 209 530 219 588 q 199 367 199 472 l 199 0 l 135 0 l 135 708 l 188 708 l 192 597 l 199 597 q 267 687 217 654 q 421 719 317 719 q 571 691 522 719 q 636 597 619 663 l 644 597 q 715 686 663 653 q 872 719 767 719 q 1019 692 969 719 q 1085 608 1068 665 q 1101 444 1101 550 l 1101 0 l 1038 0 l 1038 429 z "},"n":{"ha":836,"x_min":135,"x_max":701,"o":"m 638 429 q 622 581 638 533 q 565 644 607 628 q 428 660 522 660 q 271 624 321 660 q 210 530 221 588 q 199 367 199 472 l 199 0 l 135 0 l 135 708 l 188 708 l 192 597 l 199 597 q 274 687 219 654 q 447 719 329 719 q 611 692 557 719 q 683 608 665 665 q 701 444 701 551 l 701 0 l 638 0 l 638 429 z "},"ń":{"ha":835,"x_min":135,"x_max":701,"o":"m 638 429 q 622 581 638 533 q 565 644 607 628 q 428 660 522 660 q 271 624 321 660 q 210 530 221 588 q 199 367 199 472 l 199 0 l 135 0 l 135 708 l 188 708 l 192 597 l 199 597 q 274 687 219 654 q 447 719 329 719 q 611 692 557 719 q 683 608 665 665 q 701 444 701 551 l 701 0 l 638 0 l 638 429 m 388 838 l 388 844 l 533 1031 l 611 1031 l 611 1024 l 436 838 l 388 838 z "},"ŉ":{"ha":851,"x_min":7,"x_max":717,"o":"m 7 825 q 66 842 53 825 q 79 913 79 860 l 79 936 l 46 936 l 46 1032 l 126 1032 l 126 931 q 117 843 126 872 q 82 802 107 814 q 7 790 57 790 l 7 825 m 653 429 q 638 581 653 533 q 580 644 622 628 q 443 660 538 660 q 286 624 336 660 q 225 530 236 588 q 214 367 214 472 l 214 0 l 150 0 l 150 708 l 203 708 l 207 597 l 214 597 q 290 687 235 654 q 463 719 344 719 q 626 692 572 719 q 699 608 681 665 q 717 444 717 551 l 717 0 l 653 0 l 653 429 z "},"ň":{"ha":835,"x_min":135,"x_max":701,"o":"m 638 429 q 622 581 638 533 q 565 644 607 628 q 428 660 522 660 q 271 624 321 660 q 210 530 221 588 q 199 367 199 472 l 199 0 l 135 0 l 135 708 l 188 708 l 192 597 l 199 597 q 274 687 219 654 q 447 719 329 719 q 611 692 557 719 q 683 608 665 665 q 701 444 701 551 l 701 0 l 638 0 l 638 429 m 381 838 l 233 1024 l 233 1031 l 281 1031 l 418 885 l 557 1031 l 604 1031 l 604 1024 l 457 838 l 381 838 z "},"ņ":{"ha":835,"x_min":135,"x_max":701,"o":"m 638 429 q 622 581 638 533 q 565 644 607 628 q 428 660 522 660 q 271 624 321 660 q 210 530 221 588 q 199 367 199 472 l 199 0 l 135 0 l 135 708 l 188 708 l 192 597 l 199 597 q 274 687 219 654 q 447 719 329 719 q 611 692 557 719 q 683 608 665 665 q 701 444 701 551 l 701 0 l 638 0 l 638 429 m 358 -293 q 406 -286 390 -293 q 426 -262 421 -279 q 431 -211 431 -246 l 431 -187 l 397 -187 l 397 -86 l 478 -86 l 478 -192 q 468 -277 478 -249 q 433 -317 458 -306 q 358 -329 408 -329 l 358 -293 z "},"ṅ":{"ha":835,"x_min":135,"x_max":701,"o":"m 638 429 q 622 581 638 533 q 565 644 607 628 q 428 660 522 660 q 271 624 321 660 q 210 530 221 588 q 199 367 199 472 l 199 0 l 135 0 l 135 708 l 188 708 l 192 597 l 199 597 q 274 687 219 654 q 447 719 329 719 q 611 692 557 719 q 683 608 665 665 q 701 444 701 551 l 701 0 l 638 0 l 638 429 m 382 922 l 382 1014 l 453 1014 l 453 922 l 382 922 z "},"ŋ":{"ha":836,"x_min":135,"x_max":701,"o":"m 447 719 q 611 692 557 719 q 683 608 665 665 q 701 444 701 551 l 701 -129 q 681 -229 701 -197 q 620 -269 661 -261 q 499 -278 579 -278 l 499 -224 q 592 -217 563 -224 q 629 -194 621 -210 q 638 -146 638 -179 l 638 429 q 622 581 638 533 q 565 644 607 628 q 428 660 522 660 q 271 624 321 660 q 210 530 221 588 q 199 367 199 472 l 199 0 l 135 0 l 135 708 l 188 708 l 192 597 l 199 597 q 274 687 219 654 q 447 719 329 719 z "},"ɲ":{"ha":836,"x_min":-6,"x_max":701,"o":"m -6 -224 q 88 -217 58 -224 q 126 -194 117 -210 q 135 -146 135 -179 l 135 708 l 188 708 l 192 597 l 199 597 q 274 687 219 654 q 447 719 329 719 q 611 692 557 719 q 683 608 665 665 q 701 444 701 551 l 701 0 l 638 0 l 638 429 q 622 581 638 533 q 565 644 607 628 q 428 660 522 660 q 271 624 321 660 q 210 531 221 588 q 199 368 199 474 l 199 -129 q 178 -229 199 -197 q 117 -269 157 -261 q -6 -278 76 -278 l -6 -224 z "},"ǌ":{"ha":1167,"x_min":135,"x_max":1038,"o":"m 638 429 q 622 581 638 533 q 565 644 607 628 q 428 660 522 660 q 271 624 321 660 q 210 530 221 588 q 199 367 199 472 l 199 0 l 135 0 l 135 708 l 188 708 l 192 597 l 199 597 q 274 687 219 654 q 447 719 329 719 q 611 692 557 719 q 683 608 665 665 q 701 444 701 551 l 701 0 l 638 0 l 638 429 m 964 938 l 964 1032 l 1038 1032 l 1038 938 l 964 938 m 829 -224 q 922 -217 893 -224 q 960 -194 951 -210 q 969 -146 969 -179 l 969 708 l 1033 708 l 1033 -129 q 1013 -229 1033 -197 q 951 -269 992 -261 q 829 -278 911 -278 l 829 -224 z "},"ñ":{"ha":836,"x_min":135,"x_max":701,"o":"m 638 429 q 622 581 638 533 q 565 644 607 628 q 428 660 522 660 q 271 624 321 660 q 210 530 221 588 q 199 367 199 472 l 199 0 l 135 0 l 135 708 l 188 708 l 192 597 l 199 597 q 274 687 219 654 q 447 719 329 719 q 611 692 557 719 q 683 608 665 665 q 701 444 701 551 l 701 0 l 638 0 l 638 429 m 660 1032 q 642 923 660 953 q 569 893 625 893 q 500 901 533 893 q 404 931 467 910 q 330 953 361 946 q 269 961 299 961 q 231 944 240 961 q 222 878 222 926 l 178 878 q 195 987 178 957 q 268 1017 213 1017 q 343 1007 306 1017 q 433 979 381 997 q 469 967 440 976 q 524 953 499 958 q 568 949 549 949 q 607 966 599 949 q 615 1032 615 983 l 660 1032 z "},"o":{"ha":804,"x_min":100,"x_max":703,"o":"m 401 -11 q 196 17 257 -11 q 117 117 135 46 q 100 353 100 188 q 117 590 100 518 q 197 690 135 661 q 401 719 258 719 q 607 690 546 719 q 685 590 668 661 q 703 353 703 519 q 685 117 703 188 q 607 17 668 46 q 401 -11 546 -11 m 401 47 q 569 69 522 47 q 628 147 617 90 q 639 353 639 203 q 628 560 639 503 q 569 639 617 617 q 401 661 522 661 q 233 639 281 661 q 175 560 186 617 q 164 353 164 503 q 175 147 164 203 q 233 69 186 90 q 401 47 281 47 z "},"ó":{"ha":804,"x_min":100,"x_max":703,"o":"m 401 -11 q 196 17 257 -11 q 117 117 135 46 q 100 353 100 188 q 117 590 100 518 q 197 690 135 661 q 401 719 258 719 q 607 690 546 719 q 685 590 668 661 q 703 353 703 519 q 685 117 703 188 q 607 17 668 46 q 401 -11 546 -11 m 401 47 q 569 69 522 47 q 628 147 617 90 q 639 353 639 203 q 628 560 639 503 q 569 639 617 617 q 401 661 522 661 q 233 639 281 661 q 175 560 186 617 q 164 353 164 503 q 175 147 164 203 q 233 69 186 90 q 401 47 281 47 m 361 839 l 361 846 l 507 1032 l 585 1032 l 585 1025 l 410 839 l 361 839 z "},"ŏ":{"ha":803,"x_min":100,"x_max":703,"o":"m 401 -11 q 196 17 257 -11 q 117 117 135 46 q 100 353 100 188 q 117 590 100 518 q 197 690 135 661 q 401 719 258 719 q 607 690 546 719 q 685 590 668 661 q 703 353 703 519 q 685 117 703 188 q 607 17 668 46 q 401 -11 546 -11 m 401 47 q 569 69 522 47 q 628 147 617 90 q 639 353 639 203 q 628 560 639 503 q 569 639 617 617 q 401 661 522 661 q 233 639 281 661 q 175 560 186 617 q 164 353 164 503 q 175 147 164 203 q 233 69 186 90 q 401 47 281 47 m 582 1031 q 572 920 582 960 q 524 857 563 881 q 400 833 485 833 q 276 857 315 833 q 228 919 238 881 q 219 1031 219 958 l 269 1031 q 276 942 269 971 q 310 897 282 913 q 400 881 338 881 q 490 897 463 881 q 525 942 518 913 q 532 1031 532 971 l 582 1031 z "},"ǒ":{"ha":803,"x_min":100,"x_max":703,"o":"m 401 -11 q 196 17 257 -11 q 117 117 135 46 q 100 353 100 188 q 117 590 100 518 q 197 690 135 661 q 401 719 258 719 q 607 690 546 719 q 685 590 668 661 q 703 353 703 519 q 685 117 703 188 q 607 17 668 46 q 401 -11 546 -11 m 401 47 q 569 69 522 47 q 628 147 617 90 q 639 353 639 203 q 628 560 639 503 q 569 639 617 617 q 401 661 522 661 q 233 639 281 661 q 175 560 186 617 q 164 353 164 503 q 175 147 164 203 q 233 69 186 90 q 401 47 281 47 m 364 838 l 217 1024 l 217 1031 l 264 1031 l 401 885 l 540 1031 l 588 1031 l 588 1024 l 440 838 l 364 838 z "},"ô":{"ha":804,"x_min":100,"x_max":703,"o":"m 401 -11 q 196 17 257 -11 q 117 117 135 46 q 100 353 100 188 q 117 590 100 518 q 197 690 135 661 q 401 719 258 719 q 607 690 546 719 q 685 590 668 661 q 703 353 703 519 q 685 117 703 188 q 607 17 668 46 q 401 -11 546 -11 m 401 47 q 569 69 522 47 q 628 147 617 90 q 639 353 639 203 q 628 560 639 503 q 569 639 617 617 q 401 661 522 661 q 233 639 281 661 q 175 560 186 617 q 164 353 164 503 q 175 147 164 203 q 233 69 186 90 q 401 47 281 47 m 217 839 l 217 846 l 364 1032 l 440 1032 l 588 846 l 588 839 l 540 839 l 401 985 l 264 839 l 217 839 z "},"ố":{"ha":803,"x_min":100,"x_max":719,"o":"m 496 1035 l 496 1042 l 642 1228 l 719 1228 l 719 1221 l 544 1035 l 496 1035 m 211 836 l 211 843 l 358 1029 l 435 1029 l 581 843 l 581 836 l 535 836 l 396 982 l 258 836 l 211 836 m 401 -11 q 196 17 257 -11 q 117 117 135 46 q 100 353 100 188 q 117 590 100 518 q 196 690 135 661 q 401 718 257 718 q 607 690 546 718 q 685 590 668 661 q 703 353 703 519 q 685 117 703 188 q 607 17 668 46 q 401 -11 546 -11 m 401 47 q 569 69 522 47 q 628 147 617 90 q 639 353 639 203 q 628 560 639 503 q 569 639 617 617 q 401 661 522 661 q 233 639 281 661 q 175 560 186 617 q 164 353 164 503 q 175 147 164 203 q 233 69 186 90 q 401 47 281 47 z "},"ộ":{"ha":803,"x_min":100,"x_max":703,"o":"m 401 -11 q 196 17 257 -11 q 117 117 135 46 q 100 353 100 188 q 117 590 100 518 q 197 690 135 661 q 401 719 258 719 q 607 690 546 719 q 685 590 668 661 q 703 353 703 519 q 685 117 703 188 q 607 17 668 46 q 401 -11 546 -11 m 401 47 q 569 69 522 47 q 628 147 617 90 q 639 353 639 203 q 628 560 639 503 q 569 639 617 617 q 401 661 522 661 q 233 639 281 661 q 175 560 186 617 q 164 353 164 503 q 175 147 164 203 q 233 69 186 90 q 401 47 281 47 m 361 -187 l 361 -86 l 443 -86 l 443 -187 l 361 -187 m 217 838 l 217 844 l 364 1031 l 440 1031 l 588 844 l 588 838 l 540 838 l 401 983 l 264 838 l 217 838 z "},"ồ":{"ha":803,"x_min":100,"x_max":703,"o":"m 543 1035 l 368 1221 l 368 1228 l 446 1228 l 592 1042 l 592 1035 l 543 1035 m 208 836 l 208 843 l 356 1029 l 432 1029 l 578 843 l 578 836 l 532 836 l 393 982 l 256 836 l 208 836 m 401 -11 q 196 17 257 -11 q 117 117 135 46 q 100 353 100 188 q 117 590 100 518 q 196 690 135 661 q 401 718 257 718 q 607 690 546 718 q 685 590 668 661 q 703 353 703 519 q 685 117 703 188 q 607 17 668 46 q 401 -11 546 -11 m 401 47 q 569 69 522 47 q 628 147 617 90 q 639 353 639 203 q 628 560 639 503 q 569 639 617 617 q 401 661 522 661 q 233 639 281 661 q 175 560 186 617 q 164 353 164 503 q 175 147 164 203 q 233 69 186 90 q 401 47 281 47 z "},"ổ":{"ha":803,"x_min":100,"x_max":703,"o":"m 464 1049 q 476 1094 464 1081 q 522 1118 488 1107 l 558 1126 q 612 1144 596 1136 q 633 1162 628 1151 q 639 1192 639 1172 q 627 1230 639 1218 q 592 1244 615 1242 q 517 1247 568 1247 q 361 1242 435 1247 l 361 1283 q 515 1292 428 1292 q 619 1285 583 1292 q 673 1259 656 1279 q 690 1197 690 1239 q 676 1133 690 1153 q 610 1099 661 1113 l 571 1088 q 527 1074 539 1079 q 513 1060 515 1068 q 510 1033 510 1053 l 464 1033 l 464 1049 m 217 836 l 217 843 l 364 1029 l 440 1029 l 586 843 l 586 836 l 540 836 l 401 982 l 264 836 l 217 836 m 401 -11 q 196 17 257 -11 q 117 117 135 46 q 100 353 100 188 q 117 590 100 518 q 196 690 135 661 q 401 718 257 718 q 607 690 546 718 q 685 590 668 661 q 703 353 703 519 q 685 117 703 188 q 607 17 668 46 q 401 -11 546 -11 m 401 47 q 569 69 522 47 q 628 147 617 90 q 639 353 639 203 q 628 560 639 503 q 569 639 617 617 q 401 661 522 661 q 233 639 281 661 q 175 560 186 617 q 164 353 164 503 q 175 147 164 203 q 233 69 186 90 q 401 47 281 47 z "},"ỗ":{"ha":803,"x_min":100,"x_max":703,"o":"m 640 1269 q 623 1160 640 1190 q 550 1131 606 1131 q 484 1138 517 1131 q 423 1156 451 1146 q 386 1168 394 1165 q 312 1191 343 1183 q 251 1199 281 1199 q 213 1181 222 1199 q 204 1115 204 1164 l 160 1115 q 177 1224 160 1194 q 250 1254 194 1254 q 325 1244 288 1254 q 415 1217 363 1235 q 452 1205 424 1214 q 505 1191 481 1196 q 549 1186 529 1186 q 588 1203 579 1186 q 596 1269 596 1221 l 640 1269 m 214 836 l 214 843 l 361 1029 l 438 1029 l 583 843 l 583 836 l 538 836 l 399 982 l 261 836 l 214 836 m 401 -11 q 196 17 257 -11 q 117 117 135 46 q 100 353 100 188 q 117 590 100 518 q 196 690 135 661 q 401 718 257 718 q 607 690 546 718 q 685 590 668 661 q 703 353 703 519 q 685 117 703 188 q 607 17 668 46 q 401 -11 546 -11 m 401 47 q 569 69 522 47 q 628 147 617 90 q 639 353 639 203 q 628 560 639 503 q 569 639 617 617 q 401 661 522 661 q 233 639 281 661 q 175 560 186 617 q 164 353 164 503 q 175 147 164 203 q 233 69 186 90 q 401 47 281 47 z "},"ȍ":{"ha":803,"x_min":88,"x_max":703,"o":"m 401 -11 q 196 17 257 -11 q 117 117 135 46 q 100 353 100 188 q 117 590 100 518 q 197 690 135 661 q 401 719 258 719 q 607 690 546 719 q 685 590 668 661 q 703 353 703 519 q 685 117 703 188 q 607 17 668 46 q 401 -11 546 -11 m 401 47 q 569 69 522 47 q 628 147 617 90 q 639 353 639 203 q 628 560 639 503 q 569 639 617 617 q 401 661 522 661 q 233 639 281 661 q 175 560 186 617 q 164 353 164 503 q 175 147 164 203 q 233 69 186 90 q 401 47 281 47 m 307 839 l 261 839 l 88 1022 l 88 1029 l 161 1029 l 307 846 l 307 839 m 574 839 l 528 839 l 354 1022 l 354 1029 l 429 1029 l 574 846 l 574 839 z "},"ö":{"ha":804,"x_min":100,"x_max":703,"o":"m 401 -11 q 196 17 257 -11 q 117 117 135 46 q 100 353 100 188 q 117 590 100 518 q 197 690 135 661 q 401 719 258 719 q 607 690 546 719 q 685 590 668 661 q 703 353 703 519 q 685 117 703 188 q 607 17 668 46 q 401 -11 546 -11 m 401 47 q 569 69 522 47 q 628 147 617 90 q 639 353 639 203 q 628 560 639 503 q 569 639 617 617 q 401 661 522 661 q 233 639 281 661 q 175 560 186 617 q 164 353 164 503 q 175 147 164 203 q 233 69 186 90 q 401 47 281 47 m 240 924 l 240 1015 l 311 1015 l 311 924 l 240 924 m 493 924 l 493 1015 l 564 1015 l 564 924 l 493 924 z "},"ọ":{"ha":803,"x_min":100,"x_max":703,"o":"m 401 -11 q 196 17 257 -11 q 117 117 135 46 q 100 353 100 188 q 117 590 100 518 q 197 690 135 661 q 401 719 258 719 q 607 690 546 719 q 685 590 668 661 q 703 353 703 519 q 685 117 703 188 q 607 17 668 46 q 401 -11 546 -11 m 401 47 q 569 69 522 47 q 628 147 617 90 q 639 353 639 203 q 628 560 639 503 q 569 639 617 617 q 401 661 522 661 q 233 639 281 661 q 175 560 186 617 q 164 353 164 503 q 175 147 164 203 q 233 69 186 90 q 401 47 281 47 m 361 -187 l 361 -86 l 443 -86 l 443 -187 l 361 -187 z "},"ò":{"ha":804,"x_min":100,"x_max":703,"o":"m 401 -11 q 196 17 257 -11 q 117 117 135 46 q 100 353 100 188 q 117 590 100 518 q 197 690 135 661 q 401 719 258 719 q 607 690 546 719 q 685 590 668 661 q 703 353 703 519 q 685 117 703 188 q 607 17 668 46 q 401 -11 546 -11 m 401 47 q 569 69 522 47 q 628 147 617 90 q 639 353 639 203 q 628 560 639 503 q 569 639 617 617 q 401 661 522 661 q 233 639 281 661 q 175 560 186 617 q 164 353 164 503 q 175 147 164 203 q 233 69 186 90 q 401 47 281 47 m 406 839 l 231 1025 l 231 1032 l 308 1032 l 454 846 l 454 839 l 406 839 z "},"ỏ":{"ha":803,"x_min":100,"x_max":703,"o":"m 401 -11 q 196 17 257 -11 q 117 117 135 46 q 100 353 100 188 q 117 590 100 518 q 197 690 135 661 q 401 719 258 719 q 607 690 546 719 q 685 590 668 661 q 703 353 703 519 q 685 117 703 188 q 607 17 668 46 q 401 -11 546 -11 m 401 47 q 569 69 522 47 q 628 147 617 90 q 639 353 639 203 q 628 560 639 503 q 569 639 617 617 q 401 661 522 661 q 233 639 281 661 q 175 560 186 617 q 164 353 164 503 q 175 147 164 203 q 233 69 186 90 q 401 47 281 47 m 339 857 q 351 902 339 889 q 397 926 363 915 l 433 935 q 487 952 471 944 q 508 970 503 960 q 514 1000 514 981 q 502 1040 514 1028 q 466 1054 490 1051 q 390 1057 442 1057 q 236 1050 329 1057 l 236 1093 q 390 1101 303 1101 q 495 1094 458 1101 q 549 1067 532 1088 q 567 1006 567 1047 q 551 941 567 961 q 485 907 536 921 l 446 896 q 402 882 414 888 q 388 869 390 876 q 385 842 385 861 l 339 842 l 339 857 z "},"ơ":{"ha":803,"x_min":100,"x_max":760,"o":"m 760 842 l 760 804 q 750 721 760 750 q 715 679 740 692 q 643 665 690 667 q 692 563 681 631 q 703 353 703 494 q 685 117 703 188 q 607 17 668 46 q 401 -11 546 -11 q 196 17 257 -11 q 117 117 135 46 q 100 353 100 188 q 117 590 100 518 q 196 690 135 661 q 401 718 257 718 q 553 707 499 718 l 633 707 q 692 724 679 707 q 706 794 706 742 l 706 842 l 760 842 m 401 47 q 569 69 522 47 q 628 147 617 90 q 639 353 639 203 q 628 560 639 503 q 569 639 617 617 q 401 661 522 661 q 233 639 281 661 q 175 560 186 617 q 164 353 164 503 q 175 147 164 203 q 233 69 186 90 q 401 47 281 47 z "},"ớ":{"ha":801,"x_min":100,"x_max":758,"o":"m 760 842 l 760 804 q 750 721 760 750 q 715 679 740 692 q 643 665 690 667 q 692 563 681 631 q 703 353 703 494 q 685 117 703 188 q 607 17 668 46 q 401 -11 546 -11 q 196 17 257 -11 q 117 117 135 46 q 100 353 100 188 q 117 590 100 518 q 196 690 135 661 q 401 718 257 718 q 553 707 499 718 l 633 707 q 692 724 679 707 q 706 794 706 742 l 706 842 l 760 842 m 401 47 q 569 69 522 47 q 628 147 617 90 q 639 353 639 203 q 628 560 639 503 q 569 639 617 617 q 401 661 522 661 q 233 639 281 661 q 175 560 186 617 q 164 353 164 503 q 175 147 164 203 q 233 69 186 90 q 401 47 281 47 m 369 836 l 369 843 l 515 1029 l 593 1029 l 593 1022 l 418 836 l 369 836 z "},"ợ":{"ha":801,"x_min":100,"x_max":758,"o":"m 760 842 l 760 804 q 750 721 760 750 q 715 679 740 692 q 643 665 690 667 q 692 563 681 631 q 703 353 703 494 q 685 117 703 188 q 607 17 668 46 q 401 -11 546 -11 q 196 17 257 -11 q 117 117 135 46 q 100 353 100 188 q 117 590 100 518 q 196 690 135 661 q 401 718 257 718 q 553 707 499 718 l 633 707 q 692 724 679 707 q 706 794 706 742 l 706 842 l 760 842 m 401 47 q 569 69 522 47 q 628 147 617 90 q 639 353 639 203 q 628 560 639 503 q 569 639 617 617 q 401 661 522 661 q 233 639 281 661 q 175 560 186 617 q 164 353 164 503 q 175 147 164 203 q 233 69 186 90 q 401 47 281 47 m 361 -187 l 361 -86 l 443 -86 l 443 -187 l 361 -187 z "},"ờ":{"ha":801,"x_min":100,"x_max":758,"o":"m 760 842 l 760 804 q 750 721 760 750 q 715 679 740 692 q 643 665 690 667 q 692 563 681 631 q 703 353 703 494 q 685 117 703 188 q 607 17 668 46 q 401 -11 546 -11 q 196 17 257 -11 q 117 117 135 46 q 100 353 100 188 q 117 590 100 518 q 196 690 135 661 q 401 718 257 718 q 553 707 499 718 l 633 707 q 692 724 679 707 q 706 794 706 742 l 706 842 l 760 842 m 401 47 q 569 69 522 47 q 628 147 617 90 q 639 353 639 203 q 628 560 639 503 q 569 639 617 617 q 401 661 522 661 q 233 639 281 661 q 175 560 186 617 q 164 353 164 503 q 175 147 164 203 q 233 69 186 90 q 401 47 281 47 m 394 836 l 219 1022 l 219 1029 l 297 1029 l 443 843 l 443 836 l 394 836 z "},"ở":{"ha":801,"x_min":100,"x_max":758,"o":"m 760 842 l 760 804 q 750 721 760 750 q 715 679 740 692 q 643 665 690 667 q 692 563 681 631 q 703 353 703 494 q 685 117 703 188 q 607 17 668 46 q 401 -11 546 -11 q 196 17 257 -11 q 117 117 135 46 q 100 353 100 188 q 117 590 100 518 q 196 690 135 661 q 401 718 257 718 q 553 707 499 718 l 633 707 q 692 724 679 707 q 706 794 706 742 l 706 842 l 760 842 m 401 47 q 569 69 522 47 q 628 147 617 90 q 639 353 639 203 q 628 560 639 503 q 569 639 617 617 q 401 661 522 661 q 233 639 281 661 q 175 560 186 617 q 164 353 164 503 q 175 147 164 203 q 233 69 186 90 q 401 47 281 47 m 339 856 q 351 901 339 888 q 397 925 363 914 l 433 933 q 487 951 471 943 q 508 969 503 958 q 514 999 514 979 q 502 1038 514 1026 q 466 1053 490 1050 q 390 1056 442 1056 q 236 1049 329 1056 l 236 1092 q 390 1100 303 1100 q 495 1093 458 1100 q 549 1066 532 1086 q 567 1004 567 1046 q 551 940 567 960 q 485 906 536 919 l 446 894 q 402 881 414 886 q 388 867 390 875 q 385 840 385 860 l 339 840 l 339 856 z "},"ỡ":{"ha":801,"x_min":100,"x_max":758,"o":"m 760 842 l 760 804 q 750 721 760 750 q 715 679 740 692 q 643 665 690 667 q 692 563 681 631 q 703 353 703 494 q 685 117 703 188 q 607 17 668 46 q 401 -11 546 -11 q 196 17 257 -11 q 117 117 135 46 q 100 353 100 188 q 117 590 100 518 q 196 690 135 661 q 401 718 257 718 q 553 707 499 718 l 633 707 q 692 724 679 707 q 706 794 706 742 l 706 842 l 760 842 m 401 47 q 569 69 522 47 q 628 147 617 90 q 639 353 639 203 q 628 560 639 503 q 569 639 617 617 q 401 661 522 661 q 233 639 281 661 q 175 560 186 617 q 164 353 164 503 q 175 147 164 203 q 233 69 186 90 q 401 47 281 47 m 642 1029 q 624 920 642 950 q 551 890 607 890 q 482 899 515 890 q 386 928 449 907 q 312 951 343 943 q 251 958 281 958 q 213 941 221 958 q 204 875 204 924 l 160 875 q 177 984 160 954 q 250 1014 194 1014 q 325 1004 288 1014 q 415 976 363 994 q 451 965 422 974 q 506 951 481 956 q 550 946 531 946 q 588 963 579 946 q 597 1029 597 981 l 642 1029 z "},"ő":{"ha":803,"x_min":100,"x_max":738,"o":"m 401 -11 q 196 17 257 -11 q 117 117 135 46 q 100 353 100 188 q 117 590 100 518 q 197 690 135 661 q 401 719 258 719 q 607 690 546 719 q 685 590 668 661 q 703 353 703 519 q 685 117 703 188 q 607 17 668 46 q 401 -11 546 -11 m 401 47 q 569 69 522 47 q 628 147 617 90 q 639 353 639 203 q 628 560 639 503 q 569 639 617 617 q 401 661 522 661 q 233 639 281 661 q 175 560 186 617 q 164 353 164 503 q 175 147 164 203 q 233 69 186 90 q 401 47 281 47 m 251 839 l 251 846 l 396 1029 l 471 1029 l 471 1022 l 297 839 l 251 839 m 518 839 l 518 846 l 664 1029 l 738 1029 l 738 1022 l 564 839 l 518 839 z "},"ȏ":{"ha":803,"x_min":100,"x_max":703,"o":"m 401 -11 q 196 17 257 -11 q 117 117 135 46 q 100 353 100 188 q 117 590 100 518 q 197 690 135 661 q 401 719 258 719 q 607 690 546 719 q 685 590 668 661 q 703 353 703 519 q 685 117 703 188 q 607 17 668 46 q 401 -11 546 -11 m 401 47 q 569 69 522 47 q 628 147 617 90 q 639 353 639 203 q 628 560 639 503 q 569 639 617 617 q 401 661 522 661 q 233 639 281 661 q 175 560 186 617 q 164 353 164 503 q 175 147 164 203 q 233 69 186 90 q 401 47 281 47 m 219 844 q 229 955 219 915 q 278 1018 239 994 q 401 1042 317 1042 q 525 1018 486 1042 q 573 956 564 994 q 582 844 582 917 l 532 844 q 526 933 532 904 q 492 978 519 963 q 401 994 464 994 q 311 978 339 994 q 276 933 283 963 q 269 844 269 904 l 219 844 z "},"ō":{"ha":803,"x_min":100,"x_max":703,"o":"m 401 -11 q 196 17 257 -11 q 117 117 135 46 q 100 353 100 188 q 117 590 100 518 q 197 690 135 661 q 401 719 258 719 q 607 690 546 719 q 685 590 668 661 q 703 353 703 519 q 685 117 703 188 q 607 17 668 46 q 401 -11 546 -11 m 401 47 q 569 69 522 47 q 628 147 617 90 q 639 353 639 203 q 628 560 639 503 q 569 639 617 617 q 401 661 522 661 q 233 639 281 661 q 175 560 186 617 q 164 353 164 503 q 175 147 164 203 q 233 69 186 90 q 401 47 281 47 m 242 965 l 242 1029 l 560 1029 l 560 965 l 242 965 z "},"ǫ":{"ha":804,"x_min":100,"x_max":703,"o":"m 401 719 q 607 690 546 719 q 685 590 668 661 q 703 353 703 519 q 690 138 703 207 q 635 35 678 68 q 563 -54 596 4 q 529 -158 529 -112 q 594 -219 529 -219 q 618 -218 607 -219 l 618 -271 q 582 -272 607 -272 q 497 -244 524 -272 q 469 -172 469 -217 q 489 -85 469 -131 q 542 -1 508 -40 q 401 -11 492 -11 q 196 17 257 -11 q 117 117 135 46 q 100 353 100 188 q 117 590 100 518 q 197 690 135 661 q 401 719 258 719 m 401 47 q 569 69 522 47 q 628 147 617 90 q 639 353 639 203 q 628 560 639 503 q 569 639 617 617 q 401 661 522 661 q 233 639 281 661 q 175 560 186 617 q 164 353 164 503 q 175 147 164 203 q 233 69 186 90 q 401 47 281 47 z "},"ø":{"ha":804,"x_min":100,"x_max":703,"o":"m 633 675 q 690 572 678 642 q 703 353 703 503 q 685 117 703 188 q 607 17 668 46 q 401 -11 546 -11 q 217 10 275 -11 l 163 -76 l 101 -76 l 169 33 q 113 138 125 68 q 100 353 100 207 q 117 590 100 518 q 197 690 135 661 q 401 719 258 719 q 586 699 525 719 l 639 785 l 701 785 l 633 675 m 164 353 q 170 171 164 225 q 204 89 176 117 l 553 646 q 401 661 506 661 q 233 639 281 661 q 175 560 186 617 q 164 353 164 503 m 401 47 q 569 69 522 47 q 628 147 617 90 q 639 353 639 203 q 633 536 639 482 q 597 619 626 590 l 250 63 q 401 47 297 47 z "},"ǿ":{"ha":803,"x_min":100,"x_max":703,"o":"m 633 675 q 690 572 678 642 q 703 353 703 503 q 685 117 703 188 q 607 17 668 46 q 401 -11 546 -11 q 217 10 275 -11 l 163 -76 l 101 -76 l 169 33 q 113 138 125 68 q 100 353 100 207 q 117 590 100 518 q 197 690 135 661 q 401 719 258 719 q 586 699 525 719 l 639 785 l 701 785 l 633 675 m 164 353 q 170 171 164 225 q 204 89 176 117 l 553 646 q 401 661 506 661 q 233 639 281 661 q 175 560 186 617 q 164 353 164 503 m 401 47 q 569 69 522 47 q 628 147 617 90 q 639 353 639 203 q 633 536 639 482 q 597 619 626 590 l 250 63 q 401 47 297 47 m 371 838 l 371 844 l 517 1031 l 594 1031 l 594 1024 l 419 838 l 371 838 z "},"õ":{"ha":804,"x_min":100,"x_max":703,"o":"m 401 -11 q 196 17 257 -11 q 117 117 135 46 q 100 353 100 188 q 117 590 100 518 q 197 690 135 661 q 401 719 258 719 q 607 690 546 719 q 685 590 668 661 q 703 353 703 519 q 685 117 703 188 q 607 17 668 46 q 401 -11 546 -11 m 401 47 q 569 69 522 47 q 628 147 617 90 q 639 353 639 203 q 628 560 639 503 q 569 639 617 617 q 401 661 522 661 q 233 639 281 661 q 175 560 186 617 q 164 353 164 503 q 175 147 164 203 q 233 69 186 90 q 401 47 281 47 m 643 1032 q 626 923 643 953 q 553 893 608 893 q 483 901 517 893 q 388 931 450 910 q 313 953 344 946 q 253 961 282 961 q 215 944 224 961 q 206 878 206 926 l 161 878 q 178 987 161 957 q 251 1017 196 1017 q 326 1007 289 1017 q 417 979 364 997 q 453 967 424 976 q 507 953 482 958 q 551 949 532 949 q 590 966 582 949 q 599 1032 599 983 l 643 1032 z "},"œ":{"ha":1318,"x_min":100,"x_max":1217,"o":"m 1217 332 l 703 332 q 719 149 703 207 q 787 69 735 92 q 954 46 839 46 q 1074 51 1008 46 q 1189 65 1140 57 l 1189 7 q 1080 -6 1149 -1 q 943 -11 1011 -11 q 763 14 825 -11 q 672 101 701 39 q 589 13 649 36 q 401 -11 529 -11 q 196 17 257 -11 q 117 117 135 46 q 100 353 100 188 q 117 590 100 518 q 197 690 135 661 q 401 719 258 719 q 587 696 526 719 q 672 611 647 672 q 761 694 699 669 q 946 719 824 719 q 1129 687 1072 719 q 1201 583 1186 654 q 1217 356 1217 511 l 1217 332 m 942 663 q 783 642 831 663 q 719 567 735 622 q 703 386 703 513 l 1154 386 l 1154 411 q 1135 576 1154 524 q 1074 646 1117 629 q 942 663 1031 663 m 401 47 q 569 69 522 47 q 628 147 617 90 q 639 353 639 203 q 628 560 639 503 q 569 639 617 617 q 401 661 522 661 q 233 639 281 661 q 175 560 186 617 q 164 353 164 503 q 175 147 164 203 q 233 69 186 90 q 401 47 281 47 z "},"p":{"ha":825,"x_min":135,"x_max":724,"o":"m 135 708 l 188 708 l 192 597 l 199 597 q 289 695 225 671 q 450 719 353 719 q 624 690 567 719 q 702 583 681 660 q 724 354 724 507 q 702 125 724 201 q 624 19 681 49 q 450 -11 567 -11 q 289 15 349 -11 q 204 100 229 40 l 199 100 l 199 -278 l 135 -278 l 135 708 m 428 49 q 581 69 535 49 q 644 152 628 90 q 660 354 660 214 q 644 556 660 494 q 581 640 628 618 q 428 661 535 661 q 288 635 339 661 q 218 554 236 610 q 202 475 206 518 q 199 354 199 432 q 201 238 199 281 q 214 165 204 194 q 287 75 236 101 q 428 49 338 49 z "},"þ":{"ha":825,"x_min":135,"x_max":724,"o":"m 135 1032 l 199 1032 l 199 608 l 204 608 q 289 694 229 668 q 450 719 349 719 q 624 690 567 719 q 702 583 681 660 q 724 354 724 507 q 702 125 724 201 q 624 19 681 49 q 450 -11 567 -11 q 289 15 349 -11 q 204 100 229 40 l 199 100 l 199 -264 l 135 -264 l 135 1032 m 428 49 q 581 69 535 49 q 644 152 628 90 q 660 354 660 214 q 644 556 660 494 q 581 640 628 618 q 428 661 535 661 q 288 635 340 661 q 215 550 236 610 q 201 474 204 517 q 199 354 199 432 q 201 239 199 282 q 213 171 204 196 q 286 76 235 104 q 428 49 338 49 z "},"q":{"ha":825,"x_min":100,"x_max":690,"o":"m 626 100 l 621 100 q 536 15 596 40 q 375 -11 476 -11 q 200 19 257 -11 q 122 125 143 49 q 100 354 100 201 q 122 583 100 507 q 201 690 143 660 q 375 719 258 719 q 536 695 472 719 q 626 597 600 671 l 632 597 l 638 708 l 690 708 l 690 -278 l 626 -278 l 626 100 m 396 49 q 537 74 486 49 q 608 158 588 100 q 623 236 619 192 q 626 354 626 281 q 623 476 626 432 q 604 563 619 521 q 535 637 586 613 q 396 661 483 661 q 244 640 290 661 q 181 556 197 618 q 164 354 164 494 q 180 152 164 214 q 243 69 196 90 q 396 49 290 49 z "},"r":{"ha":482,"x_min":135,"x_max":440,"o":"m 135 708 l 186 708 l 192 561 l 199 561 q 282 685 221 651 q 440 719 343 719 l 440 654 q 290 620 343 654 q 218 521 238 586 q 199 350 199 456 l 199 0 l 135 0 l 135 708 z "},"ŕ":{"ha":482,"x_min":135,"x_max":440,"o":"m 135 708 l 186 708 l 192 561 l 199 561 q 282 685 221 651 q 440 719 343 719 l 440 654 q 290 620 343 654 q 218 521 238 586 q 199 350 199 456 l 199 0 l 135 0 l 135 708 m 211 838 l 211 844 l 357 1031 l 435 1031 l 435 1024 l 260 838 l 211 838 z "},"ř":{"ha":482,"x_min":57,"x_max":440,"o":"m 135 708 l 186 708 l 192 561 l 199 561 q 282 685 221 651 q 440 719 343 719 l 440 654 q 290 620 343 654 q 218 521 238 586 q 199 350 199 456 l 199 0 l 135 0 l 135 708 m 204 838 l 57 1024 l 57 1031 l 104 1031 l 242 885 l 381 1031 l 428 1031 l 428 1024 l 281 838 l 204 838 z "},"ŗ":{"ha":482,"x_min":107,"x_max":440,"o":"m 135 708 l 186 708 l 192 561 l 199 561 q 282 685 221 651 q 440 719 343 719 l 440 654 q 290 620 343 654 q 218 521 238 586 q 199 350 199 456 l 199 0 l 135 0 l 135 708 m 107 -293 q 154 -286 139 -293 q 174 -262 169 -279 q 179 -211 179 -246 l 179 -187 l 146 -187 l 146 -86 l 226 -86 l 226 -192 q 217 -277 226 -249 q 182 -317 207 -306 q 107 -329 157 -329 l 107 -293 z "},"ȑ":{"ha":482,"x_min":-72,"x_max":440,"o":"m 135 708 l 186 708 l 192 561 l 199 561 q 282 685 221 651 q 440 719 343 719 l 440 654 q 290 620 343 654 q 218 521 238 586 q 199 350 199 456 l 199 0 l 135 0 l 135 708 m 147 839 l 101 839 l -72 1022 l -72 1029 l 1 1029 l 147 846 l 147 839 m 414 839 l 368 839 l 194 1022 l 194 1029 l 269 1029 l 414 846 l 414 839 z "},"ṛ":{"ha":482,"x_min":126,"x_max":440,"o":"m 135 708 l 186 708 l 192 561 l 199 561 q 282 685 221 651 q 440 719 343 719 l 440 654 q 290 620 343 654 q 218 521 238 586 q 199 350 199 456 l 199 0 l 135 0 l 135 708 m 126 -187 l 126 -86 l 208 -86 l 208 -187 l 126 -187 z "},"ȓ":{"ha":482,"x_min":60,"x_max":440,"o":"m 135 708 l 186 708 l 192 561 l 199 561 q 282 685 221 651 q 440 719 343 719 l 440 654 q 290 620 343 654 q 218 521 238 586 q 199 350 199 456 l 199 0 l 135 0 l 135 708 m 60 844 q 69 955 60 915 q 118 1018 79 994 q 242 1042 157 1042 q 365 1018 326 1042 q 413 956 404 994 q 422 844 422 917 l 372 844 q 366 933 372 904 q 332 978 360 963 q 242 994 304 994 q 151 978 179 994 q 117 933 124 963 q 110 844 110 904 l 60 844 z "},"s":{"ha":693,"x_min":88,"x_max":606,"o":"m 353 -11 q 228 -7 297 -11 q 110 4 160 -3 l 110 63 q 247 50 197 53 q 367 47 297 47 q 481 61 443 47 q 531 103 518 75 q 543 188 543 132 q 534 272 543 246 q 506 307 525 299 q 440 319 486 315 l 240 339 q 145 365 178 346 q 100 419 113 383 q 88 517 88 454 q 117 650 88 607 q 203 706 147 693 q 357 719 258 719 q 466 715 407 719 q 567 701 525 710 l 567 644 q 339 661 461 661 q 233 653 271 661 q 172 617 194 646 q 150 525 150 588 q 159 448 150 472 q 189 414 168 424 q 254 400 210 404 l 450 381 q 548 358 517 374 q 592 305 579 343 q 606 188 606 267 q 580 63 606 106 q 501 5 554 21 q 353 -11 447 -11 z "},"ś":{"ha":693,"x_min":88,"x_max":606,"o":"m 353 -11 q 228 -7 297 -11 q 110 4 160 -3 l 110 63 q 247 50 197 53 q 367 47 297 47 q 481 61 443 47 q 531 103 518 75 q 543 188 543 132 q 534 272 543 246 q 506 307 525 299 q 440 319 486 315 l 240 339 q 145 365 178 346 q 100 419 113 383 q 88 517 88 454 q 117 650 88 607 q 203 706 147 693 q 357 719 258 719 q 466 715 407 719 q 567 701 525 710 l 567 644 q 339 661 461 661 q 233 653 271 661 q 172 617 194 646 q 150 525 150 588 q 159 448 150 472 q 189 414 168 424 q 254 400 210 404 l 450 381 q 548 358 517 374 q 592 305 579 343 q 606 188 606 267 q 580 63 606 106 q 501 5 554 21 q 353 -11 447 -11 m 317 838 l 317 844 l 463 1031 l 540 1031 l 540 1024 l 365 838 l 317 838 z "},"ꞌ":{"ha":158,"x_min":46,"x_max":113,"o":"m 46 404 l 46 1032 l 113 1032 l 113 708 l 89 404 l 46 404 z "},"š":{"ha":693,"x_min":88,"x_max":606,"o":"m 353 -11 q 228 -7 297 -11 q 110 4 160 -3 l 110 63 q 247 50 197 53 q 367 47 297 47 q 481 61 443 47 q 531 103 518 75 q 543 188 543 132 q 534 272 543 246 q 506 307 525 299 q 440 319 486 315 l 240 339 q 145 365 178 346 q 100 419 113 383 q 88 517 88 454 q 117 650 88 607 q 203 706 147 693 q 357 719 258 719 q 466 715 407 719 q 567 701 525 710 l 567 644 q 339 661 461 661 q 233 653 271 661 q 172 617 194 646 q 150 525 150 588 q 159 448 150 472 q 189 414 168 424 q 254 400 210 404 l 450 381 q 548 358 517 374 q 592 305 579 343 q 606 188 606 267 q 580 63 606 106 q 501 5 554 21 q 353 -11 447 -11 m 313 839 l 165 1025 l 165 1032 l 213 1032 l 350 886 l 489 1032 l 536 1032 l 536 1025 l 389 839 l 313 839 z "},"ş":{"ha":693,"x_min":88,"x_max":606,"o":"m 606 188 q 582 66 606 108 q 508 7 558 24 q 371 -11 458 -10 l 314 -264 l 244 -264 l 244 -257 l 321 -11 q 110 4 218 -10 l 110 63 q 247 50 197 53 q 367 47 297 47 q 481 61 443 47 q 531 103 518 75 q 543 188 543 132 q 534 272 543 246 q 506 307 525 299 q 440 319 486 315 l 240 339 q 145 365 178 346 q 100 419 113 383 q 88 517 88 454 q 117 650 88 607 q 203 706 147 693 q 357 718 258 718 q 465 713 406 718 q 567 701 524 708 l 567 644 q 339 661 461 661 q 233 653 271 661 q 172 617 194 646 q 150 525 150 588 q 159 448 150 472 q 189 414 168 424 q 254 400 210 404 l 450 381 q 548 358 517 374 q 592 305 579 343 q 606 188 606 267 z "},"ŝ":{"ha":693,"x_min":88,"x_max":606,"o":"m 353 -11 q 228 -7 297 -11 q 110 4 160 -3 l 110 63 q 247 50 197 53 q 367 47 297 47 q 481 61 443 47 q 531 103 518 75 q 543 188 543 132 q 534 272 543 246 q 506 307 525 299 q 440 319 486 315 l 240 339 q 145 365 178 346 q 100 419 113 383 q 88 517 88 454 q 117 650 88 607 q 203 706 147 693 q 357 719 258 719 q 466 715 407 719 q 567 701 525 710 l 567 644 q 339 661 461 661 q 233 653 271 661 q 172 617 194 646 q 150 525 150 588 q 159 448 150 472 q 189 414 168 424 q 254 400 210 404 l 450 381 q 548 358 517 374 q 592 305 579 343 q 606 188 606 267 q 580 63 606 106 q 501 5 554 21 q 353 -11 447 -11 m 163 838 l 163 844 l 310 1031 l 386 1031 l 533 844 l 533 838 l 486 838 l 347 983 l 210 838 l 163 838 z "},"ș":{"ha":693,"x_min":88,"x_max":606,"o":"m 353 -11 q 228 -7 297 -11 q 110 4 160 -3 l 110 63 q 247 50 197 53 q 367 47 297 47 q 481 61 443 47 q 531 103 518 75 q 543 188 543 132 q 534 272 543 246 q 506 307 525 299 q 440 319 486 315 l 240 339 q 145 365 178 346 q 100 419 113 383 q 88 517 88 454 q 117 650 88 607 q 203 706 147 693 q 357 719 258 719 q 466 715 407 719 q 567 701 525 710 l 567 644 q 339 661 461 661 q 233 653 271 661 q 172 617 194 646 q 150 525 150 588 q 159 448 150 472 q 189 414 168 424 q 254 400 210 404 l 450 381 q 548 358 517 374 q 592 305 579 343 q 606 188 606 267 q 580 63 606 106 q 501 5 554 21 q 353 -11 447 -11 m 288 -293 q 335 -286 319 -293 q 355 -262 350 -279 q 360 -211 360 -246 l 360 -187 l 326 -187 l 326 -86 l 407 -86 l 407 -192 q 397 -277 407 -249 q 363 -317 388 -306 q 288 -329 338 -329 l 288 -293 z "},"ṣ":{"ha":693,"x_min":88,"x_max":606,"o":"m 353 -11 q 228 -7 297 -11 q 110 4 160 -3 l 110 63 q 247 50 197 53 q 367 47 297 47 q 481 61 443 47 q 531 103 518 75 q 543 188 543 132 q 534 272 543 246 q 506 307 525 299 q 440 319 486 315 l 240 339 q 145 365 178 346 q 100 419 113 383 q 88 517 88 454 q 117 650 88 607 q 203 706 147 693 q 357 719 258 719 q 466 715 407 719 q 567 701 525 710 l 567 644 q 339 661 461 661 q 233 653 271 661 q 172 617 194 646 q 150 525 150 588 q 159 448 150 472 q 189 414 168 424 q 254 400 210 404 l 450 381 q 548 358 517 374 q 592 305 579 343 q 606 188 606 267 q 580 63 606 106 q 501 5 554 21 q 353 -11 447 -11 m 307 -187 l 307 -86 l 389 -86 l 389 -187 l 307 -187 z "},"ß":{"ha":849,"x_min":135,"x_max":747,"o":"m 349 0 l 349 57 l 444 57 q 605 74 558 57 q 667 143 651 90 q 683 326 683 196 q 663 481 683 428 q 593 556 642 535 q 454 578 544 578 l 400 578 l 400 636 l 454 636 q 622 674 572 636 q 671 803 671 713 q 651 910 671 872 q 581 966 631 949 q 436 983 531 983 q 298 963 349 983 q 222 888 247 943 q 197 728 197 833 l 197 0 l 135 0 l 135 736 q 164 910 135 844 q 261 1009 193 976 q 447 1042 329 1042 q 622 1015 560 1042 q 710 937 685 989 q 735 800 735 885 q 696 672 735 717 q 575 614 657 628 l 575 608 q 705 532 663 594 q 747 338 747 469 q 727 133 747 203 q 649 31 707 63 q 472 0 590 0 l 349 0 z "},"ſ":{"ha":435,"x_min":40,"x_max":440,"o":"m 189 650 l 40 650 l 40 708 l 189 708 l 189 856 q 215 972 189 933 q 293 1021 242 1010 q 440 1032 344 1032 l 440 978 q 324 969 363 978 q 269 937 285 960 q 253 867 253 914 l 253 0 l 189 0 l 189 650 z "},"t":{"ha":467,"x_min":40,"x_max":425,"o":"m 189 0 l 189 650 l 40 650 l 40 708 l 189 708 l 189 914 l 253 914 l 253 708 l 425 708 l 425 650 l 253 650 l 253 0 l 189 0 z "},"ŧ":{"ha":467,"x_min":40,"x_max":426,"o":"m 426 399 l 426 342 l 253 342 l 253 0 l 189 0 l 189 342 l 44 342 l 44 399 l 189 399 l 189 650 l 40 650 l 40 707 l 189 707 l 189 913 l 253 913 l 253 707 l 425 707 l 425 650 l 253 650 l 253 399 l 426 399 z "},"ť":{"ha":467,"x_min":40,"x_max":565,"o":"m 189 0 l 189 650 l 40 650 l 40 708 l 189 708 l 189 914 l 253 914 l 253 708 l 425 708 l 425 650 l 253 650 l 253 0 l 189 0 m 481 626 l 499 836 l 499 956 l 565 956 l 565 836 l 524 626 l 481 626 z "},"ţ":{"ha":467,"x_min":40,"x_max":425,"o":"m 253 707 l 425 707 l 425 650 l 253 650 l 253 0 l 246 0 l 188 -264 l 118 -264 l 118 -257 l 199 0 l 189 0 l 189 650 l 40 650 l 40 707 l 189 707 l 189 913 l 253 913 l 253 707 z "},"ț":{"ha":467,"x_min":40,"x_max":425,"o":"m 189 0 l 189 650 l 40 650 l 40 708 l 189 708 l 189 914 l 253 914 l 253 708 l 425 708 l 425 650 l 253 650 l 253 0 l 189 0 m 161 -293 q 208 -286 193 -293 q 228 -262 224 -279 q 233 -211 233 -246 l 233 -187 l 200 -187 l 200 -86 l 281 -86 l 281 -192 q 271 -277 281 -249 q 236 -317 261 -306 q 161 -329 211 -329 l 161 -293 z "},"ṭ":{"ha":467,"x_min":40,"x_max":425,"o":"m 189 0 l 189 650 l 40 650 l 40 708 l 189 708 l 189 914 l 253 914 l 253 708 l 425 708 l 425 650 l 253 650 l 253 0 l 189 0 m 181 -187 l 181 -86 l 263 -86 l 263 -187 l 181 -187 z "},"u":{"ha":836,"x_min":135,"x_max":701,"o":"m 644 111 l 638 111 q 562 22 617 54 q 389 -11 507 -11 q 225 16 279 -11 q 153 100 171 43 q 135 264 135 157 l 135 708 l 199 708 l 199 279 q 214 128 199 175 q 272 65 229 81 q 408 49 314 49 q 565 85 515 49 q 626 178 615 121 q 638 342 638 236 l 638 708 l 701 708 l 701 0 l 649 0 l 644 111 z "}}}
